# Tiled2Unity generated file. Do not modify by hand.
# Wavefront file for 'sunrise_mesh_0152.obj'

# Vertices (Count = 64)
v -14 -1 -0.01
v -15 -1 -0.01
v -15 0 -0.01
v -14 0 -0.01
v -13 -2 -0.02
v -14 -2 -0.02
v -14 -1 -0.02
v -13 -1 -0.02
v -14 -2 -0.02
v -15 -2 -0.02
v -15 -1 -0.02
v -14 -1 -0.02
v -13 -3 -0.03
v -14 -3 -0.03
v -14 -2 -0.03
v -13 -2 -0.03
v -14 -3 -0.03
v -15 -3 -0.03
v -15 -2 -0.03
v -14 -2 -0.03
v -12 -4 -0.04
v -13 -4 -0.04
v -13 -3 -0.04
v -12 -3 -0.04
v -13 -4 -0.04
v -14 -4 -0.04
v -14 -3 -0.04
v -13 -3 -0.04
v -12 -5 -0.05
v -13 -5 -0.05
v -13 -4 -0.05
v -12 -4 -0.05
v -13 -5 -0.05
v -14 -5 -0.05
v -14 -4 -0.05
v -13 -4 -0.05
v -12 -6 -0.06
v -13 -6 -0.06
v -13 -5 -0.06
v -12 -5 -0.06
v -13 -6 -0.06
v -14 -6 -0.06
v -14 -5 -0.06
v -13 -5 -0.06
v -13 -7 -0.07
v -14 -7 -0.07
v -14 -6 -0.07
v -13 -6 -0.07
v -14 -7 -0.07
v -15 -7 -0.07
v -15 -6 -0.07
v -14 -6 -0.07
v -14 -8 -0.08
v -15 -8 -0.08
v -15 -7 -0.08
v -14 -7 -0.08
v -14 -9 -0.09
v -15 -9 -0.09
v -15 -8 -0.09
v -14 -8 -0.09
v -15 -9 -0.09
v -16 -9 -0.09
v -16 -8 -0.09
v -15 -8 -0.09

# Texture cooridinates (Count = 18)
vt 0.12 0.32
vt 0.16 0.32
vt 0.16 0.36
vt 0.12 0.36
vt 0.36 0.24
vt 0.4 0.24
vt 0.4 0.28
vt 0.36 0.28
vt 0.12 0.28
vt 0.16 0.28
vt 0.12 0.24
vt 0.16 0.24
vt 0.36 0.2
vt 0.4 0.2
vt 0.4 0.32
vt 0.36 0.32
vt 0.44 0.2
vt 0.44 0.24

# Normal
vn 0 0 -1

# Mesh description
g sunrise_mesh_0152

# Faces
f 1/1/1 2/2/1 3/3/1 4/4/1
f 5/5/1 6/6/1 7/7/1 8/8/1
f 9/9/1 10/10/1 11/2/1 12/1/1
f 13/1/1 14/2/1 15/3/1 16/4/1
f 17/11/1 18/12/1 19/10/1 20/9/1
f 21/5/1 22/6/1 23/7/1 24/8/1
f 25/9/1 26/10/1 27/2/1 28/1/1
f 29/5/1 30/6/1 31/7/1 32/8/1
f 33/11/1 34/12/1 35/10/1 36/9/1
f 37/13/1 38/14/1 39/6/1 40/5/1
f 41/8/1 42/7/1 43/15/1 44/16/1
f 45/13/1 46/14/1 47/6/1 48/5/1
f 49/8/1 50/7/1 51/15/1 52/16/1
f 53/5/1 54/6/1 55/7/1 56/8/1
f 57/13/1 58/14/1 59/6/1 60/5/1
f 61/14/1 62/17/1 63/18/1 64/6/1

