# Tiled2Unity generated file. Do not modify by hand.
# Wavefront file for 'sunrise_mesh_0095.obj'

# Vertices (Count = 180)
v 0 -2 -0.02
v -1 -2 -0.02
v -1 -1 -0.02
v 0 -1 -0.02
v 0 -3 -0.03
v -1 -3 -0.03
v -1 -2 -0.03
v 0 -2 -0.03
v -3 -3 -0.03
v -4 -3 -0.03
v -4 -2 -0.03
v -3 -2 -0.03
v -4 -3 -0.03
v -5 -3 -0.03
v -5 -2 -0.03
v -4 -2 -0.03
v -5 -3 -0.03
v -6 -3 -0.03
v -6 -2 -0.03
v -5 -2 -0.03
v -10 -3 -0.03
v -11 -3 -0.03
v -11 -2 -0.03
v -10 -2 -0.03
v -11 -3 -0.03
v -12 -3 -0.03
v -12 -2 -0.03
v -11 -2 -0.03
v 0 -4 -0.04
v -1 -4 -0.04
v -1 -3 -0.04
v 0 -3 -0.04
v -2 -4 -0.04
v -3 -4 -0.04
v -3 -3 -0.04
v -2 -3 -0.04
v -3 -4 -0.04
v -4 -4 -0.04
v -4 -3 -0.04
v -3 -3 -0.04
v -4 -4 -0.04
v -5 -4 -0.04
v -5 -3 -0.04
v -4 -3 -0.04
v -5 -4 -0.04
v -6 -4 -0.04
v -6 -3 -0.04
v -5 -3 -0.04
v -10 -4 -0.04
v -11 -4 -0.04
v -11 -3 -0.04
v -10 -3 -0.04
v -11 -4 -0.04
v -12 -4 -0.04
v -12 -3 -0.04
v -11 -3 -0.04
v -3 -5 -0.05
v -4 -5 -0.05
v -4 -4 -0.05
v -3 -4 -0.05
v -4 -5 -0.05
v -5 -5 -0.05
v -5 -4 -0.05
v -4 -4 -0.05
v -5 -5 -0.05
v -6 -5 -0.05
v -6 -4 -0.05
v -5 -4 -0.05
v -10 -5 -0.05
v -11 -5 -0.05
v -11 -4 -0.05
v -10 -4 -0.05
v -11 -5 -0.05
v -12 -5 -0.05
v -12 -4 -0.05
v -11 -4 -0.05
v 0 -6 -0.06
v -1 -6 -0.06
v -1 -5 -0.06
v 0 -5 -0.06
v -3 -6 -0.06
v -4 -6 -0.06
v -4 -5 -0.06
v -3 -5 -0.06
v -4 -6 -0.06
v -5 -6 -0.06
v -5 -5 -0.06
v -4 -5 -0.06
v 0 -7 -0.07
v -1 -7 -0.07
v -1 -6 -0.07
v 0 -6 -0.07
v -1 -7 -0.07
v -2 -7 -0.07
v -2 -6 -0.07
v -1 -6 -0.07
v -14 -7 -0.07
v -15 -7 -0.07
v -15 -6 -0.07
v -14 -6 -0.07
v 0 -8 -0.08
v -1 -8 -0.08
v -1 -7 -0.08
v 0 -7 -0.08
v -7 -8 -0.08
v -8 -8 -0.08
v -8 -7 -0.08
v -7 -7 -0.08
v -8 -9 -0.09
v -9 -9 -0.09
v -9 -8 -0.09
v -8 -8 -0.09
v -9 -9 -0.09
v -10 -9 -0.09
v -10 -8 -0.09
v -9 -8 -0.09
v -10 -9 -0.09
v -11 -9 -0.09
v -11 -8 -0.09
v -10 -8 -0.09
v -4 -10 -0.1
v -5 -10 -0.1
v -5 -9 -0.1
v -4 -9 -0.1
v -5 -10 -0.1
v -6 -10 -0.1
v -6 -9 -0.1
v -5 -9 -0.1
v -6 -10 -0.1
v -7 -10 -0.1
v -7 -9 -0.1
v -6 -9 -0.1
v -7 -10 -0.1
v -8 -10 -0.1
v -8 -9 -0.1
v -7 -9 -0.1
v -8 -10 -0.1
v -9 -10 -0.1
v -9 -9 -0.1
v -8 -9 -0.1
v -9 -10 -0.1
v -10 -10 -0.1
v -10 -9 -0.1
v -9 -9 -0.1
v -10 -10 -0.1
v -11 -10 -0.1
v -11 -9 -0.1
v -10 -9 -0.1
v -4 -11 -0.11
v -5 -11 -0.11
v -5 -10 -0.11
v -4 -10 -0.11
v -5 -11 -0.11
v -6 -11 -0.11
v -6 -10 -0.11
v -5 -10 -0.11
v -9 -11 -0.11
v -10 -11 -0.11
v -10 -10 -0.11
v -9 -10 -0.11
v -10 -11 -0.11
v -11 -11 -0.11
v -11 -10 -0.11
v -10 -10 -0.11
v -11 -11 -0.11
v -12 -11 -0.11
v -12 -10 -0.11
v -11 -10 -0.11
v -3 -12 -0.12
v -4 -12 -0.12
v -4 -11 -0.12
v -3 -11 -0.12
v -4 -12 -0.12
v -5 -12 -0.12
v -5 -11 -0.12
v -4 -11 -0.12
v -5 -12 -0.12
v -6 -12 -0.12
v -6 -11 -0.12
v -5 -11 -0.12

# Texture cooridinates (Count = 79)
vt 0.4 0.76
vt 0.44 0.76
vt 0.44 0.8
vt 0.4 0.8
vt 0.36 0.56
vt 0.4 0.56
vt 0.4 0.6
vt 0.36 0.6
vt 0.16 0.92
vt 0.2 0.92
vt 0.2 0.96
vt 0.16 0.96
vt 0.24 0.92
vt 0.24 0.96
vt 0.36 0.88
vt 0.4 0.88
vt 0.4 0.92
vt 0.36 0.92
vt 0.04 0.88
vt 0.08 0.88
vt 0.08 0.92
vt 0.04 0.92
vt 0.36 0.52
vt 0.4 0.52
vt 0 0.6
vt 0.04 0.6
vt 0.04 0.64
vt 0 0.64
vt 0.08 0.6
vt 0.08 0.64
vt 0.36 0.68
vt 0.4 0.68
vt 0.4 0.72
vt 0.36 0.72
vt 0.44 0.68
vt 0.44 0.72
vt 0 0.68
vt 0.04 0.68
vt 0.04 0.72
vt 0 0.72
vt 0.04 0.56
vt 0.08 0.56
vt 0.24 0.52
vt 0.28 0.52
vt 0.28 0.56
vt 0.24 0.56
vt 0.4 0.64
vt 0.44 0.64
vt 0.28 0.92
vt 0.28 0.96
vt 0.04 0.52
vt 0.08 0.52
vt 0.24 0.48
vt 0.28 0.48
vt 0.44 0.6
vt 0.08 0.2
vt 0.12 0.2
vt 0.12 0.24
vt 0.08 0.24
vt 0.2 0.12
vt 0.24 0.12
vt 0.24 0.16
vt 0.2 0.16
vt 0.12 0.76
vt 0.16 0.76
vt 0.16 0.8
vt 0.12 0.8
vt 0.08 0.68
vt 0.08 0.72
vt 0.36 0.76
vt 0.36 0.8
vt 0.32 0.88
vt 0.32 0.92
vt 0.12 0.88
vt 0.12 0.92
vt 0.04 0.76
vt 0.08 0.76
vt 0.08 0.8
vt 0.04 0.8

# Normal
vn 0 0 -1

# Mesh description
g sunrise_mesh_0095

# Faces
f 1/1/1 2/2/1 3/3/1 4/4/1
f 5/5/1 6/6/1 7/7/1 8/8/1
f 9/9/1 10/10/1 11/11/1 12/12/1
f 13/10/1 14/13/1 15/14/1 16/11/1
f 17/15/1 18/16/1 19/17/1 20/18/1
f 21/19/1 22/20/1 23/21/1 24/22/1
f 25/15/1 26/16/1 27/17/1 28/18/1
f 29/23/1 30/24/1 31/6/1 32/5/1
f 33/25/1 34/26/1 35/27/1 36/28/1
f 37/26/1 38/29/1 39/30/1 40/27/1
f 41/31/1 42/32/1 43/33/1 44/34/1
f 45/32/1 46/35/1 47/36/1 48/33/1
f 49/37/1 50/38/1 51/39/1 52/40/1
f 53/32/1 54/35/1 55/36/1 56/33/1
f 57/41/1 58/42/1 59/29/1 60/26/1
f 61/43/1 62/44/1 63/45/1 64/46/1
f 65/47/1 66/48/1 67/35/1 68/32/1
f 69/28/1 70/27/1 71/38/1 72/37/1
f 73/47/1 74/48/1 75/35/1 76/32/1
f 77/13/1 78/49/1 79/50/1 80/14/1
f 81/51/1 82/52/1 83/42/1 84/41/1
f 85/53/1 86/54/1 87/44/1 88/43/1
f 89/43/1 90/44/1 91/45/1 92/46/1
f 93/7/1 94/55/1 95/48/1 96/47/1
f 97/56/1 98/57/1 99/58/1 100/59/1
f 101/53/1 102/54/1 103/44/1 104/43/1
f 105/60/1 106/61/1 107/62/1 108/63/1
f 109/64/1 110/65/1 111/66/1 112/67/1
f 113/64/1 114/65/1 115/66/1 116/67/1
f 117/64/1 118/65/1 119/66/1 120/67/1
f 121/64/1 122/65/1 123/66/1 124/67/1
f 125/64/1 126/65/1 127/66/1 128/67/1
f 129/64/1 130/65/1 131/66/1 132/67/1
f 133/64/1 134/65/1 135/66/1 136/67/1
f 137/64/1 138/65/1 139/66/1 140/67/1
f 141/31/1 142/32/1 143/33/1 144/34/1
f 145/32/1 146/35/1 147/36/1 148/33/1
f 149/37/1 150/38/1 151/39/1 152/40/1
f 153/38/1 154/68/1 155/69/1 156/39/1
f 157/70/1 158/1/1 159/4/1 160/71/1
f 161/72/1 162/15/1 163/18/1 164/73/1
f 165/13/1 166/49/1 167/50/1 168/14/1
f 169/9/1 170/10/1 171/11/1 172/12/1
f 173/20/1 174/74/1 175/75/1 176/21/1
f 177/76/1 178/77/1 179/78/1 180/79/1

