# Tiled2Unity generated file. Do not modify by hand.
# Wavefront file for 'sunrise_mesh_0118.obj'

# Vertices (Count = 36)
v -13 -11 -0.11
v -14 -11 -0.11
v -14 -10 -0.11
v -13 -10 -0.11
v -14 -11 -0.11
v -15 -11 -0.11
v -15 -10 -0.11
v -14 -10 -0.11
v -15 -11 -0.11
v -16 -11 -0.11
v -16 -10 -0.11
v -15 -10 -0.11
v -13 -12 -0.12
v -14 -12 -0.12
v -14 -11 -0.12
v -13 -11 -0.12
v -14 -12 -0.12
v -15 -12 -0.12
v -15 -11 -0.12
v -14 -11 -0.12
v -15 -12 -0.12
v -16 -12 -0.12
v -16 -11 -0.12
v -15 -11 -0.12
v -13 -13 -0.13
v -14 -13 -0.13
v -14 -12 -0.13
v -13 -12 -0.13
v -14 -13 -0.13
v -15 -13 -0.13
v -15 -12 -0.13
v -14 -12 -0.13
v -15 -13 -0.13
v -16 -13 -0.13
v -16 -12 -0.13
v -15 -12 -0.13

# Texture cooridinates (Count = 12)
vt 0 0.44
vt 0.04 0.44
vt 0.04 0.48
vt 0 0.48
vt 0.08 0.44
vt 0.08 0.48
vt 0 0.4
vt 0.04 0.4
vt 0.08 0.4
vt 0 0.36
vt 0.04 0.36
vt 0.08 0.36

# Normal
vn 0 0 -1

# Mesh description
g sunrise_mesh_0118

# Faces
f 1/1/1 2/2/1 3/3/1 4/4/1
f 5/2/1 6/5/1 7/6/1 8/3/1
f 9/1/1 10/2/1 11/3/1 12/4/1
f 13/7/1 14/8/1 15/2/1 16/1/1
f 17/8/1 18/9/1 19/5/1 20/2/1
f 21/7/1 22/8/1 23/2/1 24/1/1
f 25/10/1 26/11/1 27/8/1 28/7/1
f 29/11/1 30/12/1 31/9/1 32/8/1
f 33/10/1 34/11/1 35/8/1 36/7/1

