# Tiled2Unity generated file. Do not modify by hand.
# Wavefront file for 'sunrise_mesh_0100.obj'

# Vertices (Count = 8)
v -14 -16 -0.16
v -15 -16 -0.16
v -15 -15 -0.16
v -14 -15 -0.16
v -15 -16 -0.16
v -16 -16 -0.16
v -16 -15 -0.16
v -15 -15 -0.16

# Texture cooridinates (Count = 8)
vt 0.04 0.32
vt 0.08 0.32
vt 0.08 0.36
vt 0.04 0.36
vt 0.16 0.44
vt 0.2 0.44
vt 0.2 0.48
vt 0.16 0.48

# Normal
vn 0 0 -1

# Mesh description
g sunrise_mesh_0100

# Faces
f 1/1/1 2/2/1 3/3/1 4/4/1
f 5/5/1 6/6/1 7/7/1 8/8/1

