# Tiled2Unity generated file. Do not modify by hand.
# Wavefront file for 'sunrise_mesh_0159.obj'

# Vertices (Count = 224)
v -6 -1 -0.01
v -7 -1 -0.01
v -7 0 -0.01
v -6 0 -0.01
v -7 -1 -0.01
v -8 -1 -0.01
v -8 0 -0.01
v -7 0 -0.01
v -11 -1 -0.01
v -12 -1 -0.01
v -12 0 -0.01
v -11 0 -0.01
v -12 -1 -0.01
v -13 -1 -0.01
v -13 0 -0.01
v -12 0 -0.01
v -7 -2 -0.02
v -8 -2 -0.02
v -8 -1 -0.02
v -7 -1 -0.02
v -8 -2 -0.02
v -9 -2 -0.02
v -9 -1 -0.02
v -8 -1 -0.02
v -10 -2 -0.02
v -11 -2 -0.02
v -11 -1 -0.02
v -10 -1 -0.02
v -11 -2 -0.02
v -12 -2 -0.02
v -12 -1 -0.02
v -11 -1 -0.02
v -6 -3 -0.03
v -7 -3 -0.03
v -7 -2 -0.03
v -6 -2 -0.03
v -8 -3 -0.03
v -9 -3 -0.03
v -9 -2 -0.03
v -8 -2 -0.03
v -10 -3 -0.03
v -11 -3 -0.03
v -11 -2 -0.03
v -10 -2 -0.03
v -12 -3 -0.03
v -13 -3 -0.03
v -13 -2 -0.03
v -12 -2 -0.03
v -6 -4 -0.04
v -7 -4 -0.04
v -7 -3 -0.04
v -6 -3 -0.04
v -8 -4 -0.04
v -9 -4 -0.04
v -9 -3 -0.04
v -8 -3 -0.04
v -10 -4 -0.04
v -11 -4 -0.04
v -11 -3 -0.04
v -10 -3 -0.04
v -12 -4 -0.04
v -13 -4 -0.04
v -13 -3 -0.04
v -12 -3 -0.04
v -6 -5 -0.05
v -7 -5 -0.05
v -7 -4 -0.05
v -6 -4 -0.05
v -8 -5 -0.05
v -9 -5 -0.05
v -9 -4 -0.05
v -8 -4 -0.05
v -10 -5 -0.05
v -11 -5 -0.05
v -11 -4 -0.05
v -10 -4 -0.05
v -12 -5 -0.05
v -13 -5 -0.05
v -13 -4 -0.05
v -12 -4 -0.05
v -6 -6 -0.06
v -7 -6 -0.06
v -7 -5 -0.06
v -6 -5 -0.06
v -12 -6 -0.06
v -13 -6 -0.06
v -13 -5 -0.06
v -12 -5 -0.06
v -6 -7 -0.07
v -7 -7 -0.07
v -7 -6 -0.07
v -6 -6 -0.07
v -12 -7 -0.07
v -13 -7 -0.07
v -13 -6 -0.07
v -12 -6 -0.07
v -6 -8 -0.08
v -7 -8 -0.08
v -7 -7 -0.08
v -6 -7 -0.08
v -12 -8 -0.08
v -13 -8 -0.08
v -13 -7 -0.08
v -12 -7 -0.08
v -6 -9 -0.09
v -7 -9 -0.09
v -7 -8 -0.09
v -6 -8 -0.09
v -12 -9 -0.09
v -13 -9 -0.09
v -13 -8 -0.09
v -12 -8 -0.09
v -6 -10 -0.1
v -7 -10 -0.1
v -7 -9 -0.1
v -6 -9 -0.1
v -12 -10 -0.1
v -13 -10 -0.1
v -13 -9 -0.1
v -12 -9 -0.1
v -2 -11 -0.11
v -3 -11 -0.11
v -3 -10 -0.11
v -2 -10 -0.11
v -5 -11 -0.11
v -6 -11 -0.11
v -6 -10 -0.11
v -5 -10 -0.11
v -6 -11 -0.11
v -7 -11 -0.11
v -7 -10 -0.11
v -6 -10 -0.11
v -12 -11 -0.11
v -13 -11 -0.11
v -13 -10 -0.11
v -12 -10 -0.11
v -13 -11 -0.11
v -14 -11 -0.11
v -14 -10 -0.11
v -13 -10 -0.11
v -2 -12 -0.12
v -3 -12 -0.12
v -3 -11 -0.12
v -2 -11 -0.12
v -5 -12 -0.12
v -6 -12 -0.12
v -6 -11 -0.12
v -5 -11 -0.12
v -6 -12 -0.12
v -7 -12 -0.12
v -7 -11 -0.12
v -6 -11 -0.12
v -12 -12 -0.12
v -13 -12 -0.12
v -13 -11 -0.12
v -12 -11 -0.12
v -13 -12 -0.12
v -14 -12 -0.12
v -14 -11 -0.12
v -13 -11 -0.12
v -2 -13 -0.13
v -3 -13 -0.13
v -3 -12 -0.13
v -2 -12 -0.13
v -5 -13 -0.13
v -6 -13 -0.13
v -6 -12 -0.13
v -5 -12 -0.13
v -6 -13 -0.13
v -7 -13 -0.13
v -7 -12 -0.13
v -6 -12 -0.13
v -12 -13 -0.13
v -13 -13 -0.13
v -13 -12 -0.13
v -12 -12 -0.13
v -13 -13 -0.13
v -14 -13 -0.13
v -14 -12 -0.13
v -13 -12 -0.13
v -2 -14 -0.14
v -3 -14 -0.14
v -3 -13 -0.14
v -2 -13 -0.14
v -5 -14 -0.14
v -6 -14 -0.14
v -6 -13 -0.14
v -5 -13 -0.14
v -13 -14 -0.14
v -14 -14 -0.14
v -14 -13 -0.14
v -13 -13 -0.14
v -2 -15 -0.15
v -3 -15 -0.15
v -3 -14 -0.15
v -2 -14 -0.15
v -5 -15 -0.15
v -6 -15 -0.15
v -6 -14 -0.15
v -5 -14 -0.15
v -13 -15 -0.15
v -14 -15 -0.15
v -14 -14 -0.15
v -13 -14 -0.15
v -2 -16 -0.16
v -3 -16 -0.16
v -3 -15 -0.16
v -2 -15 -0.16
v -3 -16 -0.16
v -4 -16 -0.16
v -4 -15 -0.16
v -3 -15 -0.16
v -4 -16 -0.16
v -5 -16 -0.16
v -5 -15 -0.16
v -4 -15 -0.16
v -5 -16 -0.16
v -6 -16 -0.16
v -6 -15 -0.16
v -5 -15 -0.16
v -13 -16 -0.16
v -14 -16 -0.16
v -14 -15 -0.16
v -13 -15 -0.16

# Texture cooridinates (Count = 28)
vt 0.36 0.2
vt 0.4 0.2
vt 0.4 0.24
vt 0.36 0.24
vt 0.36 0.28
vt 0.4 0.28
vt 0.4 0.32
vt 0.36 0.32
vt 0.44 0.28
vt 0.48 0.28
vt 0.48 0.32
vt 0.44 0.32
vt 0.44 0.2
vt 0.48 0.2
vt 0.48 0.24
vt 0.44 0.24
vt 0.2 0.32
vt 0.24 0.32
vt 0.24 0.36
vt 0.2 0.36
vt 0.16 0.32
vt 0.16 0.36
vt 0.2 0.28
vt 0.24 0.28
vt 0.16 0.28
vt 0.2 0.24
vt 0.24 0.24
vt 0.16 0.24

# Normal
vn 0 0 -1

# Mesh description
g sunrise_mesh_0159

# Faces
f 1/1/1 2/2/1 3/3/1 4/4/1
f 5/5/1 6/6/1 7/7/1 8/8/1
f 9/9/1 10/10/1 11/11/1 12/12/1
f 13/13/1 14/14/1 15/15/1 16/16/1
f 17/1/1 18/2/1 19/3/1 20/4/1
f 21/5/1 22/6/1 23/7/1 24/8/1
f 25/9/1 26/10/1 27/11/1 28/12/1
f 29/13/1 30/14/1 31/15/1 32/16/1
f 33/4/1 34/3/1 35/6/1 36/5/1
f 37/17/1 38/18/1 39/19/1 40/20/1
f 41/21/1 42/17/1 43/20/1 44/22/1
f 45/16/1 46/15/1 47/10/1 48/9/1
f 49/4/1 50/3/1 51/6/1 52/5/1
f 53/23/1 54/24/1 55/18/1 56/17/1
f 57/25/1 58/23/1 59/17/1 60/21/1
f 61/16/1 62/15/1 63/10/1 64/9/1
f 65/4/1 66/3/1 67/6/1 68/5/1
f 69/26/1 70/27/1 71/24/1 72/23/1
f 73/28/1 74/26/1 75/23/1 76/25/1
f 77/16/1 78/15/1 79/10/1 80/9/1
f 81/4/1 82/3/1 83/6/1 84/5/1
f 85/16/1 86/15/1 87/10/1 88/9/1
f 89/4/1 90/3/1 91/6/1 92/5/1
f 93/16/1 94/15/1 95/10/1 96/9/1
f 97/4/1 98/3/1 99/6/1 100/5/1
f 101/16/1 102/15/1 103/10/1 104/9/1
f 105/4/1 106/3/1 107/6/1 108/5/1
f 109/16/1 110/15/1 111/10/1 112/9/1
f 113/4/1 114/3/1 115/6/1 116/5/1
f 117/16/1 118/15/1 119/10/1 120/9/1
f 121/16/1 122/15/1 123/10/1 124/9/1
f 125/4/1 126/3/1 127/6/1 128/5/1
f 129/17/1 130/18/1 131/19/1 132/20/1
f 133/21/1 134/17/1 135/20/1 136/22/1
f 137/16/1 138/15/1 139/10/1 140/9/1
f 141/16/1 142/15/1 143/10/1 144/9/1
f 145/4/1 146/3/1 147/6/1 148/5/1
f 149/23/1 150/24/1 151/18/1 152/17/1
f 153/25/1 154/23/1 155/17/1 156/21/1
f 157/16/1 158/15/1 159/10/1 160/9/1
f 161/21/1 162/17/1 163/20/1 164/22/1
f 165/17/1 166/18/1 167/19/1 168/20/1
f 169/26/1 170/27/1 171/24/1 172/23/1
f 173/28/1 174/26/1 175/23/1 176/25/1
f 177/16/1 178/15/1 179/10/1 180/9/1
f 181/25/1 182/23/1 183/17/1 184/21/1
f 185/23/1 186/24/1 187/18/1 188/17/1
f 189/16/1 190/15/1 191/10/1 192/9/1
f 193/28/1 194/26/1 195/23/1 196/25/1
f 197/26/1 198/27/1 199/24/1 200/23/1
f 201/16/1 202/15/1 203/10/1 204/9/1
f 205/9/1 206/10/1 207/11/1 208/12/1
f 209/2/1 210/13/1 211/16/1 212/3/1
f 213/2/1 214/13/1 215/16/1 216/3/1
f 217/5/1 218/6/1 219/7/1 220/8/1
f 221/16/1 222/15/1 223/10/1 224/9/1

