# Tiled2Unity generated file. Do not modify by hand.
# Wavefront file for 'sunrise_mesh_0017.obj'

# Vertices (Count = 16)
v -2 -1 -0.01
v -3 -1 -0.01
v -3 0 -0.01
v -2 0 -0.01
v -3 -1 -0.01
v -4 -1 -0.01
v -4 0 -0.01
v -3 0 -0.01
v -4 -1 -0.01
v -5 -1 -0.01
v -5 0 -0.01
v -4 0 -0.01
v -5 -1 -0.01
v -6 -1 -0.01
v -6 0 -0.01
v -5 0 -0.01

# Texture cooridinates (Count = 10)
vt 0.12 0.07999998
vt 0.16 0.07999998
vt 0.16 0.12
vt 0.12 0.12
vt 0.2 0.12
vt 0.2 0.16
vt 0.16 0.16
vt 0.16 0.04000002
vt 0.2 0.04000002
vt 0.2 0.07999998

# Normal
vn 0 0 -1

# Mesh description
g sunrise_mesh_0017

# Faces
f 1/1/1 2/2/1 3/3/1 4/4/1
f 5/3/1 6/5/1 7/6/1 8/7/1
f 9/8/1 10/9/1 11/10/1 12/2/1
f 13/8/1 14/9/1 15/10/1 16/2/1

