# Tiled2Unity generated file. Do not modify by hand.
# Wavefront file for 'sunrise_mesh_0106.obj'

# Vertices (Count = 12)
v -2 -16 -0.16
v -3 -16 -0.16
v -3 -15 -0.16
v -2 -15 -0.16
v -3 -16 -0.16
v -4 -16 -0.16
v -4 -15 -0.16
v -3 -15 -0.16
v -4 -16 -0.16
v -5 -16 -0.16
v -5 -15 -0.16
v -4 -15 -0.16

# Texture cooridinates (Count = 8)
vt 0.16 0.76
vt 0.2 0.76
vt 0.2 0.8
vt 0.16 0.8
vt 0.24 0.76
vt 0.24 0.8
vt 0.28 0.76
vt 0.28 0.8

# Normal
vn 0 0 -1

# Mesh description
g sunrise_mesh_0106

# Faces
f 1/1/1 2/2/1 3/3/1 4/4/1
f 5/2/1 6/5/1 7/6/1 8/3/1
f 9/5/1 10/7/1 11/8/1 12/6/1

