# Tiled2Unity generated file. Do not modify by hand.
# Wavefront file for 'sunrise_mesh_0120.obj'

# Vertices (Count = 48)
v -5 -3 -0.03
v -6 -3 -0.03
v -6 -2 -0.03
v -5 -2 -0.03
v -6 -3 -0.03
v -7 -3 -0.03
v -7 -2 -0.03
v -6 -2 -0.03
v -12 -3 -0.03
v -13 -3 -0.03
v -13 -2 -0.03
v -12 -2 -0.03
v -13 -3 -0.03
v -14 -3 -0.03
v -14 -2 -0.03
v -13 -2 -0.03
v -5 -4 -0.04
v -6 -4 -0.04
v -6 -3 -0.04
v -5 -3 -0.04
v -6 -4 -0.04
v -7 -4 -0.04
v -7 -3 -0.04
v -6 -3 -0.04
v -12 -4 -0.04
v -13 -4 -0.04
v -13 -3 -0.04
v -12 -3 -0.04
v -13 -4 -0.04
v -14 -4 -0.04
v -14 -3 -0.04
v -13 -3 -0.04
v -5 -5 -0.05
v -6 -5 -0.05
v -6 -4 -0.05
v -5 -4 -0.05
v -6 -5 -0.05
v -7 -5 -0.05
v -7 -4 -0.05
v -6 -4 -0.05
v -12 -5 -0.05
v -13 -5 -0.05
v -13 -4 -0.05
v -12 -4 -0.05
v -13 -5 -0.05
v -14 -5 -0.05
v -14 -4 -0.05
v -13 -4 -0.05

# Texture cooridinates (Count = 16)
vt 0.04 0.44
vt 0.08 0.44
vt 0.08 0.48
vt 0.04 0.48
vt 0.2 0.64
vt 0.24 0.64
vt 0.24 0.68
vt 0.2 0.68
vt 0 0.44
vt 0 0.48
vt 0.04 0.4
vt 0.08 0.4
vt 0 0.4
vt 0.04 0.36
vt 0.08 0.36
vt 0 0.36

# Normal
vn 0 0 -1

# Mesh description
g sunrise_mesh_0120

# Faces
f 1/1/1 2/2/1 3/3/1 4/4/1
f 5/5/1 6/6/1 7/7/1 8/8/1
f 9/5/1 10/6/1 11/7/1 12/8/1
f 13/9/1 14/1/1 15/4/1 16/10/1
f 17/11/1 18/12/1 19/2/1 20/1/1
f 21/5/1 22/6/1 23/7/1 24/8/1
f 25/5/1 26/6/1 27/7/1 28/8/1
f 29/13/1 30/11/1 31/1/1 32/9/1
f 33/14/1 34/15/1 35/12/1 36/11/1
f 37/5/1 38/6/1 39/7/1 40/8/1
f 41/5/1 42/6/1 43/7/1 44/8/1
f 45/16/1 46/14/1 47/11/1 48/13/1

