# Tiled2Unity generated file. Do not modify by hand.
# Wavefront file for 'sunrise_mesh_0006.obj'

# Vertices (Count = 140)
v -15 -5 -0.05
v -16 -5 -0.05
v -16 -4 -0.05
v -15 -4 -0.05
v -15 -6 -0.06
v -16 -6 -0.06
v -16 -5 -0.06
v -15 -5 -0.06
v -15 -7 -0.07
v -16 -7 -0.07
v -16 -6 -0.07
v -15 -6 -0.07
v -11 -8 -0.08
v -12 -8 -0.08
v -12 -7 -0.08
v -11 -7 -0.08
v -12 -8 -0.08
v -13 -8 -0.08
v -13 -7 -0.08
v -12 -7 -0.08
v -13 -8 -0.08
v -14 -8 -0.08
v -14 -7 -0.08
v -13 -7 -0.08
v -14 -8 -0.08
v -15 -8 -0.08
v -15 -7 -0.08
v -14 -7 -0.08
v -15 -8 -0.08
v -16 -8 -0.08
v -16 -7 -0.08
v -15 -7 -0.08
v -11 -9 -0.09
v -12 -9 -0.09
v -12 -8 -0.09
v -11 -8 -0.09
v -12 -9 -0.09
v -13 -9 -0.09
v -13 -8 -0.09
v -12 -8 -0.09
v -13 -9 -0.09
v -14 -9 -0.09
v -14 -8 -0.09
v -13 -8 -0.09
v -14 -9 -0.09
v -15 -9 -0.09
v -15 -8 -0.09
v -14 -8 -0.09
v -15 -9 -0.09
v -16 -9 -0.09
v -16 -8 -0.09
v -15 -8 -0.09
v -11 -10 -0.1
v -12 -10 -0.1
v -12 -9 -0.1
v -11 -9 -0.1
v -12 -10 -0.1
v -13 -10 -0.1
v -13 -9 -0.1
v -12 -9 -0.1
v -13 -10 -0.1
v -14 -10 -0.1
v -14 -9 -0.1
v -13 -9 -0.1
v -14 -10 -0.1
v -15 -10 -0.1
v -15 -9 -0.1
v -14 -9 -0.1
v -15 -10 -0.1
v -16 -10 -0.1
v -16 -9 -0.1
v -15 -9 -0.1
v -12 -11 -0.11
v -13 -11 -0.11
v -13 -10 -0.11
v -12 -10 -0.11
v -13 -11 -0.11
v -14 -11 -0.11
v -14 -10 -0.11
v -13 -10 -0.11
v -14 -11 -0.11
v -15 -11 -0.11
v -15 -10 -0.11
v -14 -10 -0.11
v -15 -11 -0.11
v -16 -11 -0.11
v -16 -10 -0.11
v -15 -10 -0.11
v -13 -12 -0.12
v -14 -12 -0.12
v -14 -11 -0.12
v -13 -11 -0.12
v -14 -12 -0.12
v -15 -12 -0.12
v -15 -11 -0.12
v -14 -11 -0.12
v -15 -12 -0.12
v -16 -12 -0.12
v -16 -11 -0.12
v -15 -11 -0.12
v -13 -13 -0.13
v -14 -13 -0.13
v -14 -12 -0.13
v -13 -12 -0.13
v -14 -13 -0.13
v -15 -13 -0.13
v -15 -12 -0.13
v -14 -12 -0.13
v -15 -13 -0.13
v -16 -13 -0.13
v -16 -12 -0.13
v -15 -12 -0.13
v -13 -14 -0.14
v -14 -14 -0.14
v -14 -13 -0.14
v -13 -13 -0.14
v -14 -14 -0.14
v -15 -14 -0.14
v -15 -13 -0.14
v -14 -13 -0.14
v -15 -14 -0.14
v -16 -14 -0.14
v -16 -13 -0.14
v -15 -13 -0.14
v -14 -15 -0.15
v -15 -15 -0.15
v -15 -14 -0.15
v -14 -14 -0.15
v -15 -15 -0.15
v -16 -15 -0.15
v -16 -14 -0.15
v -15 -14 -0.15
v -14 -16 -0.16
v -15 -16 -0.16
v -15 -15 -0.16
v -14 -15 -0.16
v -15 -16 -0.16
v -16 -16 -0.16
v -16 -15 -0.16
v -15 -15 -0.16

# Texture cooridinates (Count = 48)
vt 0.2 0.16
vt 0.24 0.16
vt 0.24 0.2
vt 0.2 0.2
vt 0.2 0.07999998
vt 0.24 0.07999998
vt 0.24 0.12
vt 0.2 0.12
vt 0.12 0.12
vt 0.16 0.12
vt 0.16 0.16
vt 0.12 0.16
vt 0.16 0.2
vt 0.16 0.04000002
vt 0.2 0.04000002
vt 0.16 0.07999998
vt 0.12 0.2
vt 0.16 0
vt 0.2 0
vt 0.12 0
vt 0.12 0.04000002
vt 0.24 0
vt 0.24 0.04000002
vt 0.24 0.24
vt 0.2 0.24
vt 0.4 0.07999998
vt 0.44 0.07999998
vt 0.44 0.12
vt 0.4 0.12
vt 0.48 0.07999998
vt 0.48 0.12
vt 0.4 0.04000002
vt 0.44 0.04000002
vt 0.4 0.16
vt 0.44 0.16
vt 0.44 0.2
vt 0.4 0.2
vt 0.44 0
vt 0.48 0
vt 0.48 0.04000002
vt 0.28 0.07999998
vt 0.32 0.07999998
vt 0.32 0.12
vt 0.28 0.12
vt 0.28 0.04000002
vt 0.32 0.04000002
vt 0.28 0.16
vt 0.28 0.2

# Normal
vn 0 0 -1

# Mesh description
g sunrise_mesh_0006

# Faces
f 1/1/1 2/2/1 3/3/1 4/4/1
f 5/5/1 6/6/1 7/7/1 8/8/1
f 9/9/1 10/10/1 11/11/1 12/12/1
f 13/1/1 14/2/1 15/3/1 16/4/1
f 17/11/1 18/1/1 19/4/1 20/13/1
f 21/14/1 22/15/1 23/5/1 24/16/1
f 25/12/1 26/11/1 27/13/1 28/17/1
f 29/18/1 30/19/1 31/15/1 32/14/1
f 33/1/1 34/2/1 35/3/1 36/4/1
f 37/20/1 38/18/1 39/14/1 40/21/1
f 41/18/1 42/19/1 43/15/1 44/14/1
f 45/19/1 46/22/1 47/23/1 48/15/1
f 49/1/1 50/2/1 51/3/1 52/4/1
f 53/1/1 54/2/1 55/3/1 56/4/1
f 57/1/1 58/2/1 59/3/1 60/4/1
f 61/1/1 62/2/1 63/3/1 64/4/1
f 65/1/1 66/2/1 67/3/1 68/4/1
f 69/1/1 70/2/1 71/3/1 72/4/1
f 73/1/1 74/2/1 75/3/1 76/4/1
f 77/1/1 78/2/1 79/3/1 80/4/1
f 81/1/1 82/2/1 83/3/1 84/4/1
f 85/4/1 86/3/1 87/24/1 88/25/1
f 89/1/1 90/2/1 91/3/1 92/4/1
f 93/26/1 94/27/1 95/28/1 96/29/1
f 97/27/1 98/30/1 99/31/1 100/28/1
f 101/32/1 102/33/1 103/27/1 104/26/1
f 105/34/1 106/35/1 107/36/1 108/37/1
f 109/38/1 110/39/1 111/40/1 112/33/1
f 113/32/1 114/33/1 115/27/1 116/26/1
f 117/29/1 118/28/1 119/35/1 120/34/1
f 121/26/1 122/27/1 123/28/1 124/29/1
f 125/41/1 126/42/1 127/43/1 128/44/1
f 129/41/1 130/42/1 131/43/1 132/44/1
f 133/45/1 134/46/1 135/42/1 136/41/1
f 137/2/1 138/47/1 139/48/1 140/3/1

