# Tiled2Unity generated file. Do not modify by hand.
# Wavefront file for 'sunrise_mesh_0031.obj'

# Vertices (Count = 40)
v 0 -11 -0.11
v -1 -11 -0.11
v -1 -10 -0.11
v 0 -10 -0.11
v 0 -12 -0.12
v -1 -12 -0.12
v -1 -11 -0.12
v 0 -11 -0.12
v -1 -12 -0.12
v -2 -12 -0.12
v -2 -11 -0.12
v -1 -11 -0.12
v -2 -12 -0.12
v -3 -12 -0.12
v -3 -11 -0.12
v -2 -11 -0.12
v -3 -12 -0.12
v -4 -12 -0.12
v -4 -11 -0.12
v -3 -11 -0.12
v 0 -13 -0.13
v -1 -13 -0.13
v -1 -12 -0.13
v 0 -12 -0.13
v -1 -13 -0.13
v -2 -13 -0.13
v -2 -12 -0.13
v -1 -12 -0.13
v 0 -14 -0.14
v -1 -14 -0.14
v -1 -13 -0.14
v 0 -13 -0.14
v 0 -15 -0.15
v -1 -15 -0.15
v -1 -14 -0.15
v 0 -14 -0.15
v 0 -16 -0.16
v -1 -16 -0.16
v -1 -15 -0.16
v 0 -15 -0.16

# Texture cooridinates (Count = 14)
vt 0.125 0.1538461
vt 0.25 0.1538461
vt 0.25 0.2307692
vt 0.125 0.2307692
vt 0.125 0.8461539
vt 0.25 0.8461539
vt 0.25 0.9230769
vt 0.125 0.9230769
vt 0.125 0.3846154
vt 0.25 0.3846154
vt 0.25 0.4615384
vt 0.125 0.4615384
vt 0.125 0.3076923
vt 0.25 0.3076923

# Normal
vn 0 0 -1

# Mesh description
g sunrise_mesh_0031

# Faces
f 1/1/1 2/2/1 3/3/1 4/4/1
f 5/5/1 6/6/1 7/7/1 8/8/1
f 9/9/1 10/10/1 11/11/1 12/12/1
f 13/9/1 14/10/1 15/11/1 16/12/1
f 17/1/1 18/2/1 19/3/1 20/4/1
f 21/13/1 22/14/1 23/10/1 24/9/1
f 25/13/1 26/14/1 27/10/1 28/9/1
f 29/13/1 30/14/1 31/10/1 32/9/1
f 33/13/1 34/14/1 35/10/1 36/9/1
f 37/13/1 38/14/1 39/10/1 40/9/1

