# Tiled2Unity generated file. Do not modify by hand.
# Wavefront file for 'sunrise_mesh_0087.obj'

# Vertices (Count = 88)
v -8 -12 -0.12
v -9 -12 -0.12
v -9 -11 -0.12
v -8 -11 -0.12
v -9 -12 -0.12
v -10 -12 -0.12
v -10 -11 -0.12
v -9 -11 -0.12
v -10 -12 -0.12
v -11 -12 -0.12
v -11 -11 -0.12
v -10 -11 -0.12
v -11 -12 -0.12
v -12 -12 -0.12
v -12 -11 -0.12
v -11 -11 -0.12
v -12 -12 -0.12
v -13 -12 -0.12
v -13 -11 -0.12
v -12 -11 -0.12
v -8 -13 -0.13
v -9 -13 -0.13
v -9 -12 -0.13
v -8 -12 -0.13
v -9 -13 -0.13
v -10 -13 -0.13
v -10 -12 -0.13
v -9 -12 -0.13
v -10 -13 -0.13
v -11 -13 -0.13
v -11 -12 -0.13
v -10 -12 -0.13
v -11 -13 -0.13
v -12 -13 -0.13
v -12 -12 -0.13
v -11 -12 -0.13
v -12 -13 -0.13
v -13 -13 -0.13
v -13 -12 -0.13
v -12 -12 -0.13
v -8 -14 -0.14
v -9 -14 -0.14
v -9 -13 -0.14
v -8 -13 -0.14
v -9 -14 -0.14
v -10 -14 -0.14
v -10 -13 -0.14
v -9 -13 -0.14
v -10 -14 -0.14
v -11 -14 -0.14
v -11 -13 -0.14
v -10 -13 -0.14
v -11 -14 -0.14
v -12 -14 -0.14
v -12 -13 -0.14
v -11 -13 -0.14
v -12 -14 -0.14
v -13 -14 -0.14
v -13 -13 -0.14
v -12 -13 -0.14
v -9 -15 -0.15
v -10 -15 -0.15
v -10 -14 -0.15
v -9 -14 -0.15
v -10 -15 -0.15
v -11 -15 -0.15
v -11 -14 -0.15
v -10 -14 -0.15
v -14 -15 -0.15
v -15 -15 -0.15
v -15 -14 -0.15
v -14 -14 -0.15
v -15 -15 -0.15
v -16 -15 -0.15
v -16 -14 -0.15
v -15 -14 -0.15
v -13 -16 -0.16
v -14 -16 -0.16
v -14 -15 -0.16
v -13 -15 -0.16
v -14 -16 -0.16
v -15 -16 -0.16
v -15 -15 -0.16
v -14 -15 -0.16
v -15 -16 -0.16
v -16 -16 -0.16
v -16 -15 -0.16
v -15 -15 -0.16

# Texture cooridinates (Count = 52)
vt 0 0.76
vt 0.04 0.76
vt 0.04 0.8
vt 0 0.8
vt 0.28 0.88
vt 0.32 0.88
vt 0.32 0.92
vt 0.28 0.92
vt 0.36 0.88
vt 0.36 0.92
vt 0.2 0.92
vt 0.24 0.92
vt 0.24 0.96
vt 0.2 0.96
vt 0.28 0.96
vt 0 0.68
vt 0.04 0.68
vt 0.04 0.72
vt 0 0.72
vt 0.08 0.68
vt 0.08 0.72
vt 0.24 0.56
vt 0.28 0.56
vt 0.28 0.6
vt 0.24 0.6
vt 0.32 0.56
vt 0.36 0.56
vt 0.36 0.6
vt 0.32 0.6
vt 0.24 0.52
vt 0.28 0.52
vt 0 0.64
vt 0.04 0.64
vt 0.16 0.52
vt 0.2 0.52
vt 0.2 0.56
vt 0.16 0.56
vt 0.32 0.52
vt 0.36 0.52
vt 0.24 0.48
vt 0.28 0.48
vt 0.16 0.48
vt 0.2 0.48
vt 0.2 0.72
vt 0.24 0.72
vt 0.24 0.76
vt 0.2 0.76
vt 0.16 0.68
vt 0.2 0.68
vt 0.16 0.72
vt 0.16 0.92
vt 0.16 0.96

# Normal
vn 0 0 -1

# Mesh description
g sunrise_mesh_0087

# Faces
f 1/1/1 2/2/1 3/3/1 4/4/1
f 5/5/1 6/6/1 7/7/1 8/8/1
f 9/6/1 10/9/1 11/10/1 12/7/1
f 13/11/1 14/12/1 15/13/1 16/14/1
f 17/12/1 18/8/1 19/15/1 20/13/1
f 21/16/1 22/17/1 23/18/1 24/19/1
f 25/17/1 26/20/1 27/21/1 28/18/1
f 29/22/1 30/23/1 31/24/1 32/25/1
f 33/26/1 34/27/1 35/28/1 36/29/1
f 37/30/1 38/31/1 39/23/1 40/22/1
f 41/32/1 42/33/1 43/17/1 44/16/1
f 45/34/1 46/35/1 47/36/1 48/37/1
f 49/30/1 50/31/1 51/23/1 52/22/1
f 53/38/1 54/39/1 55/27/1 56/26/1
f 57/40/1 58/41/1 59/31/1 60/30/1
f 61/42/1 62/43/1 63/35/1 64/34/1
f 65/40/1 66/41/1 67/31/1 68/30/1
f 69/44/1 70/45/1 71/46/1 72/47/1
f 73/44/1 74/45/1 75/46/1 76/47/1
f 77/44/1 78/45/1 79/46/1 80/47/1
f 81/48/1 82/49/1 83/44/1 84/50/1
f 85/51/1 86/11/1 87/14/1 88/52/1

