# Tiled2Unity generated file. Do not modify by hand.
# Wavefront file for 'sunrise_mesh_0010.obj'

# Vertices (Count = 144)
v 0 -6 -0.06
v -1 -6 -0.06
v -1 -5 -0.06
v 0 -5 -0.06
v -1 -6 -0.06
v -2 -6 -0.06
v -2 -5 -0.06
v -1 -5 -0.06
v -2 -6 -0.06
v -3 -6 -0.06
v -3 -5 -0.06
v -2 -5 -0.06
v 0 -7 -0.07
v -1 -7 -0.07
v -1 -6 -0.07
v 0 -6 -0.07
v -1 -7 -0.07
v -2 -7 -0.07
v -2 -6 -0.07
v -1 -6 -0.07
v -2 -7 -0.07
v -3 -7 -0.07
v -3 -6 -0.07
v -2 -6 -0.07
v -3 -7 -0.07
v -4 -7 -0.07
v -4 -6 -0.07
v -3 -6 -0.07
v 0 -8 -0.08
v -1 -8 -0.08
v -1 -7 -0.08
v 0 -7 -0.08
v -1 -8 -0.08
v -2 -8 -0.08
v -2 -7 -0.08
v -1 -7 -0.08
v -2 -8 -0.08
v -3 -8 -0.08
v -3 -7 -0.08
v -2 -7 -0.08
v -3 -8 -0.08
v -4 -8 -0.08
v -4 -7 -0.08
v -3 -7 -0.08
v 0 -9 -0.09
v -1 -9 -0.09
v -1 -8 -0.09
v 0 -8 -0.09
v -1 -9 -0.09
v -2 -9 -0.09
v -2 -8 -0.09
v -1 -8 -0.09
v -2 -9 -0.09
v -3 -9 -0.09
v -3 -8 -0.09
v -2 -8 -0.09
v -3 -9 -0.09
v -4 -9 -0.09
v -4 -8 -0.09
v -3 -8 -0.09
v 0 -10 -0.1
v -1 -10 -0.1
v -1 -9 -0.1
v 0 -9 -0.1
v -1 -10 -0.1
v -2 -10 -0.1
v -2 -9 -0.1
v -1 -9 -0.1
v 0 -11 -0.11
v -1 -11 -0.11
v -1 -10 -0.11
v 0 -10 -0.11
v -1 -11 -0.11
v -2 -11 -0.11
v -2 -10 -0.11
v -1 -10 -0.11
v 0 -12 -0.12
v -1 -12 -0.12
v -1 -11 -0.12
v 0 -11 -0.12
v -1 -12 -0.12
v -2 -12 -0.12
v -2 -11 -0.12
v -1 -11 -0.12
v 0 -13 -0.13
v -1 -13 -0.13
v -1 -12 -0.13
v 0 -12 -0.13
v -1 -13 -0.13
v -2 -13 -0.13
v -2 -12 -0.13
v -1 -12 -0.13
v 0 -14 -0.14
v -1 -14 -0.14
v -1 -13 -0.14
v 0 -13 -0.14
v -1 -14 -0.14
v -2 -14 -0.14
v -2 -13 -0.14
v -1 -13 -0.14
v 0 -15 -0.15
v -1 -15 -0.15
v -1 -14 -0.15
v 0 -14 -0.15
v -1 -15 -0.15
v -2 -15 -0.15
v -2 -14 -0.15
v -1 -14 -0.15
v 0 -16 -0.16
v -1 -16 -0.16
v -1 -15 -0.16
v 0 -15 -0.16
v -6 -16 -0.16
v -7 -16 -0.16
v -7 -15 -0.16
v -6 -15 -0.16
v -7 -16 -0.16
v -8 -16 -0.16
v -8 -15 -0.16
v -7 -15 -0.16
v -8 -16 -0.16
v -9 -16 -0.16
v -9 -15 -0.16
v -8 -15 -0.16
v -9 -16 -0.16
v -10 -16 -0.16
v -10 -15 -0.16
v -9 -15 -0.16
v -10 -16 -0.16
v -11 -16 -0.16
v -11 -15 -0.16
v -10 -15 -0.16
v -11 -16 -0.16
v -12 -16 -0.16
v -12 -15 -0.16
v -11 -15 -0.16
v -12 -16 -0.16
v -13 -16 -0.16
v -13 -15 -0.16
v -12 -15 -0.16
v -13 -16 -0.16
v -14 -16 -0.16
v -14 -15 -0.16
v -13 -15 -0.16

# Texture cooridinates (Count = 27)
vt 0.04 0.04000002
vt 0.08 0.04000002
vt 0.08 0.07999998
vt 0.04 0.07999998
vt 0.12 0.04000002
vt 0.12 0.07999998
vt 0.2 0.16
vt 0.24 0.16
vt 0.24 0.2
vt 0.2 0.2
vt 0 0.16
vt 0.04 0.16
vt 0.04 0.2
vt 0 0.2
vt 0.08 0
vt 0.12 0
vt 0 0.07999998
vt 0.04 0.12
vt 0 0.12
vt 0.08 0.12
vt 0.12 0.12
vt 0 0
vt 0.04 0
vt 0 0.04000002
vt 0.12 0.16
vt 0.08 0.16
vt 0.08 0.2

# Normal
vn 0 0 -1

# Mesh description
g sunrise_mesh_0010

# Faces
f 1/1/1 2/2/1 3/3/1 4/4/1
f 5/2/1 6/5/1 7/6/1 8/3/1
f 9/7/1 10/8/1 11/9/1 12/10/1
f 13/11/1 14/12/1 15/13/1 16/14/1
f 17/15/1 18/16/1 19/5/1 20/2/1
f 21/7/1 22/8/1 23/9/1 24/10/1
f 25/7/1 26/8/1 27/9/1 28/10/1
f 29/15/1 30/16/1 31/5/1 32/2/1
f 33/17/1 34/4/1 35/18/1 36/19/1
f 37/4/1 38/3/1 39/20/1 40/18/1
f 41/3/1 42/6/1 43/21/1 44/20/1
f 45/7/1 46/8/1 47/9/1 48/10/1
f 49/22/1 50/23/1 51/1/1 52/24/1
f 53/20/1 54/21/1 55/25/1 56/26/1
f 57/15/1 58/16/1 59/5/1 60/2/1
f 61/3/1 62/6/1 63/21/1 64/20/1
f 65/7/1 66/8/1 67/9/1 68/10/1
f 69/19/1 70/18/1 71/12/1 72/11/1
f 73/3/1 74/6/1 75/21/1 76/20/1
f 77/12/1 78/26/1 79/27/1 80/13/1
f 81/1/1 82/2/1 83/3/1 84/4/1
f 85/24/1 86/1/1 87/4/1 88/17/1
f 89/1/1 90/2/1 91/3/1 92/4/1
f 93/18/1 94/20/1 95/26/1 96/12/1
f 97/1/1 98/2/1 99/3/1 100/4/1
f 101/1/1 102/2/1 103/3/1 104/4/1
f 105/1/1 106/2/1 107/3/1 108/4/1
f 109/12/1 110/26/1 111/27/1 112/13/1
f 113/22/1 114/23/1 115/1/1 116/24/1
f 117/12/1 118/26/1 119/27/1 120/13/1
f 121/2/1 122/5/1 123/6/1 124/3/1
f 125/17/1 126/4/1 127/18/1 128/19/1
f 129/4/1 130/3/1 131/20/1 132/18/1
f 133/3/1 134/6/1 135/21/1 136/20/1
f 137/7/1 138/8/1 139/9/1 140/10/1
f 141/7/1 142/8/1 143/9/1 144/10/1

