# Tiled2Unity generated file. Do not modify by hand.
# Wavefront file for 'sunrise_mesh_0013.obj'

# Vertices (Count = 692)
v 0 -1 -0.01
v -1 -1 -0.01
v -1 0 -0.01
v 0 0 -0.01
v -1 -1 -0.01
v -2 -1 -0.01
v -2 0 -0.01
v -1 0 -0.01
v -2 -1 -0.01
v -3 -1 -0.01
v -3 0 -0.01
v -2 0 -0.01
v -3 -1 -0.01
v -4 -1 -0.01
v -4 0 -0.01
v -3 0 -0.01
v -4 -1 -0.01
v -5 -1 -0.01
v -5 0 -0.01
v -4 0 -0.01
v -5 -1 -0.01
v -6 -1 -0.01
v -6 0 -0.01
v -5 0 -0.01
v -6 -1 -0.01
v -7 -1 -0.01
v -7 0 -0.01
v -6 0 -0.01
v -7 -1 -0.01
v -8 -1 -0.01
v -8 0 -0.01
v -7 0 -0.01
v -8 -1 -0.01
v -9 -1 -0.01
v -9 0 -0.01
v -8 0 -0.01
v -9 -1 -0.01
v -10 -1 -0.01
v -10 0 -0.01
v -9 0 -0.01
v -10 -1 -0.01
v -11 -1 -0.01
v -11 0 -0.01
v -10 0 -0.01
v -11 -1 -0.01
v -12 -1 -0.01
v -12 0 -0.01
v -11 0 -0.01
v -12 -1 -0.01
v -13 -1 -0.01
v -13 0 -0.01
v -12 0 -0.01
v -13 -1 -0.01
v -14 -1 -0.01
v -14 0 -0.01
v -13 0 -0.01
v 0 -2 -0.02
v -1 -2 -0.02
v -1 -1 -0.02
v 0 -1 -0.02
v -1 -2 -0.02
v -2 -2 -0.02
v -2 -1 -0.02
v -1 -1 -0.02
v -2 -2 -0.02
v -3 -2 -0.02
v -3 -1 -0.02
v -2 -1 -0.02
v -3 -2 -0.02
v -4 -2 -0.02
v -4 -1 -0.02
v -3 -1 -0.02
v -4 -2 -0.02
v -5 -2 -0.02
v -5 -1 -0.02
v -4 -1 -0.02
v -5 -2 -0.02
v -6 -2 -0.02
v -6 -1 -0.02
v -5 -1 -0.02
v -6 -2 -0.02
v -7 -2 -0.02
v -7 -1 -0.02
v -6 -1 -0.02
v -7 -2 -0.02
v -8 -2 -0.02
v -8 -1 -0.02
v -7 -1 -0.02
v -8 -2 -0.02
v -9 -2 -0.02
v -9 -1 -0.02
v -8 -1 -0.02
v -9 -2 -0.02
v -10 -2 -0.02
v -10 -1 -0.02
v -9 -1 -0.02
v -10 -2 -0.02
v -11 -2 -0.02
v -11 -1 -0.02
v -10 -1 -0.02
v -11 -2 -0.02
v -12 -2 -0.02
v -12 -1 -0.02
v -11 -1 -0.02
v -12 -2 -0.02
v -13 -2 -0.02
v -13 -1 -0.02
v -12 -1 -0.02
v -13 -2 -0.02
v -14 -2 -0.02
v -14 -1 -0.02
v -13 -1 -0.02
v 0 -3 -0.03
v -1 -3 -0.03
v -1 -2 -0.03
v 0 -2 -0.03
v -1 -3 -0.03
v -2 -3 -0.03
v -2 -2 -0.03
v -1 -2 -0.03
v -2 -3 -0.03
v -3 -3 -0.03
v -3 -2 -0.03
v -2 -2 -0.03
v -3 -3 -0.03
v -4 -3 -0.03
v -4 -2 -0.03
v -3 -2 -0.03
v -4 -3 -0.03
v -5 -3 -0.03
v -5 -2 -0.03
v -4 -2 -0.03
v -5 -3 -0.03
v -6 -3 -0.03
v -6 -2 -0.03
v -5 -2 -0.03
v -6 -3 -0.03
v -7 -3 -0.03
v -7 -2 -0.03
v -6 -2 -0.03
v -7 -3 -0.03
v -8 -3 -0.03
v -8 -2 -0.03
v -7 -2 -0.03
v -8 -3 -0.03
v -9 -3 -0.03
v -9 -2 -0.03
v -8 -2 -0.03
v -9 -3 -0.03
v -10 -3 -0.03
v -10 -2 -0.03
v -9 -2 -0.03
v -10 -3 -0.03
v -11 -3 -0.03
v -11 -2 -0.03
v -10 -2 -0.03
v -11 -3 -0.03
v -12 -3 -0.03
v -12 -2 -0.03
v -11 -2 -0.03
v -12 -3 -0.03
v -13 -3 -0.03
v -13 -2 -0.03
v -12 -2 -0.03
v -13 -3 -0.03
v -14 -3 -0.03
v -14 -2 -0.03
v -13 -2 -0.03
v 0 -4 -0.04
v -1 -4 -0.04
v -1 -3 -0.04
v 0 -3 -0.04
v -1 -4 -0.04
v -2 -4 -0.04
v -2 -3 -0.04
v -1 -3 -0.04
v -2 -4 -0.04
v -3 -4 -0.04
v -3 -3 -0.04
v -2 -3 -0.04
v -3 -4 -0.04
v -4 -4 -0.04
v -4 -3 -0.04
v -3 -3 -0.04
v -4 -4 -0.04
v -5 -4 -0.04
v -5 -3 -0.04
v -4 -3 -0.04
v -5 -4 -0.04
v -6 -4 -0.04
v -6 -3 -0.04
v -5 -3 -0.04
v -6 -4 -0.04
v -7 -4 -0.04
v -7 -3 -0.04
v -6 -3 -0.04
v -7 -4 -0.04
v -8 -4 -0.04
v -8 -3 -0.04
v -7 -3 -0.04
v -8 -4 -0.04
v -9 -4 -0.04
v -9 -3 -0.04
v -8 -3 -0.04
v -9 -4 -0.04
v -10 -4 -0.04
v -10 -3 -0.04
v -9 -3 -0.04
v -10 -4 -0.04
v -11 -4 -0.04
v -11 -3 -0.04
v -10 -3 -0.04
v -11 -4 -0.04
v -12 -4 -0.04
v -12 -3 -0.04
v -11 -3 -0.04
v -12 -4 -0.04
v -13 -4 -0.04
v -13 -3 -0.04
v -12 -3 -0.04
v -13 -4 -0.04
v -14 -4 -0.04
v -14 -3 -0.04
v -13 -3 -0.04
v -14 -4 -0.04
v -15 -4 -0.04
v -15 -3 -0.04
v -14 -3 -0.04
v -15 -4 -0.04
v -16 -4 -0.04
v -16 -3 -0.04
v -15 -3 -0.04
v 0 -5 -0.05
v -1 -5 -0.05
v -1 -4 -0.05
v 0 -4 -0.05
v -1 -5 -0.05
v -2 -5 -0.05
v -2 -4 -0.05
v -1 -4 -0.05
v -2 -5 -0.05
v -3 -5 -0.05
v -3 -4 -0.05
v -2 -4 -0.05
v -3 -5 -0.05
v -4 -5 -0.05
v -4 -4 -0.05
v -3 -4 -0.05
v -4 -5 -0.05
v -5 -5 -0.05
v -5 -4 -0.05
v -4 -4 -0.05
v -5 -5 -0.05
v -6 -5 -0.05
v -6 -4 -0.05
v -5 -4 -0.05
v -6 -5 -0.05
v -7 -5 -0.05
v -7 -4 -0.05
v -6 -4 -0.05
v -7 -5 -0.05
v -8 -5 -0.05
v -8 -4 -0.05
v -7 -4 -0.05
v -8 -5 -0.05
v -9 -5 -0.05
v -9 -4 -0.05
v -8 -4 -0.05
v -9 -5 -0.05
v -10 -5 -0.05
v -10 -4 -0.05
v -9 -4 -0.05
v -10 -5 -0.05
v -11 -5 -0.05
v -11 -4 -0.05
v -10 -4 -0.05
v -11 -5 -0.05
v -12 -5 -0.05
v -12 -4 -0.05
v -11 -4 -0.05
v -12 -5 -0.05
v -13 -5 -0.05
v -13 -4 -0.05
v -12 -4 -0.05
v -13 -5 -0.05
v -14 -5 -0.05
v -14 -4 -0.05
v -13 -4 -0.05
v -14 -5 -0.05
v -15 -5 -0.05
v -15 -4 -0.05
v -14 -4 -0.05
v -15 -5 -0.05
v -16 -5 -0.05
v -16 -4 -0.05
v -15 -4 -0.05
v 0 -6 -0.06
v -1 -6 -0.06
v -1 -5 -0.06
v 0 -5 -0.06
v -1 -6 -0.06
v -2 -6 -0.06
v -2 -5 -0.06
v -1 -5 -0.06
v -2 -6 -0.06
v -3 -6 -0.06
v -3 -5 -0.06
v -2 -5 -0.06
v -3 -6 -0.06
v -4 -6 -0.06
v -4 -5 -0.06
v -3 -5 -0.06
v -4 -6 -0.06
v -5 -6 -0.06
v -5 -5 -0.06
v -4 -5 -0.06
v -5 -6 -0.06
v -6 -6 -0.06
v -6 -5 -0.06
v -5 -5 -0.06
v -6 -6 -0.06
v -7 -6 -0.06
v -7 -5 -0.06
v -6 -5 -0.06
v -7 -6 -0.06
v -8 -6 -0.06
v -8 -5 -0.06
v -7 -5 -0.06
v -8 -6 -0.06
v -9 -6 -0.06
v -9 -5 -0.06
v -8 -5 -0.06
v -9 -6 -0.06
v -10 -6 -0.06
v -10 -5 -0.06
v -9 -5 -0.06
v -10 -6 -0.06
v -11 -6 -0.06
v -11 -5 -0.06
v -10 -5 -0.06
v -11 -6 -0.06
v -12 -6 -0.06
v -12 -5 -0.06
v -11 -5 -0.06
v -12 -6 -0.06
v -13 -6 -0.06
v -13 -5 -0.06
v -12 -5 -0.06
v -13 -6 -0.06
v -14 -6 -0.06
v -14 -5 -0.06
v -13 -5 -0.06
v -14 -6 -0.06
v -15 -6 -0.06
v -15 -5 -0.06
v -14 -5 -0.06
v -15 -6 -0.06
v -16 -6 -0.06
v -16 -5 -0.06
v -15 -5 -0.06
v 0 -7 -0.07
v -1 -7 -0.07
v -1 -6 -0.07
v 0 -6 -0.07
v -1 -7 -0.07
v -2 -7 -0.07
v -2 -6 -0.07
v -1 -6 -0.07
v -2 -7 -0.07
v -3 -7 -0.07
v -3 -6 -0.07
v -2 -6 -0.07
v -3 -7 -0.07
v -4 -7 -0.07
v -4 -6 -0.07
v -3 -6 -0.07
v -4 -7 -0.07
v -5 -7 -0.07
v -5 -6 -0.07
v -4 -6 -0.07
v -5 -7 -0.07
v -6 -7 -0.07
v -6 -6 -0.07
v -5 -6 -0.07
v -6 -7 -0.07
v -7 -7 -0.07
v -7 -6 -0.07
v -6 -6 -0.07
v -7 -7 -0.07
v -8 -7 -0.07
v -8 -6 -0.07
v -7 -6 -0.07
v -8 -7 -0.07
v -9 -7 -0.07
v -9 -6 -0.07
v -8 -6 -0.07
v -9 -7 -0.07
v -10 -7 -0.07
v -10 -6 -0.07
v -9 -6 -0.07
v -10 -7 -0.07
v -11 -7 -0.07
v -11 -6 -0.07
v -10 -6 -0.07
v -11 -7 -0.07
v -12 -7 -0.07
v -12 -6 -0.07
v -11 -6 -0.07
v -12 -7 -0.07
v -13 -7 -0.07
v -13 -6 -0.07
v -12 -6 -0.07
v -13 -7 -0.07
v -14 -7 -0.07
v -14 -6 -0.07
v -13 -6 -0.07
v -14 -7 -0.07
v -15 -7 -0.07
v -15 -6 -0.07
v -14 -6 -0.07
v -15 -7 -0.07
v -16 -7 -0.07
v -16 -6 -0.07
v -15 -6 -0.07
v 0 -8 -0.08
v -1 -8 -0.08
v -1 -7 -0.08
v 0 -7 -0.08
v -1 -8 -0.08
v -2 -8 -0.08
v -2 -7 -0.08
v -1 -7 -0.08
v -2 -8 -0.08
v -3 -8 -0.08
v -3 -7 -0.08
v -2 -7 -0.08
v -3 -8 -0.08
v -4 -8 -0.08
v -4 -7 -0.08
v -3 -7 -0.08
v -4 -8 -0.08
v -5 -8 -0.08
v -5 -7 -0.08
v -4 -7 -0.08
v -5 -8 -0.08
v -6 -8 -0.08
v -6 -7 -0.08
v -5 -7 -0.08
v -6 -8 -0.08
v -7 -8 -0.08
v -7 -7 -0.08
v -6 -7 -0.08
v -7 -8 -0.08
v -8 -8 -0.08
v -8 -7 -0.08
v -7 -7 -0.08
v -8 -8 -0.08
v -9 -8 -0.08
v -9 -7 -0.08
v -8 -7 -0.08
v -9 -8 -0.08
v -10 -8 -0.08
v -10 -7 -0.08
v -9 -7 -0.08
v -10 -8 -0.08
v -11 -8 -0.08
v -11 -7 -0.08
v -10 -7 -0.08
v -11 -8 -0.08
v -12 -8 -0.08
v -12 -7 -0.08
v -11 -7 -0.08
v -12 -8 -0.08
v -13 -8 -0.08
v -13 -7 -0.08
v -12 -7 -0.08
v -13 -8 -0.08
v -14 -8 -0.08
v -14 -7 -0.08
v -13 -7 -0.08
v -14 -8 -0.08
v -15 -8 -0.08
v -15 -7 -0.08
v -14 -7 -0.08
v -15 -8 -0.08
v -16 -8 -0.08
v -16 -7 -0.08
v -15 -7 -0.08
v 0 -9 -0.09
v -1 -9 -0.09
v -1 -8 -0.09
v 0 -8 -0.09
v -1 -9 -0.09
v -2 -9 -0.09
v -2 -8 -0.09
v -1 -8 -0.09
v -2 -9 -0.09
v -3 -9 -0.09
v -3 -8 -0.09
v -2 -8 -0.09
v -3 -9 -0.09
v -4 -9 -0.09
v -4 -8 -0.09
v -3 -8 -0.09
v -4 -9 -0.09
v -5 -9 -0.09
v -5 -8 -0.09
v -4 -8 -0.09
v -5 -9 -0.09
v -6 -9 -0.09
v -6 -8 -0.09
v -5 -8 -0.09
v -6 -9 -0.09
v -7 -9 -0.09
v -7 -8 -0.09
v -6 -8 -0.09
v -7 -9 -0.09
v -8 -9 -0.09
v -8 -8 -0.09
v -7 -8 -0.09
v -8 -9 -0.09
v -9 -9 -0.09
v -9 -8 -0.09
v -8 -8 -0.09
v -9 -9 -0.09
v -10 -9 -0.09
v -10 -8 -0.09
v -9 -8 -0.09
v -10 -9 -0.09
v -11 -9 -0.09
v -11 -8 -0.09
v -10 -8 -0.09
v -11 -9 -0.09
v -12 -9 -0.09
v -12 -8 -0.09
v -11 -8 -0.09
v -12 -9 -0.09
v -13 -9 -0.09
v -13 -8 -0.09
v -12 -8 -0.09
v -13 -9 -0.09
v -14 -9 -0.09
v -14 -8 -0.09
v -13 -8 -0.09
v -14 -9 -0.09
v -15 -9 -0.09
v -15 -8 -0.09
v -14 -8 -0.09
v -15 -9 -0.09
v -16 -9 -0.09
v -16 -8 -0.09
v -15 -8 -0.09
v 0 -10 -0.1
v -1 -10 -0.1
v -1 -9 -0.1
v 0 -9 -0.1
v -1 -10 -0.1
v -2 -10 -0.1
v -2 -9 -0.1
v -1 -9 -0.1
v -2 -10 -0.1
v -3 -10 -0.1
v -3 -9 -0.1
v -2 -9 -0.1
v -3 -10 -0.1
v -4 -10 -0.1
v -4 -9 -0.1
v -3 -9 -0.1
v -4 -10 -0.1
v -5 -10 -0.1
v -5 -9 -0.1
v -4 -9 -0.1
v -5 -10 -0.1
v -6 -10 -0.1
v -6 -9 -0.1
v -5 -9 -0.1
v -6 -10 -0.1
v -7 -10 -0.1
v -7 -9 -0.1
v -6 -9 -0.1
v -7 -10 -0.1
v -8 -10 -0.1
v -8 -9 -0.1
v -7 -9 -0.1
v -8 -10 -0.1
v -9 -10 -0.1
v -9 -9 -0.1
v -8 -9 -0.1
v -9 -10 -0.1
v -10 -10 -0.1
v -10 -9 -0.1
v -9 -9 -0.1
v -10 -10 -0.1
v -11 -10 -0.1
v -11 -9 -0.1
v -10 -9 -0.1
v -11 -10 -0.1
v -12 -10 -0.1
v -12 -9 -0.1
v -11 -9 -0.1
v -12 -10 -0.1
v -13 -10 -0.1
v -13 -9 -0.1
v -12 -9 -0.1
v -14 -10 -0.1
v -15 -10 -0.1
v -15 -9 -0.1
v -14 -9 -0.1
v -15 -10 -0.1
v -16 -10 -0.1
v -16 -9 -0.1
v -15 -9 -0.1
v -2 -11 -0.11
v -3 -11 -0.11
v -3 -10 -0.11
v -2 -10 -0.11
v -3 -11 -0.11
v -4 -11 -0.11
v -4 -10 -0.11
v -3 -10 -0.11
v -4 -11 -0.11
v -5 -11 -0.11
v -5 -10 -0.11
v -4 -10 -0.11
v -5 -11 -0.11
v -6 -11 -0.11
v -6 -10 -0.11
v -5 -10 -0.11
v -6 -11 -0.11
v -7 -11 -0.11
v -7 -10 -0.11
v -6 -10 -0.11
v -7 -11 -0.11
v -8 -11 -0.11
v -8 -10 -0.11
v -7 -10 -0.11
v -8 -11 -0.11
v -9 -11 -0.11
v -9 -10 -0.11
v -8 -10 -0.11
v -9 -11 -0.11
v -10 -11 -0.11
v -10 -10 -0.11
v -9 -10 -0.11
v -10 -11 -0.11
v -11 -11 -0.11
v -11 -10 -0.11
v -10 -10 -0.11
v -11 -11 -0.11
v -12 -11 -0.11
v -12 -10 -0.11
v -11 -10 -0.11
v -15 -11 -0.11
v -16 -11 -0.11
v -16 -10 -0.11
v -15 -10 -0.11
v -3 -12 -0.12
v -4 -12 -0.12
v -4 -11 -0.12
v -3 -11 -0.12
v -4 -12 -0.12
v -5 -12 -0.12
v -5 -11 -0.12
v -4 -11 -0.12
v -5 -12 -0.12
v -6 -12 -0.12
v -6 -11 -0.12
v -5 -11 -0.12
v -6 -12 -0.12
v -7 -12 -0.12
v -7 -11 -0.12
v -6 -11 -0.12
v -8 -12 -0.12
v -9 -12 -0.12
v -9 -11 -0.12
v -8 -11 -0.12
v -9 -12 -0.12
v -10 -12 -0.12
v -10 -11 -0.12
v -9 -11 -0.12
v -10 -12 -0.12
v -11 -12 -0.12
v -11 -11 -0.12
v -10 -11 -0.12
v -11 -12 -0.12
v -12 -12 -0.12
v -12 -11 -0.12
v -11 -11 -0.12
v -15 -12 -0.12
v -16 -12 -0.12
v -16 -11 -0.12
v -15 -11 -0.12

# Texture cooridinates (Count = 60)
vt 0.4 0
vt 0.44 0
vt 0.44 0.04000002
vt 0.4 0.04000002
vt 0.44 0.16
vt 0.48 0.16
vt 0.48 0.2
vt 0.44 0.2
vt 0.48 0.04000002
vt 0.48 0.07999998
vt 0.44 0.07999998
vt 0.36 0.07999998
vt 0.4 0.07999998
vt 0.4 0.12
vt 0.36 0.12
vt 0.48 0.12
vt 0.44 0.12
vt 0.2 0.2
vt 0.24 0.2
vt 0.24 0.24
vt 0.2 0.24
vt 0.36 0
vt 0.36 0.04000002
vt 0.32 0.12
vt 0.36 0.16
vt 0.32 0.16
vt 0.28 0.16
vt 0.32 0.2
vt 0.28 0.2
vt 0.28 0.04000002
vt 0.32 0.04000002
vt 0.32 0.07999998
vt 0.28 0.07999998
vt 0.24 0.16
vt 0.28 0
vt 0.32 0
vt 0.2 0.16
vt 0.4 0.16
vt 0.24 0
vt 0.24 0.04000002
vt 0.4 0.2
vt 0.48 0
vt 0.2 0.07999998
vt 0.24 0.07999998
vt 0.24 0.12
vt 0.2 0.12
vt 0.12 0.07999998
vt 0.16 0.07999998
vt 0.16 0.12
vt 0.12 0.12
vt 0.2 0
vt 0.2 0.04000002
vt 0.16 0.16
vt 0.16 0.04000002
vt 0.12 0.16
vt 0.16 0.2
vt 0.12 0.2
vt 0.12 0
vt 0.16 0
vt 0.12 0.04000002

# Normal
vn 0 0 -1

# Mesh description
g sunrise_mesh_0013

# Faces
f 1/1/1 2/2/1 3/3/1 4/4/1
f 5/5/1 6/6/1 7/7/1 8/8/1
f 9/3/1 10/9/1 11/10/1 12/11/1
f 13/12/1 14/13/1 15/14/1 16/15/1
f 17/11/1 18/10/1 19/16/1 20/17/1
f 21/18/1 22/19/1 23/20/1 24/21/1
f 25/22/1 26/1/1 27/4/1 28/23/1
f 29/24/1 30/15/1 31/25/1 32/26/1
f 33/27/1 34/26/1 35/28/1 36/29/1
f 37/30/1 38/31/1 39/32/1 40/33/1
f 41/34/1 42/27/1 43/29/1 44/19/1
f 45/35/1 46/36/1 47/31/1 48/30/1
f 49/27/1 50/26/1 51/28/1 52/29/1
f 53/37/1 54/34/1 55/19/1 56/18/1
f 57/18/1 58/19/1 59/20/1 60/21/1
f 61/23/1 62/4/1 63/13/1 64/12/1
f 65/14/1 66/17/1 67/5/1 68/38/1
f 69/17/1 70/16/1 71/6/1 72/5/1
f 73/14/1 74/17/1 75/5/1 76/38/1
f 77/13/1 78/11/1 79/17/1 80/14/1
f 81/11/1 82/10/1 83/16/1 84/17/1
f 85/22/1 86/1/1 87/4/1 88/23/1
f 89/24/1 90/15/1 91/25/1 92/26/1
f 93/35/1 94/36/1 95/31/1 96/30/1
f 97/36/1 98/22/1 99/23/1 100/31/1
f 101/4/1 102/3/1 103/11/1 104/13/1
f 105/39/1 106/35/1 107/30/1 108/40/1
f 109/37/1 110/34/1 111/19/1 112/18/1
f 113/18/1 114/19/1 115/20/1 116/21/1
f 117/22/1 118/1/1 119/4/1 120/23/1
f 121/1/1 122/2/1 123/3/1 124/4/1
f 125/1/1 126/2/1 127/3/1 128/4/1
f 129/1/1 130/2/1 131/3/1 132/4/1
f 133/38/1 134/5/1 135/8/1 136/41/1
f 137/2/1 138/42/1 139/9/1 140/3/1
f 141/18/1 142/19/1 143/20/1 144/21/1
f 145/22/1 146/1/1 147/4/1 148/23/1
f 149/1/1 150/2/1 151/3/1 152/4/1
f 153/5/1 154/6/1 155/7/1 156/8/1
f 157/4/1 158/3/1 159/11/1 160/13/1
f 161/4/1 162/3/1 163/11/1 164/13/1
f 165/37/1 166/34/1 167/19/1 168/18/1
f 169/43/1 170/44/1 171/45/1 172/46/1
f 173/37/1 174/34/1 175/19/1 176/18/1
f 177/18/1 178/19/1 179/20/1 180/21/1
f 181/37/1 182/34/1 183/19/1 184/18/1
f 185/37/1 186/34/1 187/19/1 188/18/1
f 189/2/1 190/42/1 191/9/1 192/3/1
f 193/18/1 194/19/1 195/20/1 196/21/1
f 197/18/1 198/19/1 199/20/1 200/21/1
f 201/18/1 202/19/1 203/20/1 204/21/1
f 205/18/1 206/19/1 207/20/1 208/21/1
f 209/22/1 210/1/1 211/4/1 212/23/1
f 213/47/1 214/48/1 215/49/1 216/50/1
f 217/48/1 218/43/1 219/46/1 220/49/1
f 221/43/1 222/44/1 223/45/1 224/46/1
f 225/37/1 226/34/1 227/19/1 228/18/1
f 229/37/1 230/34/1 231/19/1 232/18/1
f 233/51/1 234/39/1 235/40/1 236/52/1
f 237/37/1 238/34/1 239/19/1 240/18/1
f 241/37/1 242/34/1 243/19/1 244/18/1
f 245/37/1 246/34/1 247/19/1 248/18/1
f 249/37/1 250/34/1 251/19/1 252/18/1
f 253/37/1 254/34/1 255/19/1 256/18/1
f 257/18/1 258/19/1 259/20/1 260/21/1
f 261/18/1 262/19/1 263/20/1 264/21/1
f 265/18/1 266/19/1 267/20/1 268/21/1
f 269/37/1 270/34/1 271/19/1 272/18/1
f 273/47/1 274/48/1 275/49/1 276/50/1
f 277/49/1 278/46/1 279/37/1 280/53/1
f 281/54/1 282/52/1 283/43/1 284/48/1
f 285/52/1 286/40/1 287/44/1 288/43/1
f 289/37/1 290/34/1 291/19/1 292/18/1
f 293/37/1 294/34/1 295/19/1 296/18/1
f 297/47/1 298/48/1 299/49/1 300/50/1
f 301/48/1 302/43/1 303/46/1 304/49/1
f 305/43/1 306/44/1 307/45/1 308/46/1
f 309/37/1 310/34/1 311/19/1 312/18/1
f 313/37/1 314/34/1 315/19/1 316/18/1
f 317/47/1 318/48/1 319/49/1 320/50/1
f 321/43/1 322/44/1 323/45/1 324/46/1
f 325/47/1 326/48/1 327/49/1 328/50/1
f 329/48/1 330/43/1 331/46/1 332/49/1
f 333/48/1 334/43/1 335/46/1 336/49/1
f 337/49/1 338/46/1 339/37/1 340/53/1
f 341/55/1 342/53/1 343/56/1 344/57/1
f 345/53/1 346/37/1 347/18/1 348/56/1
f 349/50/1 350/49/1 351/53/1 352/55/1
f 353/43/1 354/44/1 355/45/1 356/46/1
f 357/37/1 358/34/1 359/19/1 360/18/1
f 361/37/1 362/34/1 363/19/1 364/18/1
f 365/54/1 366/52/1 367/43/1 368/48/1
f 369/50/1 370/49/1 371/53/1 372/55/1
f 373/43/1 374/44/1 375/45/1 376/46/1
f 377/37/1 378/34/1 379/19/1 380/18/1
f 381/58/1 382/59/1 383/54/1 384/60/1
f 385/51/1 386/39/1 387/40/1 388/52/1
f 389/58/1 390/59/1 391/54/1 392/60/1
f 393/59/1 394/51/1 395/52/1 396/54/1
f 397/53/1 398/37/1 399/18/1 400/56/1
f 401/54/1 402/52/1 403/43/1 404/48/1
f 405/50/1 406/49/1 407/53/1 408/55/1
f 409/49/1 410/46/1 411/37/1 412/53/1
f 413/54/1 414/52/1 415/43/1 416/48/1
f 417/50/1 418/49/1 419/53/1 420/55/1
f 421/48/1 422/43/1 423/46/1 424/49/1
f 425/58/1 426/59/1 427/54/1 428/60/1
f 429/53/1 430/37/1 431/18/1 432/56/1
f 433/54/1 434/52/1 435/43/1 436/48/1
f 437/50/1 438/49/1 439/53/1 440/55/1
f 441/48/1 442/43/1 443/46/1 444/49/1
f 445/43/1 446/44/1 447/45/1 448/46/1
f 449/37/1 450/34/1 451/19/1 452/18/1
f 453/37/1 454/34/1 455/19/1 456/18/1
f 457/37/1 458/34/1 459/19/1 460/18/1
f 461/58/1 462/59/1 463/54/1 464/60/1
f 465/59/1 466/51/1 467/52/1 468/54/1
f 469/59/1 470/51/1 471/52/1 472/54/1
f 473/53/1 474/37/1 475/18/1 476/56/1
f 477/55/1 478/53/1 479/56/1 480/57/1
f 481/59/1 482/51/1 483/52/1 484/54/1
f 485/53/1 486/37/1 487/18/1 488/56/1
f 489/37/1 490/34/1 491/19/1 492/18/1
f 493/58/1 494/59/1 495/54/1 496/60/1
f 497/59/1 498/51/1 499/52/1 500/54/1
f 501/53/1 502/37/1 503/18/1 504/56/1
f 505/54/1 506/52/1 507/43/1 508/48/1
f 509/50/1 510/49/1 511/53/1 512/55/1
f 513/48/1 514/43/1 515/46/1 516/49/1
f 517/43/1 518/44/1 519/45/1 520/46/1
f 521/37/1 522/34/1 523/19/1 524/18/1
f 525/37/1 526/34/1 527/19/1 528/18/1
f 529/37/1 530/34/1 531/19/1 532/18/1
f 533/37/1 534/34/1 535/19/1 536/18/1
f 537/60/1 538/54/1 539/48/1 540/47/1
f 541/52/1 542/40/1 543/44/1 544/43/1
f 545/37/1 546/34/1 547/19/1 548/18/1
f 549/60/1 550/54/1 551/48/1 552/47/1
f 553/37/1 554/34/1 555/19/1 556/18/1
f 557/37/1 558/34/1 559/19/1 560/18/1
f 561/37/1 562/34/1 563/19/1 564/18/1
f 565/58/1 566/59/1 567/54/1 568/60/1
f 569/59/1 570/51/1 571/52/1 572/54/1
f 573/59/1 574/51/1 575/52/1 576/54/1
f 577/59/1 578/51/1 579/52/1 580/54/1
f 581/51/1 582/39/1 583/40/1 584/52/1
f 585/37/1 586/34/1 587/19/1 588/18/1
f 589/37/1 590/34/1 591/19/1 592/18/1
f 593/37/1 594/34/1 595/19/1 596/18/1
f 597/37/1 598/34/1 599/19/1 600/18/1
f 601/58/1 602/59/1 603/54/1 604/60/1
f 605/37/1 606/34/1 607/19/1 608/18/1
f 609/58/1 610/59/1 611/54/1 612/60/1
f 613/37/1 614/34/1 615/19/1 616/18/1
f 617/37/1 618/34/1 619/19/1 620/18/1
f 621/37/1 622/34/1 623/19/1 624/18/1
f 625/37/1 626/34/1 627/19/1 628/18/1
f 629/47/1 630/48/1 631/49/1 632/50/1
f 633/48/1 634/43/1 635/46/1 636/49/1
f 637/48/1 638/43/1 639/46/1 640/49/1
f 641/43/1 642/44/1 643/45/1 644/46/1
f 645/37/1 646/34/1 647/19/1 648/18/1
f 649/37/1 650/34/1 651/19/1 652/18/1
f 653/37/1 654/34/1 655/19/1 656/18/1
f 657/37/1 658/34/1 659/19/1 660/18/1
f 661/37/1 662/34/1 663/19/1 664/18/1
f 665/47/1 666/48/1 667/49/1 668/50/1
f 669/49/1 670/46/1 671/37/1 672/53/1
f 673/54/1 674/52/1 675/43/1 676/48/1
f 677/50/1 678/49/1 679/53/1 680/55/1
f 681/43/1 682/44/1 683/45/1 684/46/1
f 685/37/1 686/34/1 687/19/1 688/18/1
f 689/37/1 690/34/1 691/19/1 692/18/1

