# Tiled2Unity generated file. Do not modify by hand.
# Wavefront file for 'sunrise_mesh_0108.obj'

# Vertices (Count = 236)
v -2 -2 -0.02
v -3 -2 -0.02
v -3 -1 -0.02
v -2 -1 -0.02
v -3 -2 -0.02
v -4 -2 -0.02
v -4 -1 -0.02
v -3 -1 -0.02
v -4 -2 -0.02
v -5 -2 -0.02
v -5 -1 -0.02
v -4 -1 -0.02
v -5 -2 -0.02
v -6 -2 -0.02
v -6 -1 -0.02
v -5 -1 -0.02
v -6 -2 -0.02
v -7 -2 -0.02
v -7 -1 -0.02
v -6 -1 -0.02
v -7 -2 -0.02
v -8 -2 -0.02
v -8 -1 -0.02
v -7 -1 -0.02
v 0 -3 -0.03
v -1 -3 -0.03
v -1 -2 -0.03
v 0 -2 -0.03
v -1 -3 -0.03
v -2 -3 -0.03
v -2 -2 -0.03
v -1 -2 -0.03
v -2 -3 -0.03
v -3 -3 -0.03
v -3 -2 -0.03
v -2 -2 -0.03
v -3 -3 -0.03
v -4 -3 -0.03
v -4 -2 -0.03
v -3 -2 -0.03
v -4 -3 -0.03
v -5 -3 -0.03
v -5 -2 -0.03
v -4 -2 -0.03
v -5 -3 -0.03
v -6 -3 -0.03
v -6 -2 -0.03
v -5 -2 -0.03
v -6 -3 -0.03
v -7 -3 -0.03
v -7 -2 -0.03
v -6 -2 -0.03
v -7 -3 -0.03
v -8 -3 -0.03
v -8 -2 -0.03
v -7 -2 -0.03
v -8 -3 -0.03
v -9 -3 -0.03
v -9 -2 -0.03
v -8 -2 -0.03
v -9 -3 -0.03
v -10 -3 -0.03
v -10 -2 -0.03
v -9 -2 -0.03
v -10 -3 -0.03
v -11 -3 -0.03
v -11 -2 -0.03
v -10 -2 -0.03
v 0 -4 -0.04
v -1 -4 -0.04
v -1 -3 -0.04
v 0 -3 -0.04
v -1 -4 -0.04
v -2 -4 -0.04
v -2 -3 -0.04
v -1 -3 -0.04
v -2 -4 -0.04
v -3 -4 -0.04
v -3 -3 -0.04
v -2 -3 -0.04
v -3 -4 -0.04
v -4 -4 -0.04
v -4 -3 -0.04
v -3 -3 -0.04
v -4 -4 -0.04
v -5 -4 -0.04
v -5 -3 -0.04
v -4 -3 -0.04
v -5 -4 -0.04
v -6 -4 -0.04
v -6 -3 -0.04
v -5 -3 -0.04
v -6 -4 -0.04
v -7 -4 -0.04
v -7 -3 -0.04
v -6 -3 -0.04
v -7 -4 -0.04
v -8 -4 -0.04
v -8 -3 -0.04
v -7 -3 -0.04
v -8 -4 -0.04
v -9 -4 -0.04
v -9 -3 -0.04
v -8 -3 -0.04
v -9 -4 -0.04
v -10 -4 -0.04
v -10 -3 -0.04
v -9 -3 -0.04
v -10 -4 -0.04
v -11 -4 -0.04
v -11 -3 -0.04
v -10 -3 -0.04
v 0 -5 -0.05
v -1 -5 -0.05
v -1 -4 -0.05
v 0 -4 -0.05
v -1 -5 -0.05
v -2 -5 -0.05
v -2 -4 -0.05
v -1 -4 -0.05
v -8 -5 -0.05
v -9 -5 -0.05
v -9 -4 -0.05
v -8 -4 -0.05
v -9 -5 -0.05
v -10 -5 -0.05
v -10 -4 -0.05
v -9 -4 -0.05
v -10 -5 -0.05
v -11 -5 -0.05
v -11 -4 -0.05
v -10 -4 -0.05
v -11 -5 -0.05
v -12 -5 -0.05
v -12 -4 -0.05
v -11 -4 -0.05
v -10 -6 -0.06
v -11 -6 -0.06
v -11 -5 -0.06
v -10 -5 -0.06
v -11 -6 -0.06
v -12 -6 -0.06
v -12 -5 -0.06
v -11 -5 -0.06
v -11 -7 -0.07
v -12 -7 -0.07
v -12 -6 -0.07
v -11 -6 -0.07
v -11 -8 -0.08
v -12 -8 -0.08
v -12 -7 -0.08
v -11 -7 -0.08
v -12 -8 -0.08
v -13 -8 -0.08
v -13 -7 -0.08
v -12 -7 -0.08
v -12 -9 -0.09
v -13 -9 -0.09
v -13 -8 -0.09
v -12 -8 -0.09
v -10 -10 -0.1
v -11 -10 -0.1
v -11 -9 -0.1
v -10 -9 -0.1
v -12 -10 -0.1
v -13 -10 -0.1
v -13 -9 -0.1
v -12 -9 -0.1
v -10 -11 -0.11
v -11 -11 -0.11
v -11 -10 -0.11
v -10 -10 -0.11
v -11 -11 -0.11
v -12 -11 -0.11
v -12 -10 -0.11
v -11 -10 -0.11
v -10 -12 -0.12
v -11 -12 -0.12
v -11 -11 -0.12
v -10 -11 -0.12
v -11 -12 -0.12
v -12 -12 -0.12
v -12 -11 -0.12
v -11 -11 -0.12
v -12 -12 -0.12
v -13 -12 -0.12
v -13 -11 -0.12
v -12 -11 -0.12
v -13 -12 -0.12
v -14 -12 -0.12
v -14 -11 -0.12
v -13 -11 -0.12
v -14 -12 -0.12
v -15 -12 -0.12
v -15 -11 -0.12
v -14 -11 -0.12
v -11 -13 -0.13
v -12 -13 -0.13
v -12 -12 -0.13
v -11 -12 -0.13
v -12 -13 -0.13
v -13 -13 -0.13
v -13 -12 -0.13
v -12 -12 -0.13
v -13 -13 -0.13
v -14 -13 -0.13
v -14 -12 -0.13
v -13 -12 -0.13
v -14 -13 -0.13
v -15 -13 -0.13
v -15 -12 -0.13
v -14 -12 -0.13
v -11 -14 -0.14
v -12 -14 -0.14
v -12 -13 -0.14
v -11 -13 -0.14
v -12 -14 -0.14
v -13 -14 -0.14
v -13 -13 -0.14
v -12 -13 -0.14
v -13 -14 -0.14
v -14 -14 -0.14
v -14 -13 -0.14
v -13 -13 -0.14
v -14 -14 -0.14
v -15 -14 -0.14
v -15 -13 -0.14
v -14 -13 -0.14
v -3 -15 -0.15
v -4 -15 -0.15
v -4 -14 -0.15
v -3 -14 -0.15
v -14 -15 -0.15
v -15 -15 -0.15
v -15 -14 -0.15
v -14 -14 -0.15

# Texture cooridinates (Count = 44)
vt 0 0.44
vt 0.04 0.44
vt 0.04 0.48
vt 0 0.48
vt 0.08 0.44
vt 0.08 0.48
vt 0.2 0.72
vt 0.24 0.72
vt 0.24 0.76
vt 0.2 0.76
vt 0.16 0.44
vt 0.2 0.44
vt 0.2 0.48
vt 0.16 0.48
vt 0.24 0.44
vt 0.24 0.48
vt 0 0.4
vt 0.04 0.4
vt 0.08 0.4
vt 0 0.32
vt 0.04 0.32
vt 0.04 0.36
vt 0 0.36
vt 0.16 0.4
vt 0.2 0.4
vt 0.24 0.4
vt 0.08 0.36
vt 0 0.28
vt 0.04 0.28
vt 0.16 0.36
vt 0.2 0.36
vt 0.24 0.36
vt 0 0.24
vt 0.04 0.24
vt 0 0.2
vt 0.04 0.2
vt 0.2 0.64
vt 0.24 0.64
vt 0.24 0.68
vt 0.2 0.68
vt 0.4 0.28
vt 0.44 0.28
vt 0.44 0.32
vt 0.4 0.32

# Normal
vn 0 0 -1

# Mesh description
g sunrise_mesh_0108

# Faces
f 1/1/1 2/2/1 3/3/1 4/4/1
f 5/2/1 6/5/1 7/6/1 8/3/1
f 9/7/1 10/8/1 11/9/1 12/10/1
f 13/7/1 14/8/1 15/9/1 16/10/1
f 17/1/1 18/2/1 19/3/1 20/4/1
f 21/2/1 22/5/1 23/6/1 24/3/1
f 25/11/1 26/12/1 27/13/1 28/14/1
f 29/12/1 30/15/1 31/16/1 32/13/1
f 33/17/1 34/18/1 35/2/1 36/1/1
f 37/18/1 38/19/1 39/5/1 40/2/1
f 41/7/1 42/8/1 43/9/1 44/10/1
f 45/7/1 46/8/1 47/9/1 48/10/1
f 49/17/1 50/18/1 51/2/1 52/1/1
f 53/18/1 54/19/1 55/5/1 56/2/1
f 57/11/1 58/12/1 59/13/1 60/14/1
f 61/12/1 62/15/1 63/16/1 64/13/1
f 65/20/1 66/21/1 67/22/1 68/23/1
f 69/24/1 70/25/1 71/12/1 72/11/1
f 73/25/1 74/26/1 75/15/1 76/12/1
f 77/23/1 78/22/1 79/18/1 80/17/1
f 81/22/1 82/27/1 83/19/1 84/18/1
f 85/7/1 86/8/1 87/9/1 88/10/1
f 89/7/1 90/8/1 91/9/1 92/10/1
f 93/23/1 94/22/1 95/18/1 96/17/1
f 97/22/1 98/27/1 99/19/1 100/18/1
f 101/24/1 102/25/1 103/12/1 104/11/1
f 105/25/1 106/26/1 107/15/1 108/12/1
f 109/28/1 110/29/1 111/21/1 112/20/1
f 113/30/1 114/31/1 115/25/1 116/24/1
f 117/31/1 118/32/1 119/26/1 120/25/1
f 121/30/1 122/31/1 123/25/1 124/24/1
f 125/31/1 126/32/1 127/26/1 128/25/1
f 129/33/1 130/34/1 131/29/1 132/28/1
f 133/20/1 134/21/1 135/22/1 136/23/1
f 137/35/1 138/36/1 139/34/1 140/33/1
f 141/28/1 142/29/1 143/21/1 144/20/1
f 145/33/1 146/34/1 147/29/1 148/28/1
f 149/35/1 150/36/1 151/34/1 152/33/1
f 153/20/1 154/21/1 155/22/1 156/23/1
f 157/28/1 158/29/1 159/21/1 160/20/1
f 161/37/1 162/38/1 163/39/1 164/40/1
f 165/33/1 166/34/1 167/29/1 168/28/1
f 169/37/1 170/38/1 171/39/1 172/40/1
f 173/37/1 174/38/1 175/39/1 176/40/1
f 177/37/1 178/38/1 179/39/1 180/40/1
f 181/37/1 182/38/1 183/39/1 184/40/1
f 185/11/1 186/12/1 187/13/1 188/14/1
f 189/12/1 190/15/1 191/16/1 192/13/1
f 193/20/1 194/21/1 195/22/1 196/23/1
f 197/37/1 198/38/1 199/39/1 200/40/1
f 201/24/1 202/25/1 203/12/1 204/11/1
f 205/25/1 206/26/1 207/15/1 208/12/1
f 209/28/1 210/29/1 211/21/1 212/20/1
f 213/37/1 214/38/1 215/39/1 216/40/1
f 217/30/1 218/31/1 219/25/1 220/24/1
f 221/31/1 222/32/1 223/26/1 224/25/1
f 225/33/1 226/34/1 227/29/1 228/28/1
f 229/41/1 230/42/1 231/43/1 232/44/1
f 233/35/1 234/36/1 235/34/1 236/33/1

