# Tiled2Unity generated file. Do not modify by hand.
# Wavefront file for 'sunrise_mesh_0115.obj'

# Vertices (Count = 72)
v -12 -1 -0.01
v -13 -1 -0.01
v -13 0 -0.01
v -12 0 -0.01
v -13 -1 -0.01
v -14 -1 -0.01
v -14 0 -0.01
v -13 0 -0.01
v -12 -2 -0.02
v -13 -2 -0.02
v -13 -1 -0.02
v -12 -1 -0.02
v -13 -2 -0.02
v -14 -2 -0.02
v -14 -1 -0.02
v -13 -1 -0.02
v -14 -2 -0.02
v -15 -2 -0.02
v -15 -1 -0.02
v -14 -1 -0.02
v -15 -2 -0.02
v -16 -2 -0.02
v -16 -1 -0.02
v -15 -1 -0.02
v -10 -3 -0.03
v -11 -3 -0.03
v -11 -2 -0.03
v -10 -2 -0.03
v -11 -3 -0.03
v -12 -3 -0.03
v -12 -2 -0.03
v -11 -2 -0.03
v -12 -3 -0.03
v -13 -3 -0.03
v -13 -2 -0.03
v -12 -2 -0.03
v -13 -3 -0.03
v -14 -3 -0.03
v -14 -2 -0.03
v -13 -2 -0.03
v -14 -3 -0.03
v -15 -3 -0.03
v -15 -2 -0.03
v -14 -2 -0.03
v -15 -3 -0.03
v -16 -3 -0.03
v -16 -2 -0.03
v -15 -2 -0.03
v -10 -4 -0.04
v -11 -4 -0.04
v -11 -3 -0.04
v -10 -3 -0.04
v -11 -4 -0.04
v -12 -4 -0.04
v -12 -3 -0.04
v -11 -3 -0.04
v -14 -4 -0.04
v -15 -4 -0.04
v -15 -3 -0.04
v -14 -3 -0.04
v -15 -4 -0.04
v -16 -4 -0.04
v -16 -3 -0.04
v -15 -3 -0.04
v -10 -5 -0.05
v -11 -5 -0.05
v -11 -4 -0.05
v -10 -4 -0.05
v -11 -5 -0.05
v -12 -5 -0.05
v -12 -4 -0.05
v -11 -4 -0.05

# Texture cooridinates (Count = 16)
vt 0 0.44
vt 0.04 0.44
vt 0.04 0.48
vt 0 0.48
vt 0.08 0.44
vt 0.08 0.48
vt 0 0.4
vt 0.04 0.4
vt 0.08 0.4
vt 0.2 0.64
vt 0.24 0.64
vt 0.24 0.68
vt 0.2 0.68
vt 0 0.36
vt 0.04 0.36
vt 0.08 0.36

# Normal
vn 0 0 -1

# Mesh description
g sunrise_mesh_0115

# Faces
f 1/1/1 2/2/1 3/3/1 4/4/1
f 5/2/1 6/5/1 7/6/1 8/3/1
f 9/7/1 10/8/1 11/2/1 12/1/1
f 13/8/1 14/9/1 15/5/1 16/2/1
f 17/10/1 18/11/1 19/12/1 20/13/1
f 21/10/1 22/11/1 23/12/1 24/13/1
f 25/1/1 26/2/1 27/3/1 28/4/1
f 29/2/1 30/5/1 31/6/1 32/3/1
f 33/14/1 34/15/1 35/8/1 36/7/1
f 37/15/1 38/16/1 39/9/1 40/8/1
f 41/10/1 42/11/1 43/12/1 44/13/1
f 45/10/1 46/11/1 47/12/1 48/13/1
f 49/7/1 50/8/1 51/2/1 52/1/1
f 53/8/1 54/9/1 55/5/1 56/2/1
f 57/10/1 58/11/1 59/12/1 60/13/1
f 61/10/1 62/11/1 63/12/1 64/13/1
f 65/14/1 66/15/1 67/8/1 68/7/1
f 69/15/1 70/16/1 71/9/1 72/8/1

