# Tiled2Unity generated file. Do not modify by hand.
# Wavefront file for 'sunrise_mesh_0091.obj'

# Vertices (Count = 32)
v -14 -10 -0.1
v -15 -10 -0.1
v -15 -9 -0.1
v -14 -9 -0.1
v -13 -11 -0.11
v -14 -11 -0.11
v -14 -10 -0.11
v -13 -10 -0.11
v -14 -11 -0.11
v -15 -11 -0.11
v -15 -10 -0.11
v -14 -10 -0.11
v -15 -11 -0.11
v -16 -11 -0.11
v -16 -10 -0.11
v -15 -10 -0.11
v -13 -12 -0.12
v -14 -12 -0.12
v -14 -11 -0.12
v -13 -11 -0.12
v -14 -12 -0.12
v -15 -12 -0.12
v -15 -11 -0.12
v -14 -11 -0.12
v -13 -13 -0.13
v -14 -13 -0.13
v -14 -12 -0.13
v -13 -12 -0.13
v -14 -13 -0.13
v -15 -13 -0.13
v -15 -12 -0.13
v -14 -12 -0.13

# Texture cooridinates (Count = 22)
vt 0.36 0.84
vt 0.4 0.84
vt 0.4 0.88
vt 0.36 0.88
vt 0.16 0.56
vt 0.2 0.56
vt 0.2 0.6
vt 0.16 0.6
vt 0.36 0.6
vt 0.4 0.6
vt 0.4 0.64
vt 0.36 0.64
vt 0.44 0.6
vt 0.44 0.64
vt 0.16 0.52
vt 0.2 0.52
vt 0.36 0.56
vt 0.4 0.56
vt 0.16 0.48
vt 0.2 0.48
vt 0.36 0.52
vt 0.4 0.52

# Normal
vn 0 0 -1

# Mesh description
g sunrise_mesh_0091

# Faces
f 1/1/1 2/2/1 3/3/1 4/4/1
f 5/5/1 6/6/1 7/7/1 8/8/1
f 9/9/1 10/10/1 11/11/1 12/12/1
f 13/10/1 14/13/1 15/14/1 16/11/1
f 17/15/1 18/16/1 19/6/1 20/5/1
f 21/17/1 22/18/1 23/10/1 24/9/1
f 25/19/1 26/20/1 27/16/1 28/15/1
f 29/21/1 30/22/1 31/18/1 32/17/1

