# Tiled2Unity generated file. Do not modify by hand.
# Wavefront file for 'sunrise_mesh_0102.obj'

# Vertices (Count = 116)
v 0 -8 -0.08
v -1 -8 -0.08
v -1 -7 -0.08
v 0 -7 -0.08
v 0 -9 -0.09
v -1 -9 -0.09
v -1 -8 -0.09
v 0 -8 -0.09
v -1 -9 -0.09
v -2 -9 -0.09
v -2 -8 -0.09
v -1 -8 -0.09
v -2 -9 -0.09
v -3 -9 -0.09
v -3 -8 -0.09
v -2 -8 -0.09
v -3 -9 -0.09
v -4 -9 -0.09
v -4 -8 -0.09
v -3 -8 -0.09
v 0 -10 -0.1
v -1 -10 -0.1
v -1 -9 -0.1
v 0 -9 -0.1
v -1 -10 -0.1
v -2 -10 -0.1
v -2 -9 -0.1
v -1 -9 -0.1
v -2 -10 -0.1
v -3 -10 -0.1
v -3 -9 -0.1
v -2 -9 -0.1
v -3 -10 -0.1
v -4 -10 -0.1
v -4 -9 -0.1
v -3 -9 -0.1
v 0 -11 -0.11
v -1 -11 -0.11
v -1 -10 -0.11
v 0 -10 -0.11
v -1 -11 -0.11
v -2 -11 -0.11
v -2 -10 -0.11
v -1 -10 -0.11
v -2 -11 -0.11
v -3 -11 -0.11
v -3 -10 -0.11
v -2 -10 -0.11
v -3 -11 -0.11
v -4 -11 -0.11
v -4 -10 -0.11
v -3 -10 -0.11
v -3 -12 -0.12
v -4 -12 -0.12
v -4 -11 -0.12
v -3 -11 -0.12
v -1 -14 -0.14
v -2 -14 -0.14
v -2 -13 -0.14
v -1 -13 -0.14
v -2 -14 -0.14
v -3 -14 -0.14
v -3 -13 -0.14
v -2 -13 -0.14
v -3 -14 -0.14
v -4 -14 -0.14
v -4 -13 -0.14
v -3 -13 -0.14
v -4 -14 -0.14
v -5 -14 -0.14
v -5 -13 -0.14
v -4 -13 -0.14
v -5 -14 -0.14
v -6 -14 -0.14
v -6 -13 -0.14
v -5 -13 -0.14
v -1 -15 -0.15
v -2 -15 -0.15
v -2 -14 -0.15
v -1 -14 -0.15
v -2 -15 -0.15
v -3 -15 -0.15
v -3 -14 -0.15
v -2 -14 -0.15
v -3 -15 -0.15
v -4 -15 -0.15
v -4 -14 -0.15
v -3 -14 -0.15
v -4 -15 -0.15
v -5 -15 -0.15
v -5 -14 -0.15
v -4 -14 -0.15
v -5 -15 -0.15
v -6 -15 -0.15
v -6 -14 -0.15
v -5 -14 -0.15
v -1 -16 -0.16
v -2 -16 -0.16
v -2 -15 -0.16
v -1 -15 -0.16
v -2 -16 -0.16
v -3 -16 -0.16
v -3 -15 -0.16
v -2 -15 -0.16
v -3 -16 -0.16
v -4 -16 -0.16
v -4 -15 -0.16
v -3 -15 -0.16
v -4 -16 -0.16
v -5 -16 -0.16
v -5 -15 -0.16
v -4 -15 -0.16
v -5 -16 -0.16
v -6 -16 -0.16
v -6 -15 -0.16
v -5 -15 -0.16

# Texture cooridinates (Count = 22)
vt 0 0.32
vt 0.04 0.32
vt 0.04 0.36
vt 0 0.36
vt 0 0.28
vt 0.04 0.28
vt 0.16 0.44
vt 0.2 0.44
vt 0.2 0.48
vt 0.16 0.48
vt 0.24 0.44
vt 0.24 0.48
vt 0 0.24
vt 0.04 0.24
vt 0.16 0.4
vt 0.2 0.4
vt 0.24 0.4
vt 0 0.2
vt 0.04 0.2
vt 0.16 0.36
vt 0.2 0.36
vt 0.24 0.36

# Normal
vn 0 0 -1

# Mesh description
g sunrise_mesh_0102

# Faces
f 1/1/1 2/2/1 3/3/1 4/4/1
f 5/5/1 6/6/1 7/2/1 8/1/1
f 9/7/1 10/8/1 11/9/1 12/10/1
f 13/8/1 14/11/1 15/12/1 16/9/1
f 17/1/1 18/2/1 19/3/1 20/4/1
f 21/13/1 22/14/1 23/6/1 24/5/1
f 25/15/1 26/16/1 27/8/1 28/7/1
f 29/16/1 30/17/1 31/11/1 32/8/1
f 33/5/1 34/6/1 35/2/1 36/1/1
f 37/18/1 38/19/1 39/14/1 40/13/1
f 41/20/1 42/21/1 43/16/1 44/15/1
f 45/21/1 46/22/1 47/17/1 48/16/1
f 49/13/1 50/14/1 51/6/1 52/5/1
f 53/18/1 54/19/1 55/14/1 56/13/1
f 57/7/1 58/8/1 59/9/1 60/10/1
f 61/8/1 62/11/1 63/12/1 64/9/1
f 65/7/1 66/8/1 67/9/1 68/10/1
f 69/8/1 70/11/1 71/12/1 72/9/1
f 73/1/1 74/2/1 75/3/1 76/4/1
f 77/15/1 78/16/1 79/8/1 80/7/1
f 81/16/1 82/17/1 83/11/1 84/8/1
f 85/15/1 86/16/1 87/8/1 88/7/1
f 89/16/1 90/17/1 91/11/1 92/8/1
f 93/5/1 94/6/1 95/2/1 96/1/1
f 97/20/1 98/21/1 99/16/1 100/15/1
f 101/21/1 102/22/1 103/17/1 104/16/1
f 105/20/1 106/21/1 107/16/1 108/15/1
f 109/21/1 110/22/1 111/17/1 112/16/1
f 113/13/1 114/14/1 115/6/1 116/5/1

