# Tiled2Unity generated file. Do not modify by hand.
# Wavefront file for 'sunrise_mesh_0090.obj'

# Vertices (Count = 132)
v 0 -1 -0.01
v -1 -1 -0.01
v -1 0 -0.01
v 0 0 -0.01
v -1 -1 -0.01
v -2 -1 -0.01
v -2 0 -0.01
v -1 0 -0.01
v -2 -1 -0.01
v -3 -1 -0.01
v -3 0 -0.01
v -2 0 -0.01
v -3 -1 -0.01
v -4 -1 -0.01
v -4 0 -0.01
v -3 0 -0.01
v -4 -1 -0.01
v -5 -1 -0.01
v -5 0 -0.01
v -4 0 -0.01
v 0 -2 -0.02
v -1 -2 -0.02
v -1 -1 -0.02
v 0 -1 -0.02
v -1 -2 -0.02
v -2 -2 -0.02
v -2 -1 -0.02
v -1 -1 -0.02
v -2 -2 -0.02
v -3 -2 -0.02
v -3 -1 -0.02
v -2 -1 -0.02
v -4 -2 -0.02
v -5 -2 -0.02
v -5 -1 -0.02
v -4 -1 -0.02
v 0 -3 -0.03
v -1 -3 -0.03
v -1 -2 -0.03
v 0 -2 -0.03
v -1 -3 -0.03
v -2 -3 -0.03
v -2 -2 -0.03
v -1 -2 -0.03
v -2 -3 -0.03
v -3 -3 -0.03
v -3 -2 -0.03
v -2 -2 -0.03
v -3 -3 -0.03
v -4 -3 -0.03
v -4 -2 -0.03
v -3 -2 -0.03
v -4 -3 -0.03
v -5 -3 -0.03
v -5 -2 -0.03
v -4 -2 -0.03
v 0 -4 -0.04
v -1 -4 -0.04
v -1 -3 -0.04
v 0 -3 -0.04
v -1 -4 -0.04
v -2 -4 -0.04
v -2 -3 -0.04
v -1 -3 -0.04
v -2 -4 -0.04
v -3 -4 -0.04
v -3 -3 -0.04
v -2 -3 -0.04
v -3 -4 -0.04
v -4 -4 -0.04
v -4 -3 -0.04
v -3 -3 -0.04
v -4 -4 -0.04
v -5 -4 -0.04
v -5 -3 -0.04
v -4 -3 -0.04
v 0 -5 -0.05
v -1 -5 -0.05
v -1 -4 -0.05
v 0 -4 -0.05
v -2 -5 -0.05
v -3 -5 -0.05
v -3 -4 -0.05
v -2 -4 -0.05
v -3 -5 -0.05
v -4 -5 -0.05
v -4 -4 -0.05
v -3 -4 -0.05
v -4 -5 -0.05
v -5 -5 -0.05
v -5 -4 -0.05
v -4 -4 -0.05
v 0 -6 -0.06
v -1 -6 -0.06
v -1 -5 -0.06
v 0 -5 -0.06
v 0 -7 -0.07
v -1 -7 -0.07
v -1 -6 -0.07
v 0 -6 -0.07
v -5 -7 -0.07
v -6 -7 -0.07
v -6 -6 -0.07
v -5 -6 -0.07
v -6 -7 -0.07
v -7 -7 -0.07
v -7 -6 -0.07
v -6 -6 -0.07
v 0 -8 -0.08
v -1 -8 -0.08
v -1 -7 -0.08
v 0 -7 -0.08
v -5 -8 -0.08
v -6 -8 -0.08
v -6 -7 -0.08
v -5 -7 -0.08
v -6 -8 -0.08
v -7 -8 -0.08
v -7 -7 -0.08
v -6 -7 -0.08
v 0 -9 -0.09
v -1 -9 -0.09
v -1 -8 -0.09
v 0 -8 -0.09
v -5 -9 -0.09
v -6 -9 -0.09
v -6 -8 -0.09
v -5 -8 -0.09
v -6 -9 -0.09
v -7 -9 -0.09
v -7 -8 -0.09
v -6 -8 -0.09

# Texture cooridinates (Count = 70)
vt 0.04 0.88
vt 0.08 0.88
vt 0.08 0.92
vt 0.04 0.92
vt 0.12 0.88
vt 0.12 0.92
vt 0.16 0.88
vt 0.16 0.92
vt 0.32 0.88
vt 0.36 0.88
vt 0.36 0.92
vt 0.32 0.92
vt 0.4 0.88
vt 0.4 0.92
vt 0 0.68
vt 0.04 0.68
vt 0.04 0.72
vt 0 0.72
vt 0.16 0.56
vt 0.2 0.56
vt 0.2 0.6
vt 0.16 0.6
vt 0.2 0.68
vt 0.24 0.68
vt 0.24 0.72
vt 0.2 0.72
vt 0.36 0.84
vt 0.4 0.84
vt 0 0.64
vt 0.04 0.64
vt 0.16 0.52
vt 0.2 0.52
vt 0.08 0.56
vt 0.12 0.56
vt 0.12 0.6
vt 0.08 0.6
vt 0.36 0.6
vt 0.4 0.6
vt 0.4 0.64
vt 0.36 0.64
vt 0.12 0.68
vt 0.16 0.68
vt 0.16 0.72
vt 0.12 0.72
vt 0.16 0.48
vt 0.2 0.48
vt 0.08 0.52
vt 0.12 0.52
vt 0.36 0.56
vt 0.4 0.56
vt 0.08 0.68
vt 0.08 0.72
vt 0.24 0.64
vt 0.28 0.64
vt 0.28 0.68
vt 0.36 0.52
vt 0.4 0.52
vt 0.04 0.6
vt 0.08 0.64
vt 0.04 0.76
vt 0 0.76
vt 0.04 0.84
vt 0.08 0.84
vt 0.4 0.68
vt 0.44 0.68
vt 0.44 0.72
vt 0.4 0.72
vt 0.04 0.8
vt 0.08 0.8
vt 0.44 0.64

# Normal
vn 0 0 -1

# Mesh description
g sunrise_mesh_0090

# Faces
f 1/1/1 2/2/1 3/3/1 4/4/1
f 5/2/1 6/5/1 7/6/1 8/3/1
f 9/5/1 10/7/1 11/8/1 12/6/1
f 13/9/1 14/10/1 15/11/1 16/12/1
f 17/10/1 18/13/1 19/14/1 20/11/1
f 21/15/1 22/16/1 23/17/1 24/18/1
f 25/19/1 26/20/1 27/21/1 28/22/1
f 29/23/1 30/24/1 31/25/1 32/26/1
f 33/27/1 34/28/1 35/13/1 36/10/1
f 37/29/1 38/30/1 39/16/1 40/15/1
f 41/31/1 42/32/1 43/20/1 44/19/1
f 45/33/1 46/34/1 47/35/1 48/36/1
f 49/19/1 50/20/1 51/21/1 52/22/1
f 53/37/1 54/38/1 55/39/1 56/40/1
f 57/41/1 58/42/1 59/43/1 60/44/1
f 61/45/1 62/46/1 63/32/1 64/31/1
f 65/47/1 66/48/1 67/34/1 68/33/1
f 69/31/1 70/32/1 71/20/1 72/19/1
f 73/49/1 74/50/1 75/38/1 76/37/1
f 77/16/1 78/51/1 79/52/1 80/17/1
f 81/53/1 82/54/1 83/55/1 84/24/1
f 85/45/1 86/46/1 87/32/1 88/31/1
f 89/56/1 90/57/1 91/50/1 92/49/1
f 93/58/1 94/36/1 95/59/1 96/30/1
f 97/18/1 98/17/1 99/60/1 100/61/1
f 101/1/1 102/2/1 103/3/1 104/4/1
f 105/10/1 106/13/1 107/14/1 108/11/1
f 109/62/1 110/63/1 111/2/1 112/1/1
f 113/15/1 114/16/1 115/17/1 116/18/1
f 117/64/1 118/65/1 119/66/1 120/67/1
f 121/68/1 122/69/1 123/63/1 124/62/1
f 125/29/1 126/30/1 127/16/1 128/15/1
f 129/39/1 130/70/1 131/65/1 132/64/1

