# Tiled2Unity generated file. Do not modify by hand.
# Wavefront file for 'sunrise_mesh_0065.obj'

# Vertices (Count = 8)
v -2 -11 -0.11
v -3 -11 -0.11
v -3 -10 -0.11
v -2 -10 -0.11
v -15 -11 -0.11
v -16 -11 -0.11
v -16 -10 -0.11
v -15 -10 -0.11

# Texture cooridinates (Count = 8)
vt 0.2 0.16
vt 0.24 0.16
vt 0.24 0.2
vt 0.2 0.2
vt 0.2 0.76
vt 0.24 0.76
vt 0.24 0.8
vt 0.2 0.8

# Normal
vn 0 0 -1

# Mesh description
g sunrise_mesh_0065

# Faces
f 1/1/1 2/2/1 3/3/1 4/4/1
f 5/5/1 6/6/1 7/7/1 8/8/1

