# Tiled2Unity generated file. Do not modify by hand.
# Wavefront file for 'sunrise_mesh_0103.obj'

# Vertices (Count = 20)
v -14 -1 -0.01
v -15 -1 -0.01
v -15 0 -0.01
v -14 0 -0.01
v -15 -1 -0.01
v -16 -1 -0.01
v -16 0 -0.01
v -15 0 -0.01
v -14 -2 -0.02
v -15 -2 -0.02
v -15 -1 -0.02
v -14 -1 -0.02
v -15 -2 -0.02
v -16 -2 -0.02
v -16 -1 -0.02
v -15 -1 -0.02
v -14 -3 -0.03
v -15 -3 -0.03
v -15 -2 -0.03
v -14 -2 -0.03

# Texture cooridinates (Count = 14)
vt 0.04 0.28
vt 0.08 0.28
vt 0.08 0.32
vt 0.04 0.32
vt 0.16 0.4
vt 0.2 0.4
vt 0.2 0.44
vt 0.16 0.44
vt 0.04 0.24
vt 0.08 0.24
vt 0.16 0.36
vt 0.2 0.36
vt 0.04 0.2
vt 0.08 0.2

# Normal
vn 0 0 -1

# Mesh description
g sunrise_mesh_0103

# Faces
f 1/1/1 2/2/1 3/3/1 4/4/1
f 5/5/1 6/6/1 7/7/1 8/8/1
f 9/9/1 10/10/1 11/2/1 12/1/1
f 13/11/1 14/12/1 15/6/1 16/5/1
f 17/13/1 18/14/1 19/10/1 20/9/1

