# Tiled2Unity generated file. Do not modify by hand.
# Wavefront file for 'sunrise_mesh_0089.obj'

# Vertices (Count = 176)
v -4 -1 -0.01
v -5 -1 -0.01
v -5 0 -0.01
v -4 0 -0.01
v -5 -1 -0.01
v -6 -1 -0.01
v -6 0 -0.01
v -5 0 -0.01
v -6 -1 -0.01
v -7 -1 -0.01
v -7 0 -0.01
v -6 0 -0.01
v -13 -1 -0.01
v -14 -1 -0.01
v -14 0 -0.01
v -13 0 -0.01
v -14 -1 -0.01
v -15 -1 -0.01
v -15 0 -0.01
v -14 0 -0.01
v -15 -1 -0.01
v -16 -1 -0.01
v -16 0 -0.01
v -15 0 -0.01
v -6 -2 -0.02
v -7 -2 -0.02
v -7 -1 -0.02
v -6 -1 -0.02
v -7 -2 -0.02
v -8 -2 -0.02
v -8 -1 -0.02
v -7 -1 -0.02
v -8 -2 -0.02
v -9 -2 -0.02
v -9 -1 -0.02
v -8 -1 -0.02
v -9 -2 -0.02
v -10 -2 -0.02
v -10 -1 -0.02
v -9 -1 -0.02
v -13 -2 -0.02
v -14 -2 -0.02
v -14 -1 -0.02
v -13 -1 -0.02
v -14 -2 -0.02
v -15 -2 -0.02
v -15 -1 -0.02
v -14 -1 -0.02
v -15 -2 -0.02
v -16 -2 -0.02
v -16 -1 -0.02
v -15 -1 -0.02
v -9 -3 -0.03
v -10 -3 -0.03
v -10 -2 -0.03
v -9 -2 -0.03
v -13 -3 -0.03
v -14 -3 -0.03
v -14 -2 -0.03
v -13 -2 -0.03
v -14 -3 -0.03
v -15 -3 -0.03
v -15 -2 -0.03
v -14 -2 -0.03
v -15 -3 -0.03
v -16 -3 -0.03
v -16 -2 -0.03
v -15 -2 -0.03
v -6 -4 -0.04
v -7 -4 -0.04
v -7 -3 -0.04
v -6 -3 -0.04
v -7 -4 -0.04
v -8 -4 -0.04
v -8 -3 -0.04
v -7 -3 -0.04
v -8 -4 -0.04
v -9 -4 -0.04
v -9 -3 -0.04
v -8 -3 -0.04
v -9 -4 -0.04
v -10 -4 -0.04
v -10 -3 -0.04
v -9 -3 -0.04
v -13 -4 -0.04
v -14 -4 -0.04
v -14 -3 -0.04
v -13 -3 -0.04
v -14 -4 -0.04
v -15 -4 -0.04
v -15 -3 -0.04
v -14 -3 -0.04
v -15 -4 -0.04
v -16 -4 -0.04
v -16 -3 -0.04
v -15 -3 -0.04
v -6 -5 -0.05
v -7 -5 -0.05
v -7 -4 -0.05
v -6 -4 -0.05
v -7 -5 -0.05
v -8 -5 -0.05
v -8 -4 -0.05
v -7 -4 -0.05
v -8 -5 -0.05
v -9 -5 -0.05
v -9 -4 -0.05
v -8 -4 -0.05
v -9 -5 -0.05
v -10 -5 -0.05
v -10 -4 -0.05
v -9 -4 -0.05
v -13 -5 -0.05
v -14 -5 -0.05
v -14 -4 -0.05
v -13 -4 -0.05
v -14 -5 -0.05
v -15 -5 -0.05
v -15 -4 -0.05
v -14 -4 -0.05
v -15 -5 -0.05
v -16 -5 -0.05
v -16 -4 -0.05
v -15 -4 -0.05
v -6 -6 -0.06
v -7 -6 -0.06
v -7 -5 -0.06
v -6 -5 -0.06
v -7 -6 -0.06
v -8 -6 -0.06
v -8 -5 -0.06
v -7 -5 -0.06
v -8 -6 -0.06
v -9 -6 -0.06
v -9 -5 -0.06
v -8 -5 -0.06
v -13 -6 -0.06
v -14 -6 -0.06
v -14 -5 -0.06
v -13 -5 -0.06
v -14 -6 -0.06
v -15 -6 -0.06
v -15 -5 -0.06
v -14 -5 -0.06
v -15 -6 -0.06
v -16 -6 -0.06
v -16 -5 -0.06
v -15 -5 -0.06
v -7 -7 -0.07
v -8 -7 -0.07
v -8 -6 -0.07
v -7 -6 -0.07
v -8 -7 -0.07
v -9 -7 -0.07
v -9 -6 -0.07
v -8 -6 -0.07
v -14 -7 -0.07
v -15 -7 -0.07
v -15 -6 -0.07
v -14 -6 -0.07
v -15 -7 -0.07
v -16 -7 -0.07
v -16 -6 -0.07
v -15 -6 -0.07
v -13 -8 -0.08
v -14 -8 -0.08
v -14 -7 -0.08
v -13 -7 -0.08
v -15 -8 -0.08
v -16 -8 -0.08
v -16 -7 -0.08
v -15 -7 -0.08
v -15 -9 -0.09
v -16 -9 -0.09
v -16 -8 -0.09
v -15 -8 -0.09

# Texture cooridinates (Count = 82)
vt 0.32 0.88
vt 0.36 0.88
vt 0.36 0.92
vt 0.32 0.92
vt 0.2 0.92
vt 0.24 0.92
vt 0.24 0.96
vt 0.2 0.96
vt 0.28 0.92
vt 0.28 0.96
vt 0.16 0.68
vt 0.2 0.68
vt 0.2 0.72
vt 0.16 0.72
vt 0 0.76
vt 0.04 0.76
vt 0.04 0.8
vt 0 0.8
vt 0.08 0.76
vt 0.08 0.8
vt 0.24 0.88
vt 0.28 0.88
vt 0.4 0.88
vt 0.4 0.92
vt 0.24 0.72
vt 0.24 0.76
vt 0.2 0.76
vt 0 0.72
vt 0.04 0.72
vt 0.4 0.72
vt 0.44 0.72
vt 0.44 0.76
vt 0.4 0.76
vt 0.04 0.84
vt 0.08 0.84
vt 0.08 0.88
vt 0.04 0.88
vt 0.12 0.72
vt 0.16 0.76
vt 0.12 0.76
vt 0.36 0.68
vt 0.4 0.68
vt 0.36 0.72
vt 0.28 0.56
vt 0.32 0.56
vt 0.32 0.6
vt 0.28 0.6
vt 0.44 0.68
vt 0 0.84
vt 0.32 0.4
vt 0.36 0.4
vt 0.36 0.44
vt 0.32 0.44
vt 0.4 0.4
vt 0.4 0.44
vt 0.44 0.4
vt 0.44 0.44
vt 0.4 0.64
vt 0.44 0.64
vt 0 0.6
vt 0.04 0.6
vt 0.04 0.64
vt 0 0.64
vt 0.16 0.52
vt 0.2 0.52
vt 0.2 0.56
vt 0.16 0.56
vt 0.08 0.56
vt 0.12 0.56
vt 0.12 0.6
vt 0.08 0.6
vt 0.32 0.36
vt 0.36 0.36
vt 0.4 0.36
vt 0.44 0.36
vt 0.16 0.48
vt 0.2 0.48
vt 0.08 0.52
vt 0.12 0.52
vt 0.12 0.64
vt 0.16 0.64
vt 0.12 0.68

# Normal
vn 0 0 -1

# Mesh description
g sunrise_mesh_0089

# Faces
f 1/1/1 2/2/1 3/3/1 4/4/1
f 5/5/1 6/6/1 7/7/1 8/8/1
f 9/6/1 10/9/1 11/10/1 12/7/1
f 13/11/1 14/12/1 15/13/1 16/14/1
f 17/15/1 18/16/1 19/17/1 20/18/1
f 21/16/1 22/19/1 23/20/1 24/17/1
f 25/21/1 26/22/1 27/9/1 28/6/1
f 29/1/1 30/2/1 31/3/1 32/4/1
f 33/5/1 34/6/1 35/7/1 36/8/1
f 37/2/1 38/23/1 39/24/1 40/3/1
f 41/13/1 42/25/1 43/26/1 44/27/1
f 45/28/1 46/29/1 47/16/1 48/15/1
f 49/13/1 50/25/1 51/26/1 52/27/1
f 53/30/1 54/31/1 55/32/1 56/33/1
f 57/11/1 58/12/1 59/13/1 60/14/1
f 61/34/1 62/35/1 63/36/1 64/37/1
f 65/38/1 66/14/1 67/39/1 68/40/1
f 69/41/1 70/42/1 71/30/1 72/43/1
f 73/44/1 74/45/1 75/46/1 76/47/1
f 77/44/1 78/45/1 79/46/1 80/47/1
f 81/42/1 82/48/1 83/31/1 84/30/1
f 85/18/1 86/17/1 87/34/1 88/49/1
f 89/17/1 90/20/1 91/35/1 92/34/1
f 93/14/1 94/13/1 95/27/1 96/39/1
f 97/50/1 98/51/1 99/52/1 100/53/1
f 101/51/1 102/54/1 103/55/1 104/52/1
f 105/54/1 106/56/1 107/57/1 108/55/1
f 109/58/1 110/59/1 111/48/1 112/42/1
f 113/60/1 114/61/1 115/62/1 116/63/1
f 117/64/1 118/65/1 119/66/1 120/67/1
f 121/68/1 122/69/1 123/70/1 124/71/1
f 125/72/1 126/73/1 127/51/1 128/50/1
f 129/73/1 130/74/1 131/54/1 132/51/1
f 133/74/1 134/75/1 135/56/1 136/54/1
f 137/14/1 138/13/1 139/27/1 140/39/1
f 141/76/1 142/77/1 143/65/1 144/64/1
f 145/78/1 146/79/1 147/69/1 148/68/1
f 149/73/1 150/74/1 151/54/1 152/51/1
f 153/74/1 154/75/1 155/56/1 156/54/1
f 157/80/1 158/81/1 159/11/1 160/82/1
f 161/80/1 162/81/1 163/11/1 164/82/1
f 165/38/1 166/14/1 167/39/1 168/40/1
f 169/80/1 170/81/1 171/11/1 172/82/1
f 173/18/1 174/17/1 175/34/1 176/49/1

