# Tiled2Unity generated file. Do not modify by hand.
# Wavefront file for 'sunrise_mesh_0161.obj'

# Vertices (Count = 132)
v -2 -1 -0.01
v -3 -1 -0.01
v -3 0 -0.01
v -2 0 -0.01
v -5 -1 -0.01
v -6 -1 -0.01
v -6 0 -0.01
v -5 0 -0.01
v -6 -1 -0.01
v -7 -1 -0.01
v -7 0 -0.01
v -6 0 -0.01
v -12 -1 -0.01
v -13 -1 -0.01
v -13 0 -0.01
v -12 0 -0.01
v -13 -1 -0.01
v -14 -1 -0.01
v -14 0 -0.01
v -13 0 -0.01
v 0 -2 -0.02
v -1 -2 -0.02
v -1 -1 -0.02
v 0 -1 -0.02
v -1 -2 -0.02
v -2 -2 -0.02
v -2 -1 -0.02
v -1 -1 -0.02
v -2 -2 -0.02
v -3 -2 -0.02
v -3 -1 -0.02
v -2 -1 -0.02
v -6 -2 -0.02
v -7 -2 -0.02
v -7 -1 -0.02
v -6 -1 -0.02
v -12 -2 -0.02
v -13 -2 -0.02
v -13 -1 -0.02
v -12 -1 -0.02
v -5 -3 -0.03
v -6 -3 -0.03
v -6 -2 -0.03
v -5 -2 -0.03
v -6 -3 -0.03
v -7 -3 -0.03
v -7 -2 -0.03
v -6 -2 -0.03
v -12 -3 -0.03
v -13 -3 -0.03
v -13 -2 -0.03
v -12 -2 -0.03
v -13 -3 -0.03
v -14 -3 -0.03
v -14 -2 -0.03
v -13 -2 -0.03
v -5 -4 -0.04
v -6 -4 -0.04
v -6 -3 -0.04
v -5 -3 -0.04
v -6 -4 -0.04
v -7 -4 -0.04
v -7 -3 -0.04
v -6 -3 -0.04
v -12 -4 -0.04
v -13 -4 -0.04
v -13 -3 -0.04
v -12 -3 -0.04
v -13 -4 -0.04
v -14 -4 -0.04
v -14 -3 -0.04
v -13 -3 -0.04
v -5 -5 -0.05
v -6 -5 -0.05
v -6 -4 -0.05
v -5 -4 -0.05
v -6 -5 -0.05
v -7 -5 -0.05
v -7 -4 -0.05
v -6 -4 -0.05
v -12 -5 -0.05
v -13 -5 -0.05
v -13 -4 -0.05
v -12 -4 -0.05
v -13 -5 -0.05
v -14 -5 -0.05
v -14 -4 -0.05
v -13 -4 -0.05
v -5 -6 -0.06
v -6 -6 -0.06
v -6 -5 -0.06
v -5 -5 -0.06
v -6 -6 -0.06
v -7 -6 -0.06
v -7 -5 -0.06
v -6 -5 -0.06
v -12 -6 -0.06
v -13 -6 -0.06
v -13 -5 -0.06
v -12 -5 -0.06
v -13 -6 -0.06
v -14 -6 -0.06
v -14 -5 -0.06
v -13 -5 -0.06
v -6 -7 -0.07
v -7 -7 -0.07
v -7 -6 -0.07
v -6 -6 -0.07
v -7 -7 -0.07
v -8 -7 -0.07
v -8 -6 -0.07
v -7 -6 -0.07
v -8 -7 -0.07
v -9 -7 -0.07
v -9 -6 -0.07
v -8 -6 -0.07
v -9 -7 -0.07
v -10 -7 -0.07
v -10 -6 -0.07
v -9 -6 -0.07
v -10 -7 -0.07
v -11 -7 -0.07
v -11 -6 -0.07
v -10 -6 -0.07
v -11 -7 -0.07
v -12 -7 -0.07
v -12 -6 -0.07
v -11 -6 -0.07
v -12 -7 -0.07
v -13 -7 -0.07
v -13 -6 -0.07
v -12 -6 -0.07

# Texture cooridinates (Count = 28)
vt 0.44 0.24
vt 0.48 0.24
vt 0.48 0.28
vt 0.44 0.28
vt 0.36 0.2
vt 0.4 0.2
vt 0.4 0.24
vt 0.36 0.24
vt 0.36 0.28
vt 0.4 0.28
vt 0.4 0.32
vt 0.36 0.32
vt 0.48 0.32
vt 0.44 0.32
vt 0.44 0.2
vt 0.48 0.2
vt 0.2 0.32
vt 0.24 0.32
vt 0.24 0.36
vt 0.2 0.36
vt 0.16 0.32
vt 0.16 0.36
vt 0.2 0.28
vt 0.24 0.28
vt 0.16 0.28
vt 0.2 0.24
vt 0.24 0.24
vt 0.16 0.24

# Normal
vn 0 0 -1

# Mesh description
g sunrise_mesh_0161

# Faces
f 1/1/1 2/2/1 3/3/1 4/4/1
f 5/5/1 6/6/1 7/7/1 8/8/1
f 9/9/1 10/10/1 11/11/1 12/12/1
f 13/4/1 14/3/1 15/13/1 16/14/1
f 17/15/1 18/16/1 19/2/1 20/1/1
f 21/6/1 22/15/1 23/1/1 24/7/1
f 25/6/1 26/15/1 27/1/1 28/7/1
f 29/15/1 30/16/1 31/2/1 32/1/1
f 33/8/1 34/7/1 35/10/1 36/9/1
f 37/1/1 38/2/1 39/3/1 40/4/1
f 41/8/1 42/7/1 43/10/1 44/9/1
f 45/17/1 46/18/1 47/19/1 48/20/1
f 49/21/1 50/17/1 51/20/1 52/22/1
f 53/1/1 54/2/1 55/3/1 56/4/1
f 57/8/1 58/7/1 59/10/1 60/9/1
f 61/23/1 62/24/1 63/18/1 64/17/1
f 65/25/1 66/23/1 67/17/1 68/21/1
f 69/1/1 70/2/1 71/3/1 72/4/1
f 73/8/1 74/7/1 75/10/1 76/9/1
f 77/26/1 78/27/1 79/24/1 80/23/1
f 81/28/1 82/26/1 83/23/1 84/25/1
f 85/1/1 86/2/1 87/3/1 88/4/1
f 89/5/1 90/6/1 91/7/1 92/8/1
f 93/9/1 94/10/1 95/11/1 96/12/1
f 97/4/1 98/3/1 99/13/1 100/14/1
f 101/15/1 102/16/1 103/2/1 104/1/1
f 105/5/1 106/6/1 107/7/1 108/8/1
f 109/6/1 110/15/1 111/1/1 112/7/1
f 113/6/1 114/15/1 115/1/1 116/7/1
f 117/6/1 118/15/1 119/1/1 120/7/1
f 121/6/1 122/15/1 123/1/1 124/7/1
f 125/6/1 126/15/1 127/1/1 128/7/1
f 129/15/1 130/16/1 131/2/1 132/1/1

