# Tiled2Unity generated file. Do not modify by hand.
# Wavefront file for 'sunrise_mesh_0109.obj'

# Vertices (Count = 248)
v -15 -4 -0.04
v -16 -4 -0.04
v -16 -3 -0.04
v -15 -3 -0.04
v -6 -5 -0.05
v -7 -5 -0.05
v -7 -4 -0.05
v -6 -4 -0.05
v -7 -5 -0.05
v -8 -5 -0.05
v -8 -4 -0.05
v -7 -4 -0.05
v -8 -5 -0.05
v -9 -5 -0.05
v -9 -4 -0.05
v -8 -4 -0.05
v -9 -5 -0.05
v -10 -5 -0.05
v -10 -4 -0.05
v -9 -4 -0.05
v -12 -5 -0.05
v -13 -5 -0.05
v -13 -4 -0.05
v -12 -4 -0.05
v -13 -5 -0.05
v -14 -5 -0.05
v -14 -4 -0.05
v -13 -4 -0.05
v -14 -5 -0.05
v -15 -5 -0.05
v -15 -4 -0.05
v -14 -4 -0.05
v -15 -5 -0.05
v -16 -5 -0.05
v -16 -4 -0.05
v -15 -4 -0.05
v -6 -6 -0.06
v -7 -6 -0.06
v -7 -5 -0.06
v -6 -5 -0.06
v -7 -6 -0.06
v -8 -6 -0.06
v -8 -5 -0.06
v -7 -5 -0.06
v -8 -6 -0.06
v -9 -6 -0.06
v -9 -5 -0.06
v -8 -5 -0.06
v -9 -6 -0.06
v -10 -6 -0.06
v -10 -5 -0.06
v -9 -5 -0.06
v -10 -6 -0.06
v -11 -6 -0.06
v -11 -5 -0.06
v -10 -5 -0.06
v -11 -6 -0.06
v -12 -6 -0.06
v -12 -5 -0.06
v -11 -5 -0.06
v -12 -6 -0.06
v -13 -6 -0.06
v -13 -5 -0.06
v -12 -5 -0.06
v -13 -6 -0.06
v -14 -6 -0.06
v -14 -5 -0.06
v -13 -5 -0.06
v -14 -6 -0.06
v -15 -6 -0.06
v -15 -5 -0.06
v -14 -5 -0.06
v -15 -6 -0.06
v -16 -6 -0.06
v -16 -5 -0.06
v -15 -5 -0.06
v -3 -7 -0.07
v -4 -7 -0.07
v -4 -6 -0.07
v -3 -6 -0.07
v -4 -7 -0.07
v -5 -7 -0.07
v -5 -6 -0.07
v -4 -6 -0.07
v -5 -7 -0.07
v -6 -7 -0.07
v -6 -6 -0.07
v -5 -6 -0.07
v -6 -7 -0.07
v -7 -7 -0.07
v -7 -6 -0.07
v -6 -6 -0.07
v -7 -7 -0.07
v -8 -7 -0.07
v -8 -6 -0.07
v -7 -6 -0.07
v -8 -7 -0.07
v -9 -7 -0.07
v -9 -6 -0.07
v -8 -6 -0.07
v -9 -7 -0.07
v -10 -7 -0.07
v -10 -6 -0.07
v -9 -6 -0.07
v -10 -7 -0.07
v -11 -7 -0.07
v -11 -6 -0.07
v -10 -6 -0.07
v -11 -7 -0.07
v -12 -7 -0.07
v -12 -6 -0.07
v -11 -6 -0.07
v -12 -7 -0.07
v -13 -7 -0.07
v -13 -6 -0.07
v -12 -6 -0.07
v -13 -7 -0.07
v -14 -7 -0.07
v -14 -6 -0.07
v -13 -6 -0.07
v -14 -7 -0.07
v -15 -7 -0.07
v -15 -6 -0.07
v -14 -6 -0.07
v -15 -7 -0.07
v -16 -7 -0.07
v -16 -6 -0.07
v -15 -6 -0.07
v -3 -8 -0.08
v -4 -8 -0.08
v -4 -7 -0.08
v -3 -7 -0.08
v -4 -8 -0.08
v -5 -8 -0.08
v -5 -7 -0.08
v -4 -7 -0.08
v -5 -8 -0.08
v -6 -8 -0.08
v -6 -7 -0.08
v -5 -7 -0.08
v -6 -8 -0.08
v -7 -8 -0.08
v -7 -7 -0.08
v -6 -7 -0.08
v -9 -8 -0.08
v -10 -8 -0.08
v -10 -7 -0.08
v -9 -7 -0.08
v -10 -8 -0.08
v -11 -8 -0.08
v -11 -7 -0.08
v -10 -7 -0.08
v -11 -8 -0.08
v -12 -8 -0.08
v -12 -7 -0.08
v -11 -7 -0.08
v -12 -8 -0.08
v -13 -8 -0.08
v -13 -7 -0.08
v -12 -7 -0.08
v -2 -9 -0.09
v -3 -9 -0.09
v -3 -8 -0.09
v -2 -8 -0.09
v -3 -9 -0.09
v -4 -9 -0.09
v -4 -8 -0.09
v -3 -8 -0.09
v -4 -9 -0.09
v -5 -9 -0.09
v -5 -8 -0.09
v -4 -8 -0.09
v -5 -9 -0.09
v -6 -9 -0.09
v -6 -8 -0.09
v -5 -8 -0.09
v -2 -10 -0.1
v -3 -10 -0.1
v -3 -9 -0.1
v -2 -9 -0.1
v -3 -10 -0.1
v -4 -10 -0.1
v -4 -9 -0.1
v -3 -9 -0.1
v -4 -10 -0.1
v -5 -10 -0.1
v -5 -9 -0.1
v -4 -9 -0.1
v -5 -10 -0.1
v -6 -10 -0.1
v -6 -9 -0.1
v -5 -9 -0.1
v -2 -11 -0.11
v -3 -11 -0.11
v -3 -10 -0.11
v -2 -10 -0.11
v -15 -11 -0.11
v -16 -11 -0.11
v -16 -10 -0.11
v -15 -10 -0.11
v -2 -12 -0.12
v -3 -12 -0.12
v -3 -11 -0.12
v -2 -11 -0.12
v -2 -13 -0.13
v -3 -13 -0.13
v -3 -12 -0.13
v -2 -12 -0.13
v -1 -14 -0.14
v -2 -14 -0.14
v -2 -13 -0.14
v -1 -13 -0.14
v -2 -14 -0.14
v -3 -14 -0.14
v -3 -13 -0.14
v -2 -13 -0.14
v 0 -15 -0.15
v -1 -15 -0.15
v -1 -14 -0.15
v 0 -14 -0.15
v -1 -15 -0.15
v -2 -15 -0.15
v -2 -14 -0.15
v -1 -14 -0.15
v -2 -15 -0.15
v -3 -15 -0.15
v -3 -14 -0.15
v -2 -14 -0.15
v -8 -15 -0.15
v -9 -15 -0.15
v -9 -14 -0.15
v -8 -14 -0.15
v 0 -16 -0.16
v -1 -16 -0.16
v -1 -15 -0.16
v 0 -15 -0.16
v -1 -16 -0.16
v -2 -16 -0.16
v -2 -15 -0.16
v -1 -15 -0.16
v -2 -16 -0.16
v -3 -16 -0.16
v -3 -15 -0.16
v -2 -15 -0.16
v -8 -16 -0.16
v -9 -16 -0.16
v -9 -15 -0.16
v -8 -15 -0.16

# Texture cooridinates (Count = 31)
vt 0.04 0.32
vt 0.08 0.32
vt 0.08 0.36
vt 0.04 0.36
vt 0.16 0.44
vt 0.2 0.44
vt 0.2 0.48
vt 0.16 0.48
vt 0.24 0.44
vt 0.24 0.48
vt 0 0.32
vt 0 0.36
vt 0.04 0.28
vt 0.08 0.28
vt 0.16 0.4
vt 0.2 0.4
vt 0.24 0.4
vt 0 0.28
vt 0.04 0.24
vt 0.08 0.24
vt 0.16 0.36
vt 0.2 0.36
vt 0.24 0.36
vt 0 0.24
vt 0.04 0.2
vt 0.08 0.2
vt 0 0.2
vt 0.2 0.76
vt 0.24 0.76
vt 0.24 0.8
vt 0.2 0.8

# Normal
vn 0 0 -1

# Mesh description
g sunrise_mesh_0109

# Faces
f 1/1/1 2/2/1 3/3/1 4/4/1
f 5/1/1 6/2/1 7/3/1 8/4/1
f 9/5/1 10/6/1 11/7/1 12/8/1
f 13/6/1 14/9/1 15/10/1 16/7/1
f 17/11/1 18/1/1 19/4/1 20/12/1
f 21/1/1 22/2/1 23/3/1 24/4/1
f 25/5/1 26/6/1 27/7/1 28/8/1
f 29/6/1 30/9/1 31/10/1 32/7/1
f 33/13/1 34/14/1 35/2/1 36/1/1
f 37/13/1 38/14/1 39/2/1 40/1/1
f 41/15/1 42/16/1 43/6/1 44/5/1
f 45/16/1 46/17/1 47/9/1 48/6/1
f 49/18/1 50/13/1 51/1/1 52/11/1
f 53/5/1 54/6/1 55/7/1 56/8/1
f 57/6/1 58/9/1 59/10/1 60/7/1
f 61/13/1 62/14/1 63/2/1 64/1/1
f 65/15/1 66/16/1 67/6/1 68/5/1
f 69/16/1 70/17/1 71/9/1 72/6/1
f 73/19/1 74/20/1 75/14/1 76/13/1
f 77/1/1 78/2/1 79/3/1 80/4/1
f 81/11/1 82/1/1 83/4/1 84/12/1
f 85/1/1 86/2/1 87/3/1 88/4/1
f 89/19/1 90/20/1 91/14/1 92/13/1
f 93/21/1 94/22/1 95/16/1 96/15/1
f 97/22/1 98/23/1 99/17/1 100/16/1
f 101/24/1 102/19/1 103/13/1 104/18/1
f 105/15/1 106/16/1 107/6/1 108/5/1
f 109/16/1 110/17/1 111/9/1 112/6/1
f 113/19/1 114/20/1 115/14/1 116/13/1
f 117/21/1 118/22/1 119/16/1 120/15/1
f 121/22/1 122/23/1 123/17/1 124/16/1
f 125/25/1 126/26/1 127/20/1 128/19/1
f 129/13/1 130/14/1 131/2/1 132/1/1
f 133/18/1 134/13/1 135/1/1 136/11/1
f 137/13/1 138/14/1 139/2/1 140/1/1
f 141/25/1 142/26/1 143/20/1 144/19/1
f 145/27/1 146/25/1 147/19/1 148/24/1
f 149/21/1 150/22/1 151/16/1 152/15/1
f 153/22/1 154/23/1 155/17/1 156/16/1
f 157/25/1 158/26/1 159/20/1 160/19/1
f 161/1/1 162/2/1 163/3/1 164/4/1
f 165/19/1 166/20/1 167/14/1 168/13/1
f 169/24/1 170/19/1 171/13/1 172/18/1
f 173/19/1 174/20/1 175/14/1 176/13/1
f 177/13/1 178/14/1 179/2/1 180/1/1
f 181/25/1 182/26/1 183/20/1 184/19/1
f 185/27/1 186/25/1 187/19/1 188/24/1
f 189/25/1 190/26/1 191/20/1 192/19/1
f 193/19/1 194/20/1 195/14/1 196/13/1
f 197/28/1 198/29/1 199/30/1 200/31/1
f 201/25/1 202/26/1 203/20/1 204/19/1
f 205/1/1 206/2/1 207/3/1 208/4/1
f 209/6/1 210/9/1 211/10/1 212/7/1
f 213/13/1 214/14/1 215/2/1 216/1/1
f 217/1/1 218/2/1 219/3/1 220/4/1
f 221/16/1 222/17/1 223/9/1 224/6/1
f 225/19/1 226/20/1 227/14/1 228/13/1
f 229/11/1 230/1/1 231/4/1 232/12/1
f 233/13/1 234/14/1 235/2/1 236/1/1
f 237/22/1 238/23/1 239/17/1 240/16/1
f 241/25/1 242/26/1 243/20/1 244/19/1
f 245/18/1 246/13/1 247/1/1 248/11/1

