# Tiled2Unity generated file. Do not modify by hand.
# Wavefront file for 'sunrise_mesh_0147.obj'

# Vertices (Count = 68)
v -15 -4 -0.04
v -16 -4 -0.04
v -16 -3 -0.04
v -15 -3 -0.04
v -15 -5 -0.05
v -16 -5 -0.05
v -16 -4 -0.05
v -15 -4 -0.05
v -15 -6 -0.06
v -16 -6 -0.06
v -16 -5 -0.06
v -15 -5 -0.06
v -11 -7 -0.07
v -12 -7 -0.07
v -12 -6 -0.07
v -11 -6 -0.07
v -15 -7 -0.07
v -16 -7 -0.07
v -16 -6 -0.07
v -15 -6 -0.07
v -11 -8 -0.08
v -12 -8 -0.08
v -12 -7 -0.08
v -11 -7 -0.08
v -11 -9 -0.09
v -12 -9 -0.09
v -12 -8 -0.09
v -11 -8 -0.09
v -11 -10 -0.1
v -12 -10 -0.1
v -12 -9 -0.1
v -11 -9 -0.1
v -12 -10 -0.1
v -13 -10 -0.1
v -13 -9 -0.1
v -12 -9 -0.1
v -12 -11 -0.11
v -13 -11 -0.11
v -13 -10 -0.11
v -12 -10 -0.11
v -13 -11 -0.11
v -14 -11 -0.11
v -14 -10 -0.11
v -13 -10 -0.11
v -13 -12 -0.12
v -14 -12 -0.12
v -14 -11 -0.12
v -13 -11 -0.12
v -13 -13 -0.13
v -14 -13 -0.13
v -14 -12 -0.13
v -13 -12 -0.13
v -13 -14 -0.14
v -14 -14 -0.14
v -14 -13 -0.14
v -13 -13 -0.14
v -14 -14 -0.14
v -15 -14 -0.14
v -15 -13 -0.14
v -14 -13 -0.14
v -14 -15 -0.15
v -15 -15 -0.15
v -15 -14 -0.15
v -14 -14 -0.15
v -14 -16 -0.16
v -15 -16 -0.16
v -15 -15 -0.16
v -14 -15 -0.16

# Texture cooridinates (Count = 16)
vt 0.36 0.24
vt 0.4 0.24
vt 0.4 0.28
vt 0.36 0.28
vt 0.12 0.32
vt 0.16 0.32
vt 0.16 0.36
vt 0.12 0.36
vt 0.12 0.28
vt 0.16 0.28
vt 0.12 0.24
vt 0.16 0.24
vt 0.36 0.2
vt 0.4 0.2
vt 0.4 0.32
vt 0.36 0.32

# Normal
vn 0 0 -1

# Mesh description
g sunrise_mesh_0147

# Faces
f 1/1/1 2/2/1 3/3/1 4/4/1
f 5/5/1 6/6/1 7/7/1 8/8/1
f 9/9/1 10/10/1 11/6/1 12/5/1
f 13/1/1 14/2/1 15/3/1 16/4/1
f 17/11/1 18/12/1 19/10/1 20/9/1
f 21/1/1 22/2/1 23/3/1 24/4/1
f 25/1/1 26/2/1 27/3/1 28/4/1
f 29/13/1 30/14/1 31/2/1 32/1/1
f 33/4/1 34/3/1 35/15/1 36/16/1
f 37/13/1 38/14/1 39/2/1 40/1/1
f 41/4/1 42/3/1 43/15/1 44/16/1
f 45/1/1 46/2/1 47/3/1 48/4/1
f 49/1/1 50/2/1 51/3/1 52/4/1
f 53/13/1 54/14/1 55/2/1 56/1/1
f 57/4/1 58/3/1 59/15/1 60/16/1
f 61/1/1 62/2/1 63/3/1 64/4/1
f 65/1/1 66/2/1 67/3/1 68/4/1

