# Tiled2Unity generated file. Do not modify by hand.
# Wavefront file for 'sunrise_mesh_0154.obj'

# Vertices (Count = 192)
v 0 -1 -0.01
v -1 -1 -0.01
v -1 0 -0.01
v 0 0 -0.01
v -1 -1 -0.01
v -2 -1 -0.01
v -2 0 -0.01
v -1 0 -0.01
v -6 -1 -0.01
v -7 -1 -0.01
v -7 0 -0.01
v -6 0 -0.01
v -7 -1 -0.01
v -8 -1 -0.01
v -8 0 -0.01
v -7 0 -0.01
v 0 -2 -0.02
v -1 -2 -0.02
v -1 -1 -0.02
v 0 -1 -0.02
v -2 -2 -0.02
v -3 -2 -0.02
v -3 -1 -0.02
v -2 -1 -0.02
v -5 -2 -0.02
v -6 -2 -0.02
v -6 -1 -0.02
v -5 -1 -0.02
v -6 -2 -0.02
v -7 -2 -0.02
v -7 -1 -0.02
v -6 -1 -0.02
v 0 -3 -0.03
v -1 -3 -0.03
v -1 -2 -0.03
v 0 -2 -0.03
v -5 -3 -0.03
v -6 -3 -0.03
v -6 -2 -0.03
v -5 -2 -0.03
v 0 -4 -0.04
v -1 -4 -0.04
v -1 -3 -0.04
v 0 -3 -0.04
v -3 -4 -0.04
v -4 -4 -0.04
v -4 -3 -0.04
v -3 -3 -0.04
v -4 -4 -0.04
v -5 -4 -0.04
v -5 -3 -0.04
v -4 -3 -0.04
v -5 -4 -0.04
v -6 -4 -0.04
v -6 -3 -0.04
v -5 -3 -0.04
v -7 -4 -0.04
v -8 -4 -0.04
v -8 -3 -0.04
v -7 -3 -0.04
v -5 -5 -0.05
v -6 -5 -0.05
v -6 -4 -0.05
v -5 -4 -0.05
v -7 -5 -0.05
v -8 -5 -0.05
v -8 -4 -0.05
v -7 -4 -0.05
v -5 -6 -0.06
v -6 -6 -0.06
v -6 -5 -0.06
v -5 -5 -0.06
v -7 -6 -0.06
v -8 -6 -0.06
v -8 -5 -0.06
v -7 -5 -0.06
v -8 -6 -0.06
v -9 -6 -0.06
v -9 -5 -0.06
v -8 -5 -0.06
v -7 -7 -0.07
v -8 -7 -0.07
v -8 -6 -0.07
v -7 -6 -0.07
v -8 -7 -0.07
v -9 -7 -0.07
v -9 -6 -0.07
v -8 -6 -0.07
v -8 -8 -0.08
v -9 -8 -0.08
v -9 -7 -0.08
v -8 -7 -0.08
v -8 -9 -0.09
v -9 -9 -0.09
v -9 -8 -0.09
v -8 -8 -0.09
v -9 -9 -0.09
v -10 -9 -0.09
v -10 -8 -0.09
v -9 -8 -0.09
v -8 -10 -0.1
v -9 -10 -0.1
v -9 -9 -0.1
v -8 -9 -0.1
v -9 -10 -0.1
v -10 -10 -0.1
v -10 -9 -0.1
v -9 -9 -0.1
v -9 -11 -0.11
v -10 -11 -0.11
v -10 -10 -0.11
v -9 -10 -0.11
v 0 -12 -0.12
v -1 -12 -0.12
v -1 -11 -0.12
v 0 -11 -0.12
v -9 -12 -0.12
v -10 -12 -0.12
v -10 -11 -0.12
v -9 -11 -0.12
v -11 -12 -0.12
v -12 -12 -0.12
v -12 -11 -0.12
v -11 -11 -0.12
v 0 -13 -0.13
v -1 -13 -0.13
v -1 -12 -0.13
v 0 -12 -0.13
v -1 -13 -0.13
v -2 -13 -0.13
v -2 -12 -0.13
v -1 -12 -0.13
v -9 -13 -0.13
v -10 -13 -0.13
v -10 -12 -0.13
v -9 -12 -0.13
v -11 -13 -0.13
v -12 -13 -0.13
v -12 -12 -0.13
v -11 -12 -0.13
v -10 -14 -0.14
v -11 -14 -0.14
v -11 -13 -0.14
v -10 -13 -0.14
v -11 -14 -0.14
v -12 -14 -0.14
v -12 -13 -0.14
v -11 -13 -0.14
v 0 -15 -0.15
v -1 -15 -0.15
v -1 -14 -0.15
v 0 -14 -0.15
v -9 -15 -0.15
v -10 -15 -0.15
v -10 -14 -0.15
v -9 -14 -0.15
v -10 -15 -0.15
v -11 -15 -0.15
v -11 -14 -0.15
v -10 -14 -0.15
v 0 -16 -0.16
v -1 -16 -0.16
v -1 -15 -0.16
v 0 -15 -0.16
v -1 -16 -0.16
v -2 -16 -0.16
v -2 -15 -0.16
v -1 -15 -0.16
v -2 -16 -0.16
v -3 -16 -0.16
v -3 -15 -0.16
v -2 -15 -0.16
v -5 -16 -0.16
v -6 -16 -0.16
v -6 -15 -0.16
v -5 -15 -0.16
v -6 -16 -0.16
v -7 -16 -0.16
v -7 -15 -0.16
v -6 -15 -0.16
v -7 -16 -0.16
v -8 -16 -0.16
v -8 -15 -0.16
v -7 -15 -0.16
v -8 -16 -0.16
v -9 -16 -0.16
v -9 -15 -0.16
v -8 -15 -0.16
v -9 -16 -0.16
v -10 -16 -0.16
v -10 -15 -0.16
v -9 -15 -0.16

# Texture cooridinates (Count = 32)
vt 0.36 0.24
vt 0.4 0.24
vt 0.4 0.28
vt 0.36 0.28
vt 0.12 0.24
vt 0.16 0.24
vt 0.16 0.28
vt 0.12 0.28
vt 0.44 0.28
vt 0.48 0.28
vt 0.48 0.32
vt 0.44 0.32
vt 0.44 0.2
vt 0.48 0.2
vt 0.48 0.24
vt 0.44 0.24
vt 0.12 0.32
vt 0.16 0.32
vt 0.16 0.36
vt 0.12 0.36
vt 0.2 0.76
vt 0.24 0.76
vt 0.24 0.8
vt 0.2 0.8
vt 0.08 0.32
vt 0.08 0.36
vt 0.08 0.28
vt 0.08 0.24
vt 0.4 0.32
vt 0.36 0.32
vt 0.36 0.2
vt 0.4 0.2

# Normal
vn 0 0 -1

# Mesh description
g sunrise_mesh_0154

# Faces
f 1/1/1 2/2/1 3/3/1 4/4/1
f 5/5/1 6/6/1 7/7/1 8/8/1
f 9/9/1 10/10/1 11/11/1 12/12/1
f 13/13/1 14/14/1 15/15/1 16/16/1
f 17/17/1 18/18/1 19/19/1 20/20/1
f 21/21/1 22/22/1 23/23/1 24/24/1
f 25/9/1 26/10/1 27/11/1 28/12/1
f 29/13/1 30/14/1 31/15/1 32/16/1
f 33/8/1 34/7/1 35/18/1 36/17/1
f 37/16/1 38/15/1 39/10/1 40/9/1
f 41/5/1 42/6/1 43/7/1 44/8/1
f 45/21/1 46/22/1 47/23/1 48/24/1
f 49/21/1 50/22/1 51/23/1 52/24/1
f 53/25/1 54/17/1 55/20/1 56/26/1
f 57/16/1 58/15/1 59/10/1 60/9/1
f 61/27/1 62/8/1 63/17/1 64/25/1
f 65/25/1 66/17/1 67/20/1 68/26/1
f 69/28/1 70/5/1 71/8/1 72/27/1
f 73/27/1 74/8/1 75/17/1 76/25/1
f 77/16/1 78/15/1 79/10/1 80/9/1
f 81/28/1 82/5/1 83/8/1 84/27/1
f 85/16/1 86/15/1 87/10/1 88/9/1
f 89/25/1 90/17/1 91/20/1 92/26/1
f 93/27/1 94/8/1 95/17/1 96/25/1
f 97/16/1 98/15/1 99/10/1 100/9/1
f 101/28/1 102/5/1 103/8/1 104/27/1
f 105/16/1 106/15/1 107/10/1 108/9/1
f 109/25/1 110/17/1 111/20/1 112/26/1
f 113/4/1 114/3/1 115/29/1 116/30/1
f 117/27/1 118/8/1 119/17/1 120/25/1
f 121/16/1 122/15/1 123/10/1 124/9/1
f 125/31/1 126/32/1 127/2/1 128/1/1
f 129/4/1 130/3/1 131/29/1 132/30/1
f 133/28/1 134/5/1 135/8/1 136/27/1
f 137/16/1 138/15/1 139/10/1 140/9/1
f 141/9/1 142/10/1 143/11/1 144/12/1
f 145/13/1 146/14/1 147/15/1 148/16/1
f 149/1/1 150/2/1 151/3/1 152/4/1
f 153/9/1 154/10/1 155/11/1 156/12/1
f 157/13/1 158/14/1 159/15/1 160/16/1
f 161/31/1 162/32/1 163/2/1 164/1/1
f 165/32/1 166/13/1 167/16/1 168/2/1
f 169/4/1 170/3/1 171/29/1 172/30/1
f 173/9/1 174/10/1 175/11/1 176/12/1
f 177/32/1 178/13/1 179/16/1 180/2/1
f 181/32/1 182/13/1 183/16/1 184/2/1
f 185/32/1 186/13/1 187/16/1 188/2/1
f 189/13/1 190/14/1 191/15/1 192/16/1

