# Tiled2Unity generated file. Do not modify by hand.
# Wavefront file for 'sunrise_mesh_0019.obj'

# Vertices (Count = 396)
v -6 -1 -0.01
v -7 -1 -0.01
v -7 0 -0.01
v -6 0 -0.01
v -7 -1 -0.01
v -8 -1 -0.01
v -8 0 -0.01
v -7 0 -0.01
v -8 -1 -0.01
v -9 -1 -0.01
v -9 0 -0.01
v -8 0 -0.01
v -9 -1 -0.01
v -10 -1 -0.01
v -10 0 -0.01
v -9 0 -0.01
v -10 -1 -0.01
v -11 -1 -0.01
v -11 0 -0.01
v -10 0 -0.01
v -11 -1 -0.01
v -12 -1 -0.01
v -12 0 -0.01
v -11 0 -0.01
v -12 -1 -0.01
v -13 -1 -0.01
v -13 0 -0.01
v -12 0 -0.01
v -7 -2 -0.02
v -8 -2 -0.02
v -8 -1 -0.02
v -7 -1 -0.02
v -8 -2 -0.02
v -9 -2 -0.02
v -9 -1 -0.02
v -8 -1 -0.02
v -9 -2 -0.02
v -10 -2 -0.02
v -10 -1 -0.02
v -9 -1 -0.02
v -10 -2 -0.02
v -11 -2 -0.02
v -11 -1 -0.02
v -10 -1 -0.02
v -11 -2 -0.02
v -12 -2 -0.02
v -12 -1 -0.02
v -11 -1 -0.02
v -7 -3 -0.03
v -8 -3 -0.03
v -8 -2 -0.03
v -7 -2 -0.03
v -8 -3 -0.03
v -9 -3 -0.03
v -9 -2 -0.03
v -8 -2 -0.03
v -9 -3 -0.03
v -10 -3 -0.03
v -10 -2 -0.03
v -9 -2 -0.03
v -10 -3 -0.03
v -11 -3 -0.03
v -11 -2 -0.03
v -10 -2 -0.03
v -11 -3 -0.03
v -12 -3 -0.03
v -12 -2 -0.03
v -11 -2 -0.03
v -6 -4 -0.04
v -7 -4 -0.04
v -7 -3 -0.04
v -6 -3 -0.04
v -7 -4 -0.04
v -8 -4 -0.04
v -8 -3 -0.04
v -7 -3 -0.04
v -8 -4 -0.04
v -9 -4 -0.04
v -9 -3 -0.04
v -8 -3 -0.04
v -9 -4 -0.04
v -10 -4 -0.04
v -10 -3 -0.04
v -9 -3 -0.04
v -10 -4 -0.04
v -11 -4 -0.04
v -11 -3 -0.04
v -10 -3 -0.04
v -11 -4 -0.04
v -12 -4 -0.04
v -12 -3 -0.04
v -11 -3 -0.04
v -12 -4 -0.04
v -13 -4 -0.04
v -13 -3 -0.04
v -12 -3 -0.04
v -6 -5 -0.05
v -7 -5 -0.05
v -7 -4 -0.05
v -6 -4 -0.05
v -7 -5 -0.05
v -8 -5 -0.05
v -8 -4 -0.05
v -7 -4 -0.05
v -8 -5 -0.05
v -9 -5 -0.05
v -9 -4 -0.05
v -8 -4 -0.05
v -9 -5 -0.05
v -10 -5 -0.05
v -10 -4 -0.05
v -9 -4 -0.05
v -10 -5 -0.05
v -11 -5 -0.05
v -11 -4 -0.05
v -10 -4 -0.05
v -11 -5 -0.05
v -12 -5 -0.05
v -12 -4 -0.05
v -11 -4 -0.05
v -12 -5 -0.05
v -13 -5 -0.05
v -13 -4 -0.05
v -12 -4 -0.05
v -6 -6 -0.06
v -7 -6 -0.06
v -7 -5 -0.06
v -6 -5 -0.06
v -7 -6 -0.06
v -8 -6 -0.06
v -8 -5 -0.06
v -7 -5 -0.06
v -8 -6 -0.06
v -9 -6 -0.06
v -9 -5 -0.06
v -8 -5 -0.06
v -9 -6 -0.06
v -10 -6 -0.06
v -10 -5 -0.06
v -9 -5 -0.06
v -10 -6 -0.06
v -11 -6 -0.06
v -11 -5 -0.06
v -10 -5 -0.06
v -11 -6 -0.06
v -12 -6 -0.06
v -12 -5 -0.06
v -11 -5 -0.06
v -12 -6 -0.06
v -13 -6 -0.06
v -13 -5 -0.06
v -12 -5 -0.06
v -6 -7 -0.07
v -7 -7 -0.07
v -7 -6 -0.07
v -6 -6 -0.07
v -7 -7 -0.07
v -8 -7 -0.07
v -8 -6 -0.07
v -7 -6 -0.07
v -8 -7 -0.07
v -9 -7 -0.07
v -9 -6 -0.07
v -8 -6 -0.07
v -9 -7 -0.07
v -10 -7 -0.07
v -10 -6 -0.07
v -9 -6 -0.07
v -10 -7 -0.07
v -11 -7 -0.07
v -11 -6 -0.07
v -10 -6 -0.07
v -11 -7 -0.07
v -12 -7 -0.07
v -12 -6 -0.07
v -11 -6 -0.07
v -12 -7 -0.07
v -13 -7 -0.07
v -13 -6 -0.07
v -12 -6 -0.07
v -6 -8 -0.08
v -7 -8 -0.08
v -7 -7 -0.08
v -6 -7 -0.08
v -7 -8 -0.08
v -8 -8 -0.08
v -8 -7 -0.08
v -7 -7 -0.08
v -8 -8 -0.08
v -9 -8 -0.08
v -9 -7 -0.08
v -8 -7 -0.08
v -9 -8 -0.08
v -10 -8 -0.08
v -10 -7 -0.08
v -9 -7 -0.08
v -10 -8 -0.08
v -11 -8 -0.08
v -11 -7 -0.08
v -10 -7 -0.08
v -11 -8 -0.08
v -12 -8 -0.08
v -12 -7 -0.08
v -11 -7 -0.08
v -12 -8 -0.08
v -13 -8 -0.08
v -13 -7 -0.08
v -12 -7 -0.08
v -6 -9 -0.09
v -7 -9 -0.09
v -7 -8 -0.09
v -6 -8 -0.09
v -8 -9 -0.09
v -9 -9 -0.09
v -9 -8 -0.09
v -8 -8 -0.09
v -9 -9 -0.09
v -10 -9 -0.09
v -10 -8 -0.09
v -9 -8 -0.09
v -10 -9 -0.09
v -11 -9 -0.09
v -11 -8 -0.09
v -10 -8 -0.09
v -12 -9 -0.09
v -13 -9 -0.09
v -13 -8 -0.09
v -12 -8 -0.09
v -6 -10 -0.1
v -7 -10 -0.1
v -7 -9 -0.1
v -6 -9 -0.1
v -8 -10 -0.1
v -9 -10 -0.1
v -9 -9 -0.1
v -8 -9 -0.1
v -9 -10 -0.1
v -10 -10 -0.1
v -10 -9 -0.1
v -9 -9 -0.1
v -10 -10 -0.1
v -11 -10 -0.1
v -11 -9 -0.1
v -10 -9 -0.1
v -12 -10 -0.1
v -13 -10 -0.1
v -13 -9 -0.1
v -12 -9 -0.1
v -6 -11 -0.11
v -7 -11 -0.11
v -7 -10 -0.11
v -6 -10 -0.11
v -12 -11 -0.11
v -13 -11 -0.11
v -13 -10 -0.11
v -12 -10 -0.11
v -13 -11 -0.11
v -14 -11 -0.11
v -14 -10 -0.11
v -13 -10 -0.11
v -6 -12 -0.12
v -7 -12 -0.12
v -7 -11 -0.12
v -6 -11 -0.12
v -12 -12 -0.12
v -13 -12 -0.12
v -13 -11 -0.12
v -12 -11 -0.12
v -13 -12 -0.12
v -14 -12 -0.12
v -14 -11 -0.12
v -13 -11 -0.12
v 0 -13 -0.13
v -1 -13 -0.13
v -1 -12 -0.13
v 0 -12 -0.13
v -1 -13 -0.13
v -2 -13 -0.13
v -2 -12 -0.13
v -1 -12 -0.13
v -2 -13 -0.13
v -3 -13 -0.13
v -3 -12 -0.13
v -2 -12 -0.13
v -5 -13 -0.13
v -6 -13 -0.13
v -6 -12 -0.13
v -5 -12 -0.13
v -6 -13 -0.13
v -7 -13 -0.13
v -7 -12 -0.13
v -6 -12 -0.13
v -12 -13 -0.13
v -13 -13 -0.13
v -13 -12 -0.13
v -12 -12 -0.13
v -13 -13 -0.13
v -14 -13 -0.13
v -14 -12 -0.13
v -13 -12 -0.13
v 0 -14 -0.14
v -1 -14 -0.14
v -1 -13 -0.14
v 0 -13 -0.14
v -1 -14 -0.14
v -2 -14 -0.14
v -2 -13 -0.14
v -1 -13 -0.14
v -2 -14 -0.14
v -3 -14 -0.14
v -3 -13 -0.14
v -2 -13 -0.14
v -3 -14 -0.14
v -4 -14 -0.14
v -4 -13 -0.14
v -3 -13 -0.14
v -4 -14 -0.14
v -5 -14 -0.14
v -5 -13 -0.14
v -4 -13 -0.14
v -5 -14 -0.14
v -6 -14 -0.14
v -6 -13 -0.14
v -5 -13 -0.14
v -6 -14 -0.14
v -7 -14 -0.14
v -7 -13 -0.14
v -6 -13 -0.14
v -8 -14 -0.14
v -9 -14 -0.14
v -9 -13 -0.14
v -8 -13 -0.14
v -12 -14 -0.14
v -13 -14 -0.14
v -13 -13 -0.14
v -12 -13 -0.14
v -13 -14 -0.14
v -14 -14 -0.14
v -14 -13 -0.14
v -13 -13 -0.14
v 0 -15 -0.15
v -1 -15 -0.15
v -1 -14 -0.15
v 0 -14 -0.15
v -1 -15 -0.15
v -2 -15 -0.15
v -2 -14 -0.15
v -1 -14 -0.15
v -2 -15 -0.15
v -3 -15 -0.15
v -3 -14 -0.15
v -2 -14 -0.15
v -3 -15 -0.15
v -4 -15 -0.15
v -4 -14 -0.15
v -3 -14 -0.15
v -4 -15 -0.15
v -5 -15 -0.15
v -5 -14 -0.15
v -4 -14 -0.15
v -5 -15 -0.15
v -6 -15 -0.15
v -6 -14 -0.15
v -5 -14 -0.15
v -13 -15 -0.15
v -14 -15 -0.15
v -14 -14 -0.15
v -13 -14 -0.15
v 0 -16 -0.16
v -1 -16 -0.16
v -1 -15 -0.16
v 0 -15 -0.16
v -1 -16 -0.16
v -2 -16 -0.16
v -2 -15 -0.16
v -1 -15 -0.16
v -2 -16 -0.16
v -3 -16 -0.16
v -3 -15 -0.16
v -2 -15 -0.16
v -3 -16 -0.16
v -4 -16 -0.16
v -4 -15 -0.16
v -3 -15 -0.16
v -4 -16 -0.16
v -5 -16 -0.16
v -5 -15 -0.16
v -4 -15 -0.16
v -5 -16 -0.16
v -6 -16 -0.16
v -6 -15 -0.16
v -5 -15 -0.16
v -13 -16 -0.16
v -14 -16 -0.16
v -14 -15 -0.16
v -13 -15 -0.16

# Texture cooridinates (Count = 28)
vt 0.2 0.16
vt 0.24 0.16
vt 0.24 0.2
vt 0.2 0.2
vt 0 0.04000002
vt 0.04 0.04000002
vt 0.04 0.07999998
vt 0 0.07999998
vt 0.08 0.04000002
vt 0.08 0.07999998
vt 0 0.16
vt 0.04 0.16
vt 0.04 0.2
vt 0 0.2
vt 0.08 0.16
vt 0.08 0.2
vt 0.08 0
vt 0.12 0
vt 0.12 0.04000002
vt 0.04 0.12
vt 0.08 0.12
vt 0.12 0.07999998
vt 0.04 0
vt 0 0.12
vt 0.12 0.12
vt 0 0
vt 0.12 0.16
vt 0.12 0.2

# Normal
vn 0 0 -1

# Mesh description
g sunrise_mesh_0019

# Faces
f 1/1/1 2/2/1 3/3/1 4/4/1
f 5/5/1 6/6/1 7/7/1 8/8/1
f 9/6/1 10/9/1 11/10/1 12/7/1
f 13/11/1 14/12/1 15/13/1 16/14/1
f 17/12/1 18/15/1 19/16/1 20/13/1
f 21/11/1 22/12/1 23/13/1 24/14/1
f 25/17/1 26/18/1 27/19/1 28/9/1
f 29/20/1 30/21/1 31/15/1 32/12/1
f 33/11/1 34/12/1 35/13/1 36/14/1
f 37/17/1 38/18/1 39/19/1 40/9/1
f 41/5/1 42/6/1 43/7/1 44/8/1
f 45/9/1 46/19/1 47/22/1 48/10/1
f 49/23/1 50/17/1 51/9/1 52/6/1
f 53/17/1 54/18/1 55/19/1 56/9/1
f 57/8/1 58/7/1 59/20/1 60/24/1
f 61/20/1 62/21/1 63/15/1 64/12/1
f 65/9/1 66/19/1 67/22/1 68/10/1
f 69/24/1 70/20/1 71/12/1 72/11/1
f 73/10/1 74/22/1 75/25/1 76/21/1
f 77/1/1 78/2/1 79/3/1 80/4/1
f 81/26/1 82/23/1 83/6/1 84/5/1
f 85/12/1 86/15/1 87/16/1 88/13/1
f 89/24/1 90/20/1 91/12/1 92/11/1
f 93/10/1 94/22/1 95/25/1 96/21/1
f 97/12/1 98/15/1 99/16/1 100/13/1
f 101/24/1 102/20/1 103/12/1 104/11/1
f 105/10/1 106/22/1 107/25/1 108/21/1
f 109/15/1 110/27/1 111/28/1 112/16/1
f 113/5/1 114/6/1 115/7/1 116/8/1
f 117/21/1 118/25/1 119/27/1 120/15/1
f 121/9/1 122/19/1 123/22/1 124/10/1
f 125/26/1 126/23/1 127/6/1 128/5/1
f 129/12/1 130/15/1 131/16/1 132/13/1
f 133/9/1 134/19/1 135/22/1 136/10/1
f 137/8/1 138/7/1 139/20/1 140/24/1
f 141/20/1 142/21/1 143/15/1 144/12/1
f 145/23/1 146/17/1 147/9/1 148/6/1
f 149/17/1 150/18/1 151/19/1 152/9/1
f 153/8/1 154/7/1 155/20/1 156/24/1
f 157/20/1 158/21/1 159/15/1 160/12/1
f 161/24/1 162/20/1 163/12/1 164/11/1
f 165/20/1 166/21/1 167/15/1 168/12/1
f 169/9/1 170/19/1 171/22/1 172/10/1
f 173/15/1 174/27/1 175/28/1 176/16/1
f 177/1/1 178/2/1 179/3/1 180/4/1
f 181/5/1 182/6/1 183/7/1 184/8/1
f 185/21/1 186/25/1 187/27/1 188/15/1
f 189/11/1 190/12/1 191/13/1 192/14/1
f 193/12/1 194/15/1 195/16/1 196/13/1
f 197/24/1 198/20/1 199/12/1 200/11/1
f 201/10/1 202/22/1 203/25/1 204/21/1
f 205/1/1 206/2/1 207/3/1 208/4/1
f 209/26/1 210/23/1 211/6/1 212/5/1
f 213/17/1 214/18/1 215/19/1 216/9/1
f 217/5/1 218/6/1 219/7/1 220/8/1
f 221/6/1 222/9/1 223/10/1 224/7/1
f 225/10/1 226/22/1 227/25/1 228/21/1
f 229/10/1 230/22/1 231/25/1 232/21/1
f 233/8/1 234/7/1 235/20/1 236/24/1
f 237/20/1 238/21/1 239/15/1 240/12/1
f 241/21/1 242/25/1 243/27/1 244/15/1
f 245/17/1 246/18/1 247/19/1 248/9/1
f 249/24/1 250/20/1 251/12/1 252/11/1
f 253/15/1 254/27/1 255/28/1 256/16/1
f 257/1/1 258/2/1 259/3/1 260/4/1
f 261/12/1 262/15/1 263/16/1 264/13/1
f 265/10/1 266/22/1 267/25/1 268/21/1
f 269/1/1 270/2/1 271/3/1 272/4/1
f 273/23/1 274/17/1 275/9/1 276/6/1
f 277/21/1 278/25/1 279/27/1 280/15/1
f 281/21/1 282/25/1 283/27/1 284/15/1
f 285/8/1 286/7/1 287/20/1 288/24/1
f 289/20/1 290/21/1 291/15/1 292/12/1
f 293/24/1 294/20/1 295/12/1 296/11/1
f 297/7/1 298/10/1 299/21/1 300/20/1
f 301/8/1 302/7/1 303/20/1 304/24/1
f 305/10/1 306/22/1 307/25/1 308/21/1
f 309/21/1 310/25/1 311/27/1 312/15/1
f 313/8/1 314/7/1 315/20/1 316/24/1
f 317/7/1 318/10/1 319/21/1 320/20/1
f 321/20/1 322/21/1 323/15/1 324/12/1
f 325/11/1 326/12/1 327/13/1 328/14/1
f 329/21/1 330/25/1 331/27/1 332/15/1
f 333/21/1 334/25/1 335/27/1 336/15/1
f 337/11/1 338/12/1 339/13/1 340/14/1
f 341/20/1 342/21/1 343/15/1 344/12/1
f 345/24/1 346/20/1 347/12/1 348/11/1
f 349/10/1 350/22/1 351/25/1 352/21/1
f 353/5/1 354/6/1 355/7/1 356/8/1
f 357/6/1 358/9/1 359/10/1 360/7/1
f 361/21/1 362/25/1 363/27/1 364/15/1
f 365/17/1 366/18/1 367/19/1 368/9/1
f 369/21/1 370/25/1 371/27/1 372/15/1
f 373/11/1 374/12/1 375/13/1 376/14/1
f 377/17/1 378/18/1 379/19/1 380/9/1
f 381/26/1 382/23/1 383/6/1 384/5/1
f 385/12/1 386/15/1 387/16/1 388/13/1
f 389/11/1 390/12/1 391/13/1 392/14/1
f 393/1/1 394/2/1 395/3/1 396/4/1

