# Tiled2Unity generated file. Do not modify by hand.
# Wavefront file for 'sunrise_mesh_0155.obj'

# Vertices (Count = 100)
v -12 -1 -0.01
v -13 -1 -0.01
v -13 0 -0.01
v -12 0 -0.01
v -13 -1 -0.01
v -14 -1 -0.01
v -14 0 -0.01
v -13 0 -0.01
v -14 -1 -0.01
v -15 -1 -0.01
v -15 0 -0.01
v -14 0 -0.01
v -15 -1 -0.01
v -16 -1 -0.01
v -16 0 -0.01
v -15 0 -0.01
v -12 -2 -0.02
v -13 -2 -0.02
v -13 -1 -0.02
v -12 -1 -0.02
v -13 -2 -0.02
v -14 -2 -0.02
v -14 -1 -0.02
v -13 -1 -0.02
v -10 -3 -0.03
v -11 -3 -0.03
v -11 -2 -0.03
v -10 -2 -0.03
v -12 -3 -0.03
v -13 -3 -0.03
v -13 -2 -0.03
v -12 -2 -0.03
v -13 -3 -0.03
v -14 -3 -0.03
v -14 -2 -0.03
v -13 -2 -0.03
v -10 -4 -0.04
v -11 -4 -0.04
v -11 -3 -0.04
v -10 -3 -0.04
v -12 -4 -0.04
v -13 -4 -0.04
v -13 -3 -0.04
v -12 -3 -0.04
v -13 -4 -0.04
v -14 -4 -0.04
v -14 -3 -0.04
v -13 -3 -0.04
v -10 -5 -0.05
v -11 -5 -0.05
v -11 -4 -0.05
v -10 -4 -0.05
v -12 -5 -0.05
v -13 -5 -0.05
v -13 -4 -0.05
v -12 -4 -0.05
v -10 -6 -0.06
v -11 -6 -0.06
v -11 -5 -0.06
v -10 -5 -0.06
v -10 -7 -0.07
v -11 -7 -0.07
v -11 -6 -0.07
v -10 -6 -0.07
v -10 -8 -0.08
v -11 -8 -0.08
v -11 -7 -0.08
v -10 -7 -0.08
v -10 -9 -0.09
v -11 -9 -0.09
v -11 -8 -0.09
v -10 -8 -0.09
v -11 -9 -0.09
v -12 -9 -0.09
v -12 -8 -0.09
v -11 -8 -0.09
v -12 -9 -0.09
v -13 -9 -0.09
v -13 -8 -0.09
v -12 -8 -0.09
v -12 -10 -0.1
v -13 -10 -0.1
v -13 -9 -0.1
v -12 -9 -0.1
v -12 -11 -0.11
v -13 -11 -0.11
v -13 -10 -0.11
v -12 -10 -0.11
v -13 -11 -0.11
v -14 -11 -0.11
v -14 -10 -0.11
v -13 -10 -0.11
v -14 -11 -0.11
v -15 -11 -0.11
v -15 -10 -0.11
v -14 -10 -0.11
v -15 -11 -0.11
v -16 -11 -0.11
v -16 -10 -0.11
v -15 -10 -0.11

# Texture cooridinates (Count = 29)
vt 0.36 0.24
vt 0.4 0.24
vt 0.4 0.28
vt 0.36 0.28
vt 0.44 0.24
vt 0.48 0.24
vt 0.48 0.28
vt 0.44 0.28
vt 0.56 0.2
vt 0.6 0.2
vt 0.6 0.24
vt 0.56 0.24
vt 0.16 0.32
vt 0.2 0.32
vt 0.2 0.36
vt 0.16 0.36
vt 0.24 0.32
vt 0.24 0.36
vt 0.16 0.28
vt 0.2 0.28
vt 0.24 0.28
vt 0.16 0.24
vt 0.2 0.24
vt 0.24 0.24
vt 0.36 0.2
vt 0.4 0.2
vt 0.44 0.2
vt 0.4 0.32
vt 0.36 0.32

# Normal
vn 0 0 -1

# Mesh description
g sunrise_mesh_0155

# Faces
f 1/1/1 2/2/1 3/3/1 4/4/1
f 5/5/1 6/6/1 7/7/1 8/8/1
f 9/9/1 10/10/1 11/11/1 12/12/1
f 13/9/1 14/10/1 15/11/1 16/12/1
f 17/1/1 18/2/1 19/3/1 20/4/1
f 21/13/1 22/14/1 23/15/1 24/16/1
f 25/1/1 26/2/1 27/3/1 28/4/1
f 29/14/1 30/17/1 31/18/1 32/15/1
f 33/19/1 34/20/1 35/14/1 36/13/1
f 37/1/1 38/2/1 39/3/1 40/4/1
f 41/20/1 42/21/1 43/17/1 44/14/1
f 45/22/1 46/23/1 47/20/1 48/19/1
f 49/1/1 50/2/1 51/3/1 52/4/1
f 53/23/1 54/24/1 55/21/1 56/20/1
f 57/1/1 58/2/1 59/3/1 60/4/1
f 61/1/1 62/2/1 63/3/1 64/4/1
f 65/1/1 66/2/1 67/3/1 68/4/1
f 69/25/1 70/26/1 71/2/1 72/1/1
f 73/26/1 74/27/1 75/5/1 76/2/1
f 77/4/1 78/3/1 79/28/1 80/29/1
f 81/1/1 82/2/1 83/3/1 84/4/1
f 85/25/1 86/26/1 87/2/1 88/1/1
f 89/26/1 90/27/1 91/5/1 92/2/1
f 93/26/1 94/27/1 95/5/1 96/2/1
f 97/26/1 98/27/1 99/5/1 100/2/1

