# Tiled2Unity generated file. Do not modify by hand.
# Wavefront file for 'sunrise_mesh_0156.obj'

# Vertices (Count = 308)
v 0 -1 -0.01
v -1 -1 -0.01
v -1 0 -0.01
v 0 0 -0.01
v -1 -1 -0.01
v -2 -1 -0.01
v -2 0 -0.01
v -1 0 -0.01
v -6 -1 -0.01
v -7 -1 -0.01
v -7 0 -0.01
v -6 0 -0.01
v -7 -1 -0.01
v -8 -1 -0.01
v -8 0 -0.01
v -7 0 -0.01
v -12 -1 -0.01
v -13 -1 -0.01
v -13 0 -0.01
v -12 0 -0.01
v -13 -1 -0.01
v -14 -1 -0.01
v -14 0 -0.01
v -13 0 -0.01
v 0 -2 -0.02
v -1 -2 -0.02
v -1 -1 -0.02
v 0 -1 -0.02
v -1 -2 -0.02
v -2 -2 -0.02
v -2 -1 -0.02
v -1 -1 -0.02
v -6 -2 -0.02
v -7 -2 -0.02
v -7 -1 -0.02
v -6 -1 -0.02
v -13 -2 -0.02
v -14 -2 -0.02
v -14 -1 -0.02
v -13 -1 -0.02
v 0 -3 -0.03
v -1 -3 -0.03
v -1 -2 -0.03
v 0 -2 -0.03
v -1 -3 -0.03
v -2 -3 -0.03
v -2 -2 -0.03
v -1 -2 -0.03
v -3 -3 -0.03
v -4 -3 -0.03
v -4 -2 -0.03
v -3 -2 -0.03
v -6 -3 -0.03
v -7 -3 -0.03
v -7 -2 -0.03
v -6 -2 -0.03
v -13 -3 -0.03
v -14 -3 -0.03
v -14 -2 -0.03
v -13 -2 -0.03
v 0 -4 -0.04
v -1 -4 -0.04
v -1 -3 -0.04
v 0 -3 -0.04
v -1 -4 -0.04
v -2 -4 -0.04
v -2 -3 -0.04
v -1 -3 -0.04
v -3 -4 -0.04
v -4 -4 -0.04
v -4 -3 -0.04
v -3 -3 -0.04
v -6 -4 -0.04
v -7 -4 -0.04
v -7 -3 -0.04
v -6 -3 -0.04
v -13 -4 -0.04
v -14 -4 -0.04
v -14 -3 -0.04
v -13 -3 -0.04
v -1 -5 -0.05
v -2 -5 -0.05
v -2 -4 -0.05
v -1 -4 -0.05
v -3 -5 -0.05
v -4 -5 -0.05
v -4 -4 -0.05
v -3 -4 -0.05
v -6 -5 -0.05
v -7 -5 -0.05
v -7 -4 -0.05
v -6 -4 -0.05
v -13 -5 -0.05
v -14 -5 -0.05
v -14 -4 -0.05
v -13 -4 -0.05
v -3 -6 -0.06
v -4 -6 -0.06
v -4 -5 -0.06
v -3 -5 -0.06
v -6 -6 -0.06
v -7 -6 -0.06
v -7 -5 -0.06
v -6 -5 -0.06
v -13 -6 -0.06
v -14 -6 -0.06
v -14 -5 -0.06
v -13 -5 -0.06
v -12 -7 -0.07
v -13 -7 -0.07
v -13 -6 -0.07
v -12 -6 -0.07
v -13 -7 -0.07
v -14 -7 -0.07
v -14 -6 -0.07
v -13 -6 -0.07
v -3 -8 -0.08
v -4 -8 -0.08
v -4 -7 -0.08
v -3 -7 -0.08
v -4 -8 -0.08
v -5 -8 -0.08
v -5 -7 -0.08
v -4 -7 -0.08
v -5 -8 -0.08
v -6 -8 -0.08
v -6 -7 -0.08
v -5 -7 -0.08
v -6 -8 -0.08
v -7 -8 -0.08
v -7 -7 -0.08
v -6 -7 -0.08
v -7 -8 -0.08
v -8 -8 -0.08
v -8 -7 -0.08
v -7 -7 -0.08
v -11 -8 -0.08
v -12 -8 -0.08
v -12 -7 -0.08
v -11 -7 -0.08
v -12 -8 -0.08
v -13 -8 -0.08
v -13 -7 -0.08
v -12 -7 -0.08
v -13 -8 -0.08
v -14 -8 -0.08
v -14 -7 -0.08
v -13 -7 -0.08
v -1 -9 -0.09
v -2 -9 -0.09
v -2 -8 -0.09
v -1 -8 -0.09
v -2 -9 -0.09
v -3 -9 -0.09
v -3 -8 -0.09
v -2 -8 -0.09
v -3 -9 -0.09
v -4 -9 -0.09
v -4 -8 -0.09
v -3 -8 -0.09
v -5 -9 -0.09
v -6 -9 -0.09
v -6 -8 -0.09
v -5 -8 -0.09
v -6 -9 -0.09
v -7 -9 -0.09
v -7 -8 -0.09
v -6 -8 -0.09
v -7 -9 -0.09
v -8 -9 -0.09
v -8 -8 -0.09
v -7 -8 -0.09
v -11 -9 -0.09
v -12 -9 -0.09
v -12 -8 -0.09
v -11 -8 -0.09
v -12 -9 -0.09
v -13 -9 -0.09
v -13 -8 -0.09
v -12 -8 -0.09
v -13 -9 -0.09
v -14 -9 -0.09
v -14 -8 -0.09
v -13 -8 -0.09
v -1 -10 -0.1
v -2 -10 -0.1
v -2 -9 -0.1
v -1 -9 -0.1
v -5 -10 -0.1
v -6 -10 -0.1
v -6 -9 -0.1
v -5 -9 -0.1
v -6 -10 -0.1
v -7 -10 -0.1
v -7 -9 -0.1
v -6 -9 -0.1
v -7 -10 -0.1
v -8 -10 -0.1
v -8 -9 -0.1
v -7 -9 -0.1
v -11 -10 -0.1
v -12 -10 -0.1
v -12 -9 -0.1
v -11 -9 -0.1
v -12 -10 -0.1
v -13 -10 -0.1
v -13 -9 -0.1
v -12 -9 -0.1
v -13 -10 -0.1
v -14 -10 -0.1
v -14 -9 -0.1
v -13 -9 -0.1
v 0 -11 -0.11
v -1 -11 -0.11
v -1 -10 -0.11
v 0 -10 -0.11
v -1 -11 -0.11
v -2 -11 -0.11
v -2 -10 -0.11
v -1 -10 -0.11
v -5 -11 -0.11
v -6 -11 -0.11
v -6 -10 -0.11
v -5 -10 -0.11
v -6 -11 -0.11
v -7 -11 -0.11
v -7 -10 -0.11
v -6 -10 -0.11
v -7 -11 -0.11
v -8 -11 -0.11
v -8 -10 -0.11
v -7 -10 -0.11
v -11 -11 -0.11
v -12 -11 -0.11
v -12 -10 -0.11
v -11 -10 -0.11
v -12 -11 -0.11
v -13 -11 -0.11
v -13 -10 -0.11
v -12 -10 -0.11
v -13 -11 -0.11
v -14 -11 -0.11
v -14 -10 -0.11
v -13 -10 -0.11
v -5 -12 -0.12
v -6 -12 -0.12
v -6 -11 -0.12
v -5 -11 -0.12
v -6 -12 -0.12
v -7 -12 -0.12
v -7 -11 -0.12
v -6 -11 -0.12
v -7 -12 -0.12
v -8 -12 -0.12
v -8 -11 -0.12
v -7 -11 -0.12
v -11 -12 -0.12
v -12 -12 -0.12
v -12 -11 -0.12
v -11 -11 -0.12
v -12 -12 -0.12
v -13 -12 -0.12
v -13 -11 -0.12
v -12 -11 -0.12
v -13 -12 -0.12
v -14 -12 -0.12
v -14 -11 -0.12
v -13 -11 -0.12
v -5 -13 -0.13
v -6 -13 -0.13
v -6 -12 -0.13
v -5 -12 -0.13
v -13 -13 -0.13
v -14 -13 -0.13
v -14 -12 -0.13
v -13 -12 -0.13
v -5 -14 -0.14
v -6 -14 -0.14
v -6 -13 -0.14
v -5 -13 -0.14
v -6 -14 -0.14
v -7 -14 -0.14
v -7 -13 -0.14
v -6 -13 -0.14
v -13 -14 -0.14
v -14 -14 -0.14
v -14 -13 -0.14
v -13 -13 -0.14
v -6 -15 -0.15
v -7 -15 -0.15
v -7 -14 -0.15
v -6 -14 -0.15
v -12 -15 -0.15
v -13 -15 -0.15
v -13 -14 -0.15
v -12 -14 -0.15
v -13 -15 -0.15
v -14 -15 -0.15
v -14 -14 -0.15
v -13 -14 -0.15
v -6 -16 -0.16
v -7 -16 -0.16
v -7 -15 -0.16
v -6 -15 -0.16
v -12 -16 -0.16
v -13 -16 -0.16
v -13 -15 -0.16
v -12 -15 -0.16

# Texture cooridinates (Count = 38)
vt 0.36 0.24
vt 0.4 0.24
vt 0.4 0.28
vt 0.36 0.28
vt 0.44 0.24
vt 0.48 0.24
vt 0.48 0.28
vt 0.44 0.28
vt 0.2 0.24
vt 0.24 0.24
vt 0.24 0.28
vt 0.2 0.28
vt 0.16 0.24
vt 0.16 0.28
vt 0.2 0.32
vt 0.24 0.32
vt 0.24 0.36
vt 0.2 0.36
vt 0.16 0.32
vt 0.16 0.36
vt 0.16 0.68
vt 0.2 0.68
vt 0.2 0.72
vt 0.16 0.72
vt 0.48 0.32
vt 0.44 0.32
vt 0.4 0.2
vt 0.44 0.2
vt 0.4 0.32
vt 0.36 0.32
vt 0.48 0.2
vt 0.12 0.68
vt 0.12 0.72
vt 0 0.48
vt 0.04 0.48
vt 0.04 0.52
vt 0 0.52
vt 0.36 0.2

# Normal
vn 0 0 -1

# Mesh description
g sunrise_mesh_0156

# Faces
f 1/1/1 2/2/1 3/3/1 4/4/1
f 5/5/1 6/6/1 7/7/1 8/8/1
f 9/1/1 10/2/1 11/3/1 12/4/1
f 13/9/1 14/10/1 15/11/1 16/12/1
f 17/13/1 18/9/1 19/12/1 20/14/1
f 21/5/1 22/6/1 23/7/1 24/8/1
f 25/15/1 26/16/1 27/17/1 28/18/1
f 29/5/1 30/6/1 31/7/1 32/8/1
f 33/1/1 34/2/1 35/3/1 36/4/1
f 37/5/1 38/6/1 39/7/1 40/8/1
f 41/12/1 42/11/1 43/16/1 44/15/1
f 45/19/1 46/15/1 47/18/1 48/20/1
f 49/5/1 50/6/1 51/7/1 52/8/1
f 53/1/1 54/2/1 55/3/1 56/4/1
f 57/5/1 58/6/1 59/7/1 60/8/1
f 61/9/1 62/10/1 63/11/1 64/12/1
f 65/14/1 66/12/1 67/15/1 68/19/1
f 69/19/1 70/15/1 71/18/1 72/20/1
f 73/15/1 74/16/1 75/17/1 76/18/1
f 77/5/1 78/6/1 79/7/1 80/8/1
f 81/13/1 82/9/1 83/12/1 84/14/1
f 85/14/1 86/12/1 87/15/1 88/19/1
f 89/12/1 90/11/1 91/16/1 92/15/1
f 93/5/1 94/6/1 95/7/1 96/8/1
f 97/13/1 98/9/1 99/12/1 100/14/1
f 101/9/1 102/10/1 103/11/1 104/12/1
f 105/5/1 106/6/1 107/7/1 108/8/1
f 109/21/1 110/22/1 111/23/1 112/24/1
f 113/5/1 114/6/1 115/7/1 116/8/1
f 117/8/1 118/7/1 119/25/1 120/26/1
f 121/27/1 122/28/1 123/5/1 124/2/1
f 125/27/1 126/28/1 127/5/1 128/2/1
f 129/27/1 130/28/1 131/5/1 132/2/1
f 133/4/1 134/3/1 135/29/1 136/30/1
f 137/8/1 138/7/1 139/25/1 140/26/1
f 141/27/1 142/28/1 143/5/1 144/2/1
f 145/28/1 146/31/1 147/6/1 148/5/1
f 149/8/1 150/7/1 151/25/1 152/26/1
f 153/27/1 154/28/1 155/5/1 156/2/1
f 157/28/1 158/31/1 159/6/1 160/5/1
f 161/32/1 162/21/1 163/24/1 164/33/1
f 165/21/1 166/22/1 167/23/1 168/24/1
f 169/1/1 170/2/1 171/3/1 172/4/1
f 173/5/1 174/6/1 175/7/1 176/8/1
f 177/21/1 178/22/1 179/23/1 180/24/1
f 181/34/1 182/35/1 183/36/1 184/37/1
f 185/5/1 186/6/1 187/7/1 188/8/1
f 189/1/1 190/2/1 191/3/1 192/4/1
f 193/21/1 194/22/1 195/23/1 196/24/1
f 197/15/1 198/16/1 199/17/1 200/18/1
f 201/19/1 202/15/1 203/18/1 204/20/1
f 205/21/1 206/22/1 207/23/1 208/24/1
f 209/5/1 210/6/1 211/7/1 212/8/1
f 213/27/1 214/28/1 215/5/1 216/2/1
f 217/28/1 218/31/1 219/6/1 220/5/1
f 221/1/1 222/2/1 223/3/1 224/4/1
f 225/21/1 226/22/1 227/23/1 228/24/1
f 229/12/1 230/11/1 231/16/1 232/15/1
f 233/14/1 234/12/1 235/15/1 236/19/1
f 237/21/1 238/22/1 239/23/1 240/24/1
f 241/5/1 242/6/1 243/7/1 244/8/1
f 245/1/1 246/2/1 247/3/1 248/4/1
f 249/21/1 250/22/1 251/23/1 252/24/1
f 253/9/1 254/10/1 255/11/1 256/12/1
f 257/13/1 258/9/1 259/12/1 260/14/1
f 261/21/1 262/22/1 263/23/1 264/24/1
f 265/5/1 266/6/1 267/7/1 268/8/1
f 269/1/1 270/2/1 271/3/1 272/4/1
f 273/5/1 274/6/1 275/7/1 276/8/1
f 277/38/1 278/27/1 279/2/1 280/1/1
f 281/4/1 282/3/1 283/29/1 284/30/1
f 285/5/1 286/6/1 287/7/1 288/8/1
f 289/1/1 290/2/1 291/3/1 292/4/1
f 293/8/1 294/7/1 295/25/1 296/26/1
f 297/28/1 298/31/1 299/6/1 300/5/1
f 301/1/1 302/2/1 303/3/1 304/4/1
f 305/5/1 306/6/1 307/7/1 308/8/1

