# Tiled2Unity generated file. Do not modify by hand.
# Wavefront file for 'sunrise_mesh_0140.obj'

# Vertices (Count = 24)
v -14 -2 -0.02
v -15 -2 -0.02
v -15 -1 -0.02
v -14 -1 -0.02
v -15 -2 -0.02
v -16 -2 -0.02
v -16 -1 -0.02
v -15 -1 -0.02
v -14 -3 -0.03
v -15 -3 -0.03
v -15 -2 -0.03
v -14 -2 -0.03
v -15 -3 -0.03
v -16 -3 -0.03
v -16 -2 -0.03
v -15 -2 -0.03
v -14 -4 -0.04
v -15 -4 -0.04
v -15 -3 -0.04
v -14 -3 -0.04
v -15 -4 -0.04
v -16 -4 -0.04
v -16 -3 -0.04
v -15 -3 -0.04

# Texture cooridinates (Count = 12)
vt 0.08 0.44
vt 0.12 0.44
vt 0.12 0.48
vt 0.08 0.48
vt 0.16 0.44
vt 0.16 0.48
vt 0.08 0.4
vt 0.12 0.4
vt 0.16 0.4
vt 0.08 0.36
vt 0.12 0.36
vt 0.16 0.36

# Normal
vn 0 0 -1

# Mesh description
g sunrise_mesh_0140

# Faces
f 1/1/1 2/2/1 3/3/1 4/4/1
f 5/2/1 6/5/1 7/6/1 8/3/1
f 9/7/1 10/8/1 11/2/1 12/1/1
f 13/8/1 14/9/1 15/5/1 16/2/1
f 17/10/1 18/11/1 19/8/1 20/7/1
f 21/11/1 22/12/1 23/9/1 24/8/1

