# Tiled2Unity generated file. Do not modify by hand.
# Wavefront file for 'sunrise_mesh_0128.obj'

# Vertices (Count = 28)
v -6 -2 -0.02
v -7 -2 -0.02
v -7 -1 -0.02
v -6 -1 -0.02
v -3 -3 -0.03
v -4 -3 -0.03
v -4 -2 -0.03
v -3 -2 -0.03
v -6 -3 -0.03
v -7 -3 -0.03
v -7 -2 -0.03
v -6 -2 -0.03
v -3 -4 -0.04
v -4 -4 -0.04
v -4 -3 -0.04
v -3 -3 -0.04
v -6 -4 -0.04
v -7 -4 -0.04
v -7 -3 -0.04
v -6 -3 -0.04
v -3 -5 -0.05
v -4 -5 -0.05
v -4 -4 -0.05
v -3 -4 -0.05
v -6 -5 -0.05
v -7 -5 -0.05
v -7 -4 -0.05
v -6 -4 -0.05

# Texture cooridinates (Count = 17)
vt 0.28 0.44
vt 0.32 0.44
vt 0.32 0.48
vt 0.28 0.48
vt 0.24 0.28
vt 0.28 0.28
vt 0.28 0.32
vt 0.24 0.32
vt 0.28 0.4
vt 0.32 0.4
vt 0.24 0.24
vt 0.28 0.24
vt 0.28 0.36
vt 0.32 0.36
vt 0.24 0.2
vt 0.28 0.2
vt 0.32 0.32

# Normal
vn 0 0 -1

# Mesh description
g sunrise_mesh_0128

# Faces
f 1/1/1 2/2/1 3/3/1 4/4/1
f 5/5/1 6/6/1 7/7/1 8/8/1
f 9/9/1 10/10/1 11/2/1 12/1/1
f 13/11/1 14/12/1 15/6/1 16/5/1
f 17/13/1 18/14/1 19/10/1 20/9/1
f 21/15/1 22/16/1 23/12/1 24/11/1
f 25/7/1 26/17/1 27/14/1 28/13/1

