# Tiled2Unity generated file. Do not modify by hand.
# Wavefront file for 'sunrise_mesh_0144.obj'

# Vertices (Count = 48)
v -14 -1 -0.01
v -15 -1 -0.01
v -15 0 -0.01
v -14 0 -0.01
v -15 -1 -0.01
v -16 -1 -0.01
v -16 0 -0.01
v -15 0 -0.01
v -14 -2 -0.02
v -15 -2 -0.02
v -15 -1 -0.02
v -14 -1 -0.02
v -15 -2 -0.02
v -16 -2 -0.02
v -16 -1 -0.02
v -15 -1 -0.02
v -14 -3 -0.03
v -15 -3 -0.03
v -15 -2 -0.03
v -14 -2 -0.03
v -15 -3 -0.03
v -16 -3 -0.03
v -16 -2 -0.03
v -15 -2 -0.03
v -14 -4 -0.04
v -15 -4 -0.04
v -15 -3 -0.04
v -14 -3 -0.04
v -15 -4 -0.04
v -16 -4 -0.04
v -16 -3 -0.04
v -15 -3 -0.04
v -14 -5 -0.05
v -15 -5 -0.05
v -15 -4 -0.05
v -14 -4 -0.05
v -15 -5 -0.05
v -16 -5 -0.05
v -16 -4 -0.05
v -15 -4 -0.05
v -14 -6 -0.06
v -15 -6 -0.06
v -15 -5 -0.06
v -14 -5 -0.06
v -15 -6 -0.06
v -16 -6 -0.06
v -16 -5 -0.06
v -15 -5 -0.06

# Texture cooridinates (Count = 12)
vt 0.36 0.24
vt 0.4 0.24
vt 0.4 0.28
vt 0.36 0.28
vt 0.44 0.36
vt 0.48 0.36
vt 0.48 0.4
vt 0.44 0.4
vt 0.36 0.2
vt 0.4 0.2
vt 0.44 0.2
vt 0.44 0.24

# Normal
vn 0 0 -1

# Mesh description
g sunrise_mesh_0144

# Faces
f 1/1/1 2/2/1 3/3/1 4/4/1
f 5/5/1 6/6/1 7/7/1 8/8/1
f 9/1/1 10/2/1 11/3/1 12/4/1
f 13/5/1 14/6/1 15/7/1 16/8/1
f 17/1/1 18/2/1 19/3/1 20/4/1
f 21/5/1 22/6/1 23/7/1 24/8/1
f 25/1/1 26/2/1 27/3/1 28/4/1
f 29/5/1 30/6/1 31/7/1 32/8/1
f 33/1/1 34/2/1 35/3/1 36/4/1
f 37/5/1 38/6/1 39/7/1 40/8/1
f 41/9/1 42/10/1 43/2/1 44/1/1
f 45/10/1 46/11/1 47/12/1 48/2/1

