# Tiled2Unity generated file. Do not modify by hand.
# Wavefront file for 'sunrise_mesh_0099.obj'

# Vertices (Count = 132)
v -5 -1 -0.01
v -6 -1 -0.01
v -6 0 -0.01
v -5 0 -0.01
v -6 -1 -0.01
v -7 -1 -0.01
v -7 0 -0.01
v -6 0 -0.01
v -7 -1 -0.01
v -8 -1 -0.01
v -8 0 -0.01
v -7 0 -0.01
v -8 -1 -0.01
v -9 -1 -0.01
v -9 0 -0.01
v -8 0 -0.01
v -9 -1 -0.01
v -10 -1 -0.01
v -10 0 -0.01
v -9 0 -0.01
v -11 -1 -0.01
v -12 -1 -0.01
v -12 0 -0.01
v -11 0 -0.01
v -12 -1 -0.01
v -13 -1 -0.01
v -13 0 -0.01
v -12 0 -0.01
v -13 -1 -0.01
v -14 -1 -0.01
v -14 0 -0.01
v -13 0 -0.01
v -6 -2 -0.02
v -7 -2 -0.02
v -7 -1 -0.02
v -6 -1 -0.02
v -7 -2 -0.02
v -8 -2 -0.02
v -8 -1 -0.02
v -7 -1 -0.02
v -9 -2 -0.02
v -10 -2 -0.02
v -10 -1 -0.02
v -9 -1 -0.02
v -10 -2 -0.02
v -11 -2 -0.02
v -11 -1 -0.02
v -10 -1 -0.02
v -11 -2 -0.02
v -12 -2 -0.02
v -12 -1 -0.02
v -11 -1 -0.02
v -12 -2 -0.02
v -13 -2 -0.02
v -13 -1 -0.02
v -12 -1 -0.02
v -6 -3 -0.03
v -7 -3 -0.03
v -7 -2 -0.03
v -6 -2 -0.03
v -7 -3 -0.03
v -8 -3 -0.03
v -8 -2 -0.03
v -7 -2 -0.03
v -8 -3 -0.03
v -9 -3 -0.03
v -9 -2 -0.03
v -8 -2 -0.03
v -9 -3 -0.03
v -10 -3 -0.03
v -10 -2 -0.03
v -9 -2 -0.03
v -10 -3 -0.03
v -11 -3 -0.03
v -11 -2 -0.03
v -10 -2 -0.03
v -11 -3 -0.03
v -12 -3 -0.03
v -12 -2 -0.03
v -11 -2 -0.03
v -12 -3 -0.03
v -13 -3 -0.03
v -13 -2 -0.03
v -12 -2 -0.03
v -6 -4 -0.04
v -7 -4 -0.04
v -7 -3 -0.04
v -6 -3 -0.04
v -7 -4 -0.04
v -8 -4 -0.04
v -8 -3 -0.04
v -7 -3 -0.04
v -8 -4 -0.04
v -9 -4 -0.04
v -9 -3 -0.04
v -8 -3 -0.04
v -9 -4 -0.04
v -10 -4 -0.04
v -10 -3 -0.04
v -9 -3 -0.04
v -10 -4 -0.04
v -11 -4 -0.04
v -11 -3 -0.04
v -10 -3 -0.04
v -11 -4 -0.04
v -12 -4 -0.04
v -12 -3 -0.04
v -11 -3 -0.04
v -12 -4 -0.04
v -13 -4 -0.04
v -13 -3 -0.04
v -12 -3 -0.04
v -7 -5 -0.05
v -8 -5 -0.05
v -8 -4 -0.05
v -7 -4 -0.05
v -8 -5 -0.05
v -9 -5 -0.05
v -9 -4 -0.05
v -8 -4 -0.05
v -9 -5 -0.05
v -10 -5 -0.05
v -10 -4 -0.05
v -9 -4 -0.05
v -10 -5 -0.05
v -11 -5 -0.05
v -11 -4 -0.05
v -10 -4 -0.05
v -11 -5 -0.05
v -12 -5 -0.05
v -12 -4 -0.05
v -11 -4 -0.05

# Texture cooridinates (Count = 24)
vt 0.48 0
vt 0.52 0
vt 0.52 0.04000002
vt 0.48 0.04000002
vt 0.48 0.12
vt 0.52 0.12
vt 0.52 0.16
vt 0.48 0.16
vt 0.56 0.2
vt 0.6 0.2
vt 0.6 0.24
vt 0.56 0.24
vt 0.56 0.12
vt 0.56 0.16
vt 0.56 0
vt 0.6 0
vt 0.6 0.04000002
vt 0.56 0.04000002
vt 0.52 0.07999998
vt 0.48 0.07999998
vt 0.6 0.16
vt 0.6 0.07999998
vt 0.56 0.07999998
vt 0.6 0.12

# Normal
vn 0 0 -1

# Mesh description
g sunrise_mesh_0099

# Faces
f 1/1/1 2/2/1 3/3/1 4/4/1
f 5/5/1 6/6/1 7/7/1 8/8/1
f 9/9/1 10/10/1 11/11/1 12/12/1
f 13/9/1 14/10/1 15/11/1 16/12/1
f 17/9/1 18/10/1 19/11/1 20/12/1
f 21/9/1 22/10/1 23/11/1 24/12/1
f 25/6/1 26/13/1 27/14/1 28/7/1
f 29/15/1 30/16/1 31/17/1 32/18/1
f 33/4/1 34/3/1 35/19/1 36/20/1
f 37/9/1 38/10/1 39/11/1 40/12/1
f 41/9/1 42/10/1 43/11/1 44/12/1
f 45/14/1 46/21/1 47/10/1 48/9/1
f 49/9/1 50/10/1 51/11/1 52/12/1
f 53/18/1 54/17/1 55/22/1 56/23/1
f 57/4/1 58/3/1 59/19/1 60/20/1
f 61/9/1 62/10/1 63/11/1 64/12/1
f 65/14/1 66/21/1 67/10/1 68/9/1
f 69/9/1 70/10/1 71/11/1 72/12/1
f 73/13/1 74/24/1 75/21/1 76/14/1
f 77/9/1 78/10/1 79/11/1 80/12/1
f 81/18/1 82/17/1 83/22/1 84/23/1
f 85/1/1 86/2/1 87/3/1 88/4/1
f 89/5/1 90/6/1 91/7/1 92/8/1
f 93/13/1 94/24/1 95/21/1 96/14/1
f 97/9/1 98/10/1 99/11/1 100/12/1
f 101/9/1 102/10/1 103/11/1 104/12/1
f 105/6/1 106/13/1 107/14/1 108/7/1
f 109/15/1 110/16/1 111/17/1 112/18/1
f 113/1/1 114/2/1 115/3/1 116/4/1
f 117/2/1 118/15/1 119/18/1 120/3/1
f 121/2/1 122/15/1 123/18/1 124/3/1
f 125/2/1 126/15/1 127/18/1 128/3/1
f 129/15/1 130/16/1 131/17/1 132/18/1

