# Tiled2Unity generated file. Do not modify by hand.
# Wavefront file for 'sunrise_mesh_0134.obj'

# Vertices (Count = 16)
v -3 -14 -0.14
v -4 -14 -0.14
v -4 -13 -0.14
v -3 -13 -0.14
v -6 -14 -0.14
v -7 -14 -0.14
v -7 -13 -0.14
v -6 -13 -0.14
v -3 -15 -0.15
v -4 -15 -0.15
v -4 -14 -0.15
v -3 -14 -0.15
v -6 -15 -0.15
v -7 -15 -0.15
v -7 -14 -0.15
v -6 -14 -0.15

# Texture cooridinates (Count = 6)
vt 0.28 0.44
vt 0.32 0.44
vt 0.32 0.48
vt 0.28 0.48
vt 0.28 0.4
vt 0.32 0.4

# Normal
vn 0 0 -1

# Mesh description
g sunrise_mesh_0134

# Faces
f 1/1/1 2/2/1 3/3/1 4/4/1
f 5/1/1 6/2/1 7/3/1 8/4/1
f 9/5/1 10/6/1 11/2/1 12/1/1
f 13/5/1 14/6/1 15/2/1 16/1/1

