# Tiled2Unity generated file. Do not modify by hand.
# Wavefront file for 'sunrise_mesh_0113.obj'

# Vertices (Count = 40)
v -14 -2 -0.02
v -15 -2 -0.02
v -15 -1 -0.02
v -14 -1 -0.02
v -15 -2 -0.02
v -16 -2 -0.02
v -16 -1 -0.02
v -15 -1 -0.02
v -14 -3 -0.03
v -15 -3 -0.03
v -15 -2 -0.03
v -14 -2 -0.03
v -15 -3 -0.03
v -16 -3 -0.03
v -16 -2 -0.03
v -15 -2 -0.03
v -14 -4 -0.04
v -15 -4 -0.04
v -15 -3 -0.04
v -14 -3 -0.04
v -15 -4 -0.04
v -16 -4 -0.04
v -16 -3 -0.04
v -15 -3 -0.04
v -14 -5 -0.05
v -15 -5 -0.05
v -15 -4 -0.05
v -14 -4 -0.05
v -15 -5 -0.05
v -16 -5 -0.05
v -16 -4 -0.05
v -15 -4 -0.05
v -14 -11 -0.11
v -15 -11 -0.11
v -15 -10 -0.11
v -14 -10 -0.11
v -14 -12 -0.12
v -15 -12 -0.12
v -15 -11 -0.12
v -14 -11 -0.12

# Texture cooridinates (Count = 15)
vt 0 0.32
vt 0.04 0.32
vt 0.04 0.36
vt 0 0.36
vt 0.08 0.32
vt 0.08 0.36
vt 0 0.28
vt 0.04 0.28
vt 0.08 0.28
vt 0 0.24
vt 0.04 0.24
vt 0.08 0.24
vt 0 0.2
vt 0.04 0.2
vt 0.08 0.2

# Normal
vn 0 0 -1

# Mesh description
g sunrise_mesh_0113

# Faces
f 1/1/1 2/2/1 3/3/1 4/4/1
f 5/2/1 6/5/1 7/6/1 8/3/1
f 9/7/1 10/8/1 11/2/1 12/1/1
f 13/8/1 14/9/1 15/5/1 16/2/1
f 17/10/1 18/11/1 19/8/1 20/7/1
f 21/11/1 22/12/1 23/9/1 24/8/1
f 25/13/1 26/14/1 27/11/1 28/10/1
f 29/14/1 30/15/1 31/12/1 32/11/1
f 33/2/1 34/5/1 35/6/1 36/3/1
f 37/8/1 38/9/1 39/5/1 40/2/1

