# Tiled2Unity generated file. Do not modify by hand.
# Wavefront file for 'sunrise_mesh_0160.obj'

# Vertices (Count = 16)
v -13 -1 -0.01
v -14 -1 -0.01
v -14 0 -0.01
v -13 0 -0.01
v -13 -2 -0.02
v -14 -2 -0.02
v -14 -1 -0.02
v -13 -1 -0.02
v -14 -2 -0.02
v -15 -2 -0.02
v -15 -1 -0.02
v -14 -1 -0.02
v -15 -2 -0.02
v -16 -2 -0.02
v -16 -1 -0.02
v -15 -1 -0.02

# Texture cooridinates (Count = 8)
vt 0.36 0.24
vt 0.4 0.24
vt 0.4 0.28
vt 0.36 0.28
vt 0.36 0.2
vt 0.4 0.2
vt 0.44 0.2
vt 0.44 0.24

# Normal
vn 0 0 -1

# Mesh description
g sunrise_mesh_0160

# Faces
f 1/1/1 2/2/1 3/3/1 4/4/1
f 5/5/1 6/6/1 7/2/1 8/1/1
f 9/6/1 10/7/1 11/8/1 12/2/1
f 13/6/1 14/7/1 15/8/1 16/2/1

