# Tiled2Unity generated file. Do not modify by hand.
# Wavefront file for 'sunrise_mesh_0142.obj'

# Vertices (Count = 44)
v -1 -9 -0.09
v -2 -9 -0.09
v -2 -8 -0.09
v -1 -8 -0.09
v -1 -10 -0.1
v -2 -10 -0.1
v -2 -9 -0.1
v -1 -9 -0.1
v -1 -11 -0.11
v -2 -11 -0.11
v -2 -10 -0.11
v -1 -10 -0.11
v -1 -12 -0.12
v -2 -12 -0.12
v -2 -11 -0.12
v -1 -11 -0.12
v -1 -13 -0.13
v -2 -13 -0.13
v -2 -12 -0.13
v -1 -12 -0.13
v -2 -13 -0.13
v -3 -13 -0.13
v -3 -12 -0.13
v -2 -12 -0.13
v -3 -13 -0.13
v -4 -13 -0.13
v -4 -12 -0.13
v -3 -12 -0.13
v -3 -14 -0.14
v -4 -14 -0.14
v -4 -13 -0.14
v -3 -13 -0.14
v -4 -14 -0.14
v -5 -14 -0.14
v -5 -13 -0.14
v -4 -13 -0.14
v -4 -15 -0.15
v -5 -15 -0.15
v -5 -14 -0.15
v -4 -14 -0.15
v -4 -16 -0.16
v -5 -16 -0.16
v -5 -15 -0.16
v -4 -15 -0.16

# Texture cooridinates (Count = 16)
vt 0.36 0.24
vt 0.4 0.24
vt 0.4 0.28
vt 0.36 0.28
vt 0.36 0.2
vt 0.4 0.2
vt 0.44 0.2
vt 0.44 0.24
vt 0.4 0.32
vt 0.36 0.32
vt 0.12 0.32
vt 0.16 0.32
vt 0.16 0.36
vt 0.12 0.36
vt 0.12 0.28
vt 0.16 0.28

# Normal
vn 0 0 -1

# Mesh description
g sunrise_mesh_0142

# Faces
f 1/1/1 2/2/1 3/3/1 4/4/1
f 5/1/1 6/2/1 7/3/1 8/4/1
f 9/1/1 10/2/1 11/3/1 12/4/1
f 13/1/1 14/2/1 15/3/1 16/4/1
f 17/5/1 18/6/1 19/2/1 20/1/1
f 21/6/1 22/7/1 23/8/1 24/2/1
f 25/4/1 26/3/1 27/9/1 28/10/1
f 29/5/1 30/6/1 31/2/1 32/1/1
f 33/4/1 34/3/1 35/9/1 36/10/1
f 37/11/1 38/12/1 39/13/1 40/14/1
f 41/15/1 42/16/1 43/12/1 44/11/1

