# Tiled2Unity generated file. Do not modify by hand.
# Wavefront file for 'sunrise_mesh_0114.obj'

# Vertices (Count = 116)
v 0 -1 -0.01
v -1 -1 -0.01
v -1 0 -0.01
v 0 0 -0.01
v 0 -2 -0.02
v -1 -2 -0.02
v -1 -1 -0.02
v 0 -1 -0.02
v -6 -4 -0.04
v -7 -4 -0.04
v -7 -3 -0.04
v -6 -3 -0.04
v -7 -4 -0.04
v -8 -4 -0.04
v -8 -3 -0.04
v -7 -3 -0.04
v -6 -5 -0.05
v -7 -5 -0.05
v -7 -4 -0.05
v -6 -4 -0.05
v -7 -5 -0.05
v -8 -5 -0.05
v -8 -4 -0.05
v -7 -4 -0.05
v -8 -5 -0.05
v -9 -5 -0.05
v -9 -4 -0.05
v -8 -4 -0.05
v -6 -6 -0.06
v -7 -6 -0.06
v -7 -5 -0.06
v -6 -5 -0.06
v -7 -6 -0.06
v -8 -6 -0.06
v -8 -5 -0.06
v -7 -5 -0.06
v -8 -6 -0.06
v -9 -6 -0.06
v -9 -5 -0.06
v -8 -5 -0.06
v -6 -7 -0.07
v -7 -7 -0.07
v -7 -6 -0.07
v -6 -6 -0.07
v -7 -7 -0.07
v -8 -7 -0.07
v -8 -6 -0.07
v -7 -6 -0.07
v -8 -7 -0.07
v -9 -7 -0.07
v -9 -6 -0.07
v -8 -6 -0.07
v -8 -8 -0.08
v -9 -8 -0.08
v -9 -7 -0.08
v -8 -7 -0.08
v -9 -8 -0.08
v -10 -8 -0.08
v -10 -7 -0.08
v -9 -7 -0.08
v -9 -9 -0.09
v -10 -9 -0.09
v -10 -8 -0.09
v -9 -8 -0.09
v -9 -10 -0.1
v -10 -10 -0.1
v -10 -9 -0.1
v -9 -9 -0.1
v -9 -11 -0.11
v -10 -11 -0.11
v -10 -10 -0.11
v -9 -10 -0.11
v -10 -11 -0.11
v -11 -11 -0.11
v -11 -10 -0.11
v -10 -10 -0.11
v -10 -12 -0.12
v -11 -12 -0.12
v -11 -11 -0.12
v -10 -11 -0.12
v -11 -12 -0.12
v -12 -12 -0.12
v -12 -11 -0.12
v -11 -11 -0.12
v -10 -13 -0.13
v -11 -13 -0.13
v -11 -12 -0.13
v -10 -12 -0.13
v -11 -13 -0.13
v -12 -13 -0.13
v -12 -12 -0.13
v -11 -12 -0.13
v 0 -14 -0.14
v -1 -14 -0.14
v -1 -13 -0.14
v 0 -13 -0.14
v -10 -14 -0.14
v -11 -14 -0.14
v -11 -13 -0.14
v -10 -13 -0.14
v -11 -14 -0.14
v -12 -14 -0.14
v -12 -13 -0.14
v -11 -13 -0.14
v 0 -15 -0.15
v -1 -15 -0.15
v -1 -14 -0.15
v 0 -14 -0.15
v 0 -16 -0.16
v -1 -16 -0.16
v -1 -15 -0.16
v 0 -15 -0.16
v -7 -16 -0.16
v -8 -16 -0.16
v -8 -15 -0.16
v -7 -15 -0.16

# Texture cooridinates (Count = 27)
vt 0.04 0.24
vt 0.08 0.24
vt 0.08 0.28
vt 0.04 0.28
vt 0.04 0.2
vt 0.08 0.2
vt 0 0.32
vt 0.04 0.32
vt 0.04 0.36
vt 0 0.36
vt 0.08 0.32
vt 0.08 0.36
vt 0 0.28
vt 0 0.24
vt 0 0.2
vt 0.16 0.44
vt 0.2 0.44
vt 0.2 0.48
vt 0.16 0.48
vt 0.16 0.4
vt 0.2 0.4
vt 0.16 0.36
vt 0.2 0.36
vt 0.44 0.4
vt 0.48 0.4
vt 0.48 0.44
vt 0.44 0.44

# Normal
vn 0 0 -1

# Mesh description
g sunrise_mesh_0114

# Faces
f 1/1/1 2/2/1 3/3/1 4/4/1
f 5/5/1 6/6/1 7/2/1 8/1/1
f 9/7/1 10/8/1 11/9/1 12/10/1
f 13/8/1 14/11/1 15/12/1 16/9/1
f 17/13/1 18/4/1 19/8/1 20/7/1
f 21/4/1 22/3/1 23/11/1 24/8/1
f 25/7/1 26/8/1 27/9/1 28/10/1
f 29/14/1 30/1/1 31/4/1 32/13/1
f 33/1/1 34/2/1 35/3/1 36/4/1
f 37/13/1 38/4/1 39/8/1 40/7/1
f 41/15/1 42/5/1 43/1/1 44/14/1
f 45/5/1 46/6/1 47/2/1 48/1/1
f 49/14/1 50/1/1 51/4/1 52/13/1
f 53/15/1 54/5/1 55/1/1 56/14/1
f 57/7/1 58/8/1 59/9/1 60/10/1
f 61/13/1 62/4/1 63/8/1 64/7/1
f 65/14/1 66/1/1 67/4/1 68/13/1
f 69/15/1 70/5/1 71/1/1 72/14/1
f 73/7/1 74/8/1 75/9/1 76/10/1
f 77/13/1 78/4/1 79/8/1 80/7/1
f 81/16/1 82/17/1 83/18/1 84/19/1
f 85/14/1 86/1/1 87/4/1 88/13/1
f 89/20/1 90/21/1 91/17/1 92/16/1
f 93/8/1 94/11/1 95/12/1 96/9/1
f 97/15/1 98/5/1 99/1/1 100/14/1
f 101/22/1 102/23/1 103/21/1 104/20/1
f 105/4/1 106/3/1 107/11/1 108/8/1
f 109/1/1 110/2/1 111/3/1 112/4/1
f 113/24/1 114/25/1 115/26/1 116/27/1

