# Tiled2Unity generated file. Do not modify by hand.
# Wavefront file for 'sunrise_mesh_0093.obj'

# Vertices (Count = 96)
v -5 -10 -0.1
v -6 -10 -0.1
v -6 -9 -0.1
v -5 -9 -0.1
v -6 -10 -0.1
v -7 -10 -0.1
v -7 -9 -0.1
v -6 -9 -0.1
v -7 -10 -0.1
v -8 -10 -0.1
v -8 -9 -0.1
v -7 -9 -0.1
v -8 -10 -0.1
v -9 -10 -0.1
v -9 -9 -0.1
v -8 -9 -0.1
v -5 -11 -0.11
v -6 -11 -0.11
v -6 -10 -0.11
v -5 -10 -0.11
v -6 -11 -0.11
v -7 -11 -0.11
v -7 -10 -0.11
v -6 -10 -0.11
v -7 -11 -0.11
v -8 -11 -0.11
v -8 -10 -0.11
v -7 -10 -0.11
v -8 -11 -0.11
v -9 -11 -0.11
v -9 -10 -0.11
v -8 -10 -0.11
v -9 -11 -0.11
v -10 -11 -0.11
v -10 -10 -0.11
v -9 -10 -0.11
v -15 -11 -0.11
v -16 -11 -0.11
v -16 -10 -0.11
v -15 -10 -0.11
v -4 -12 -0.12
v -5 -12 -0.12
v -5 -11 -0.12
v -4 -11 -0.12
v -5 -12 -0.12
v -6 -12 -0.12
v -6 -11 -0.12
v -5 -11 -0.12
v -9 -12 -0.12
v -10 -12 -0.12
v -10 -11 -0.12
v -9 -11 -0.12
v -10 -12 -0.12
v -11 -12 -0.12
v -11 -11 -0.12
v -10 -11 -0.12
v -11 -12 -0.12
v -12 -12 -0.12
v -12 -11 -0.12
v -11 -11 -0.12
v -3 -13 -0.13
v -4 -13 -0.13
v -4 -12 -0.13
v -3 -12 -0.13
v -4 -13 -0.13
v -5 -13 -0.13
v -5 -12 -0.13
v -4 -12 -0.13
v -5 -13 -0.13
v -6 -13 -0.13
v -6 -12 -0.13
v -5 -12 -0.13
v -9 -13 -0.13
v -10 -13 -0.13
v -10 -12 -0.13
v -9 -12 -0.13
v -10 -13 -0.13
v -11 -13 -0.13
v -11 -12 -0.13
v -10 -12 -0.13
v -11 -13 -0.13
v -12 -13 -0.13
v -12 -12 -0.13
v -11 -12 -0.13
v -3 -14 -0.14
v -4 -14 -0.14
v -4 -13 -0.14
v -3 -13 -0.14
v -3 -15 -0.15
v -4 -15 -0.15
v -4 -14 -0.15
v -3 -14 -0.15
v -3 -16 -0.16
v -4 -16 -0.16
v -4 -15 -0.16
v -3 -15 -0.16

# Texture cooridinates (Count = 47)
vt 0.36 0.68
vt 0.4 0.68
vt 0.4 0.72
vt 0.36 0.72
vt 0.32 0.56
vt 0.36 0.56
vt 0.36 0.6
vt 0.32 0.6
vt 0.2 0.52
vt 0.24 0.52
vt 0.24 0.56
vt 0.2 0.56
vt 0.08 0.56
vt 0.12 0.56
vt 0.12 0.6
vt 0.08 0.6
vt 0.4 0.6
vt 0.4 0.64
vt 0.36 0.64
vt 0.32 0.52
vt 0.36 0.52
vt 0.2 0.48
vt 0.24 0.48
vt 0.08 0.52
vt 0.12 0.52
vt 0.04 0.6
vt 0.08 0.64
vt 0.04 0.64
vt 0.2 0.76
vt 0.24 0.76
vt 0.24 0.8
vt 0.2 0.8
vt 0.4 0.56
vt 0.04 0.56
vt 0.04 0.68
vt 0.08 0.68
vt 0.08 0.72
vt 0.04 0.72
vt 0.4 0.52
vt 0.04 0.52
vt 0.44 0.72
vt 0.44 0.76
vt 0.4 0.76
vt 0.36 0.84
vt 0.4 0.84
vt 0.4 0.88
vt 0.36 0.88

# Normal
vn 0 0 -1

# Mesh description
g sunrise_mesh_0093

# Faces
f 1/1/1 2/2/1 3/3/1 4/4/1
f 5/5/1 6/6/1 7/7/1 8/8/1
f 9/9/1 10/10/1 11/11/1 12/12/1
f 13/13/1 14/14/1 15/15/1 16/16/1
f 17/7/1 18/17/1 19/18/1 20/19/1
f 21/20/1 22/21/1 23/6/1 24/5/1
f 25/22/1 26/23/1 27/10/1 28/9/1
f 29/24/1 30/25/1 31/14/1 32/13/1
f 33/26/1 34/16/1 35/27/1 36/28/1
f 37/29/1 38/30/1 39/31/1 40/32/1
f 41/5/1 42/6/1 43/7/1 44/8/1
f 45/6/1 46/33/1 47/17/1 48/7/1
f 49/34/1 50/13/1 51/16/1 52/26/1
f 53/13/1 54/14/1 55/15/1 56/16/1
f 57/35/1 58/36/1 59/37/1 60/38/1
f 61/7/1 62/17/1 63/18/1 64/19/1
f 65/20/1 66/21/1 67/6/1 68/5/1
f 69/21/1 70/39/1 71/33/1 72/6/1
f 73/40/1 74/24/1 75/13/1 76/34/1
f 77/24/1 78/25/1 79/14/1 80/13/1
f 81/26/1 82/16/1 83/27/1 84/28/1
f 85/3/1 86/41/1 87/42/1 88/43/1
f 89/3/1 90/41/1 91/42/1 92/43/1
f 93/44/1 94/45/1 95/46/1 96/47/1

