# Tiled2Unity generated file. Do not modify by hand.
# Wavefront file for 'sunrise_mesh_0015.obj'

# Vertices (Count = 184)
v -12 -3 -0.03
v -13 -3 -0.03
v -13 -2 -0.03
v -12 -2 -0.03
v -13 -3 -0.03
v -14 -3 -0.03
v -14 -2 -0.03
v -13 -2 -0.03
v -14 -3 -0.03
v -15 -3 -0.03
v -15 -2 -0.03
v -14 -2 -0.03
v -15 -3 -0.03
v -16 -3 -0.03
v -16 -2 -0.03
v -15 -2 -0.03
v -12 -4 -0.04
v -13 -4 -0.04
v -13 -3 -0.04
v -12 -3 -0.04
v -13 -4 -0.04
v -14 -4 -0.04
v -14 -3 -0.04
v -13 -3 -0.04
v -14 -4 -0.04
v -15 -4 -0.04
v -15 -3 -0.04
v -14 -3 -0.04
v -15 -4 -0.04
v -16 -4 -0.04
v -16 -3 -0.04
v -15 -3 -0.04
v -10 -5 -0.05
v -11 -5 -0.05
v -11 -4 -0.05
v -10 -4 -0.05
v -11 -5 -0.05
v -12 -5 -0.05
v -12 -4 -0.05
v -11 -4 -0.05
v -12 -5 -0.05
v -13 -5 -0.05
v -13 -4 -0.05
v -12 -4 -0.05
v -13 -5 -0.05
v -14 -5 -0.05
v -14 -4 -0.05
v -13 -4 -0.05
v -14 -5 -0.05
v -15 -5 -0.05
v -15 -4 -0.05
v -14 -4 -0.05
v -15 -5 -0.05
v -16 -5 -0.05
v -16 -4 -0.05
v -15 -4 -0.05
v -10 -6 -0.06
v -11 -6 -0.06
v -11 -5 -0.06
v -10 -5 -0.06
v -11 -6 -0.06
v -12 -6 -0.06
v -12 -5 -0.06
v -11 -5 -0.06
v -12 -6 -0.06
v -13 -6 -0.06
v -13 -5 -0.06
v -12 -5 -0.06
v -13 -6 -0.06
v -14 -6 -0.06
v -14 -5 -0.06
v -13 -5 -0.06
v -14 -6 -0.06
v -15 -6 -0.06
v -15 -5 -0.06
v -14 -5 -0.06
v -15 -6 -0.06
v -16 -6 -0.06
v -16 -5 -0.06
v -15 -5 -0.06
v -10 -7 -0.07
v -11 -7 -0.07
v -11 -6 -0.07
v -10 -6 -0.07
v -11 -7 -0.07
v -12 -7 -0.07
v -12 -6 -0.07
v -11 -6 -0.07
v -12 -7 -0.07
v -13 -7 -0.07
v -13 -6 -0.07
v -12 -6 -0.07
v -13 -7 -0.07
v -14 -7 -0.07
v -14 -6 -0.07
v -13 -6 -0.07
v -14 -7 -0.07
v -15 -7 -0.07
v -15 -6 -0.07
v -14 -6 -0.07
v -15 -7 -0.07
v -16 -7 -0.07
v -16 -6 -0.07
v -15 -6 -0.07
v -10 -8 -0.08
v -11 -8 -0.08
v -11 -7 -0.08
v -10 -7 -0.08
v -11 -8 -0.08
v -12 -8 -0.08
v -12 -7 -0.08
v -11 -7 -0.08
v -12 -8 -0.08
v -13 -8 -0.08
v -13 -7 -0.08
v -12 -7 -0.08
v -13 -8 -0.08
v -14 -8 -0.08
v -14 -7 -0.08
v -13 -7 -0.08
v -14 -8 -0.08
v -15 -8 -0.08
v -15 -7 -0.08
v -14 -7 -0.08
v -15 -8 -0.08
v -16 -8 -0.08
v -16 -7 -0.08
v -15 -7 -0.08
v -10 -9 -0.09
v -11 -9 -0.09
v -11 -8 -0.09
v -10 -8 -0.09
v -11 -9 -0.09
v -12 -9 -0.09
v -12 -8 -0.09
v -11 -8 -0.09
v -12 -9 -0.09
v -13 -9 -0.09
v -13 -8 -0.09
v -12 -8 -0.09
v -13 -9 -0.09
v -14 -9 -0.09
v -14 -8 -0.09
v -13 -8 -0.09
v -14 -9 -0.09
v -15 -9 -0.09
v -15 -8 -0.09
v -14 -8 -0.09
v -15 -9 -0.09
v -16 -9 -0.09
v -16 -8 -0.09
v -15 -8 -0.09
v -12 -10 -0.1
v -13 -10 -0.1
v -13 -9 -0.1
v -12 -9 -0.1
v -13 -10 -0.1
v -14 -10 -0.1
v -14 -9 -0.1
v -13 -9 -0.1
v -14 -10 -0.1
v -15 -10 -0.1
v -15 -9 -0.1
v -14 -9 -0.1
v -15 -10 -0.1
v -16 -10 -0.1
v -16 -9 -0.1
v -15 -9 -0.1
v -12 -11 -0.11
v -13 -11 -0.11
v -13 -10 -0.11
v -12 -10 -0.11
v -13 -11 -0.11
v -14 -11 -0.11
v -14 -10 -0.11
v -13 -10 -0.11
v -14 -11 -0.11
v -15 -11 -0.11
v -15 -10 -0.11
v -14 -10 -0.11
v -15 -11 -0.11
v -16 -11 -0.11
v -16 -10 -0.11
v -15 -10 -0.11

# Texture cooridinates (Count = 28)
vt 0 0.04000002
vt 0.04 0.04000002
vt 0.04 0.07999998
vt 0 0.07999998
vt 0.08 0.04000002
vt 0.12 0.04000002
vt 0.12 0.07999998
vt 0.08 0.07999998
vt 0.08 0.16
vt 0.12 0.16
vt 0.12 0.2
vt 0.08 0.2
vt 0.04 0.12
vt 0 0.12
vt 0.08 0.12
vt 0.04 0.16
vt 0 0
vt 0.04 0
vt 0.04 0.2
vt 0 0.16
vt 0.2 0.16
vt 0.24 0.16
vt 0.24 0.2
vt 0.2 0.2
vt 0.08 0
vt 0 0.2
vt 0.12 0.12
vt 0.12 0

# Normal
vn 0 0 -1

# Mesh description
g sunrise_mesh_0015

# Faces
f 1/1/1 2/2/1 3/3/1 4/4/1
f 5/5/1 6/6/1 7/7/1 8/8/1
f 9/9/1 10/10/1 11/11/1 12/12/1
f 13/1/1 14/2/1 15/3/1 16/4/1
f 17/1/1 18/2/1 19/3/1 20/4/1
f 21/5/1 22/6/1 23/7/1 24/8/1
f 25/4/1 26/3/1 27/13/1 28/14/1
f 29/13/1 30/15/1 31/9/1 32/16/1
f 33/17/1 34/18/1 35/2/1 36/1/1
f 37/16/1 38/9/1 39/12/1 40/19/1
f 41/13/1 42/15/1 43/9/1 44/16/1
f 45/14/1 46/13/1 47/16/1 48/20/1
f 49/13/1 50/15/1 51/9/1 52/16/1
f 53/2/1 54/5/1 55/8/1 56/3/1
f 57/21/1 58/22/1 59/23/1 60/24/1
f 61/17/1 62/18/1 63/2/1 64/1/1
f 65/18/1 66/25/1 67/5/1 68/2/1
f 69/16/1 70/9/1 71/12/1 72/19/1
f 73/20/1 74/16/1 75/19/1 76/26/1
f 77/18/1 78/25/1 79/5/1 80/2/1
f 81/21/1 82/22/1 83/23/1 84/24/1
f 85/9/1 86/10/1 87/11/1 88/12/1
f 89/4/1 90/3/1 91/13/1 92/14/1
f 93/13/1 94/15/1 95/9/1 96/16/1
f 97/14/1 98/13/1 99/16/1 100/20/1
f 101/8/1 102/7/1 103/27/1 104/15/1
f 105/8/1 106/7/1 107/27/1 108/15/1
f 109/21/1 110/22/1 111/23/1 112/24/1
f 113/17/1 114/18/1 115/2/1 116/1/1
f 117/16/1 118/9/1 119/12/1 120/19/1
f 121/2/1 122/5/1 123/8/1 124/3/1
f 125/5/1 126/6/1 127/7/1 128/8/1
f 129/25/1 130/28/1 131/6/1 132/5/1
f 133/4/1 134/3/1 135/13/1 136/14/1
f 137/3/1 138/8/1 139/15/1 140/13/1
f 141/13/1 142/15/1 143/9/1 144/16/1
f 145/20/1 146/16/1 147/19/1 148/26/1
f 149/25/1 150/28/1 151/6/1 152/5/1
f 153/18/1 154/25/1 155/5/1 156/2/1
f 157/16/1 158/9/1 159/12/1 160/19/1
f 161/14/1 162/13/1 163/16/1 164/20/1
f 165/3/1 166/8/1 167/15/1 168/13/1
f 169/9/1 170/10/1 171/11/1 172/12/1
f 173/17/1 174/18/1 175/2/1 176/1/1
f 177/16/1 178/9/1 179/12/1 180/19/1
f 181/2/1 182/5/1 183/8/1 184/3/1

