# Tiled2Unity generated file. Do not modify by hand.
# Wavefront file for 'sunrise_mesh_0016.obj'

# Vertices (Count = 656)
v -6 -1 -0.01
v -7 -1 -0.01
v -7 0 -0.01
v -6 0 -0.01
v -7 -1 -0.01
v -8 -1 -0.01
v -8 0 -0.01
v -7 0 -0.01
v -8 -1 -0.01
v -9 -1 -0.01
v -9 0 -0.01
v -8 0 -0.01
v -9 -1 -0.01
v -10 -1 -0.01
v -10 0 -0.01
v -9 0 -0.01
v -10 -1 -0.01
v -11 -1 -0.01
v -11 0 -0.01
v -10 0 -0.01
v -11 -1 -0.01
v -12 -1 -0.01
v -12 0 -0.01
v -11 0 -0.01
v -12 -1 -0.01
v -13 -1 -0.01
v -13 0 -0.01
v -12 0 -0.01
v -13 -1 -0.01
v -14 -1 -0.01
v -14 0 -0.01
v -13 0 -0.01
v -6 -2 -0.02
v -7 -2 -0.02
v -7 -1 -0.02
v -6 -1 -0.02
v -7 -2 -0.02
v -8 -2 -0.02
v -8 -1 -0.02
v -7 -1 -0.02
v -8 -2 -0.02
v -9 -2 -0.02
v -9 -1 -0.02
v -8 -1 -0.02
v -9 -2 -0.02
v -10 -2 -0.02
v -10 -1 -0.02
v -9 -1 -0.02
v -10 -2 -0.02
v -11 -2 -0.02
v -11 -1 -0.02
v -10 -1 -0.02
v -11 -2 -0.02
v -12 -2 -0.02
v -12 -1 -0.02
v -11 -1 -0.02
v -12 -2 -0.02
v -13 -2 -0.02
v -13 -1 -0.02
v -12 -1 -0.02
v -13 -2 -0.02
v -14 -2 -0.02
v -14 -1 -0.02
v -13 -1 -0.02
v 0 -3 -0.03
v -1 -3 -0.03
v -1 -2 -0.03
v 0 -2 -0.03
v -1 -3 -0.03
v -2 -3 -0.03
v -2 -2 -0.03
v -1 -2 -0.03
v -6 -3 -0.03
v -7 -3 -0.03
v -7 -2 -0.03
v -6 -2 -0.03
v -7 -3 -0.03
v -8 -3 -0.03
v -8 -2 -0.03
v -7 -2 -0.03
v -8 -3 -0.03
v -9 -3 -0.03
v -9 -2 -0.03
v -8 -2 -0.03
v -9 -3 -0.03
v -10 -3 -0.03
v -10 -2 -0.03
v -9 -2 -0.03
v -10 -3 -0.03
v -11 -3 -0.03
v -11 -2 -0.03
v -10 -2 -0.03
v -11 -3 -0.03
v -12 -3 -0.03
v -12 -2 -0.03
v -11 -2 -0.03
v -12 -3 -0.03
v -13 -3 -0.03
v -13 -2 -0.03
v -12 -2 -0.03
v -13 -3 -0.03
v -14 -3 -0.03
v -14 -2 -0.03
v -13 -2 -0.03
v 0 -4 -0.04
v -1 -4 -0.04
v -1 -3 -0.04
v 0 -3 -0.04
v -1 -4 -0.04
v -2 -4 -0.04
v -2 -3 -0.04
v -1 -3 -0.04
v -6 -4 -0.04
v -7 -4 -0.04
v -7 -3 -0.04
v -6 -3 -0.04
v -7 -4 -0.04
v -8 -4 -0.04
v -8 -3 -0.04
v -7 -3 -0.04
v -8 -4 -0.04
v -9 -4 -0.04
v -9 -3 -0.04
v -8 -3 -0.04
v -9 -4 -0.04
v -10 -4 -0.04
v -10 -3 -0.04
v -9 -3 -0.04
v -10 -4 -0.04
v -11 -4 -0.04
v -11 -3 -0.04
v -10 -3 -0.04
v -11 -4 -0.04
v -12 -4 -0.04
v -12 -3 -0.04
v -11 -3 -0.04
v -12 -4 -0.04
v -13 -4 -0.04
v -13 -3 -0.04
v -12 -3 -0.04
v -13 -4 -0.04
v -14 -4 -0.04
v -14 -3 -0.04
v -13 -3 -0.04
v 0 -5 -0.05
v -1 -5 -0.05
v -1 -4 -0.05
v 0 -4 -0.05
v -1 -5 -0.05
v -2 -5 -0.05
v -2 -4 -0.05
v -1 -4 -0.05
v -2 -5 -0.05
v -3 -5 -0.05
v -3 -4 -0.05
v -2 -4 -0.05
v -3 -5 -0.05
v -4 -5 -0.05
v -4 -4 -0.05
v -3 -4 -0.05
v -6 -5 -0.05
v -7 -5 -0.05
v -7 -4 -0.05
v -6 -4 -0.05
v -7 -5 -0.05
v -8 -5 -0.05
v -8 -4 -0.05
v -7 -4 -0.05
v -8 -5 -0.05
v -9 -5 -0.05
v -9 -4 -0.05
v -8 -4 -0.05
v -9 -5 -0.05
v -10 -5 -0.05
v -10 -4 -0.05
v -9 -4 -0.05
v -10 -5 -0.05
v -11 -5 -0.05
v -11 -4 -0.05
v -10 -4 -0.05
v -11 -5 -0.05
v -12 -5 -0.05
v -12 -4 -0.05
v -11 -4 -0.05
v -12 -5 -0.05
v -13 -5 -0.05
v -13 -4 -0.05
v -12 -4 -0.05
v -13 -5 -0.05
v -14 -5 -0.05
v -14 -4 -0.05
v -13 -4 -0.05
v 0 -6 -0.06
v -1 -6 -0.06
v -1 -5 -0.06
v 0 -5 -0.06
v -1 -6 -0.06
v -2 -6 -0.06
v -2 -5 -0.06
v -1 -5 -0.06
v -2 -6 -0.06
v -3 -6 -0.06
v -3 -5 -0.06
v -2 -5 -0.06
v -3 -6 -0.06
v -4 -6 -0.06
v -4 -5 -0.06
v -3 -5 -0.06
v -4 -6 -0.06
v -5 -6 -0.06
v -5 -5 -0.06
v -4 -5 -0.06
v -5 -6 -0.06
v -6 -6 -0.06
v -6 -5 -0.06
v -5 -5 -0.06
v -6 -6 -0.06
v -7 -6 -0.06
v -7 -5 -0.06
v -6 -5 -0.06
v -7 -6 -0.06
v -8 -6 -0.06
v -8 -5 -0.06
v -7 -5 -0.06
v -8 -6 -0.06
v -9 -6 -0.06
v -9 -5 -0.06
v -8 -5 -0.06
v -9 -6 -0.06
v -10 -6 -0.06
v -10 -5 -0.06
v -9 -5 -0.06
v -10 -6 -0.06
v -11 -6 -0.06
v -11 -5 -0.06
v -10 -5 -0.06
v -11 -6 -0.06
v -12 -6 -0.06
v -12 -5 -0.06
v -11 -5 -0.06
v -12 -6 -0.06
v -13 -6 -0.06
v -13 -5 -0.06
v -12 -5 -0.06
v -13 -6 -0.06
v -14 -6 -0.06
v -14 -5 -0.06
v -13 -5 -0.06
v 0 -7 -0.07
v -1 -7 -0.07
v -1 -6 -0.07
v 0 -6 -0.07
v -1 -7 -0.07
v -2 -7 -0.07
v -2 -6 -0.07
v -1 -6 -0.07
v -2 -7 -0.07
v -3 -7 -0.07
v -3 -6 -0.07
v -2 -6 -0.07
v -3 -7 -0.07
v -4 -7 -0.07
v -4 -6 -0.07
v -3 -6 -0.07
v -4 -7 -0.07
v -5 -7 -0.07
v -5 -6 -0.07
v -4 -6 -0.07
v -5 -7 -0.07
v -6 -7 -0.07
v -6 -6 -0.07
v -5 -6 -0.07
v -6 -7 -0.07
v -7 -7 -0.07
v -7 -6 -0.07
v -6 -6 -0.07
v -7 -7 -0.07
v -8 -7 -0.07
v -8 -6 -0.07
v -7 -6 -0.07
v -8 -7 -0.07
v -9 -7 -0.07
v -9 -6 -0.07
v -8 -6 -0.07
v -9 -7 -0.07
v -10 -7 -0.07
v -10 -6 -0.07
v -9 -6 -0.07
v -10 -7 -0.07
v -11 -7 -0.07
v -11 -6 -0.07
v -10 -6 -0.07
v -11 -7 -0.07
v -12 -7 -0.07
v -12 -6 -0.07
v -11 -6 -0.07
v -12 -7 -0.07
v -13 -7 -0.07
v -13 -6 -0.07
v -12 -6 -0.07
v -13 -7 -0.07
v -14 -7 -0.07
v -14 -6 -0.07
v -13 -6 -0.07
v 0 -8 -0.08
v -1 -8 -0.08
v -1 -7 -0.08
v 0 -7 -0.08
v -1 -8 -0.08
v -2 -8 -0.08
v -2 -7 -0.08
v -1 -7 -0.08
v -2 -8 -0.08
v -3 -8 -0.08
v -3 -7 -0.08
v -2 -7 -0.08
v -3 -8 -0.08
v -4 -8 -0.08
v -4 -7 -0.08
v -3 -7 -0.08
v -4 -8 -0.08
v -5 -8 -0.08
v -5 -7 -0.08
v -4 -7 -0.08
v -5 -8 -0.08
v -6 -8 -0.08
v -6 -7 -0.08
v -5 -7 -0.08
v -6 -8 -0.08
v -7 -8 -0.08
v -7 -7 -0.08
v -6 -7 -0.08
v -7 -8 -0.08
v -8 -8 -0.08
v -8 -7 -0.08
v -7 -7 -0.08
v -8 -8 -0.08
v -9 -8 -0.08
v -9 -7 -0.08
v -8 -7 -0.08
v -9 -8 -0.08
v -10 -8 -0.08
v -10 -7 -0.08
v -9 -7 -0.08
v -10 -8 -0.08
v -11 -8 -0.08
v -11 -7 -0.08
v -10 -7 -0.08
v -11 -8 -0.08
v -12 -8 -0.08
v -12 -7 -0.08
v -11 -7 -0.08
v -12 -8 -0.08
v -13 -8 -0.08
v -13 -7 -0.08
v -12 -7 -0.08
v -13 -8 -0.08
v -14 -8 -0.08
v -14 -7 -0.08
v -13 -7 -0.08
v 0 -9 -0.09
v -1 -9 -0.09
v -1 -8 -0.09
v 0 -8 -0.09
v -1 -9 -0.09
v -2 -9 -0.09
v -2 -8 -0.09
v -1 -8 -0.09
v -2 -9 -0.09
v -3 -9 -0.09
v -3 -8 -0.09
v -2 -8 -0.09
v -3 -9 -0.09
v -4 -9 -0.09
v -4 -8 -0.09
v -3 -8 -0.09
v -6 -9 -0.09
v -7 -9 -0.09
v -7 -8 -0.09
v -6 -8 -0.09
v -7 -9 -0.09
v -8 -9 -0.09
v -8 -8 -0.09
v -7 -8 -0.09
v -8 -9 -0.09
v -9 -9 -0.09
v -9 -8 -0.09
v -8 -8 -0.09
v -9 -9 -0.09
v -10 -9 -0.09
v -10 -8 -0.09
v -9 -8 -0.09
v -10 -9 -0.09
v -11 -9 -0.09
v -11 -8 -0.09
v -10 -8 -0.09
v -11 -9 -0.09
v -12 -9 -0.09
v -12 -8 -0.09
v -11 -8 -0.09
v -12 -9 -0.09
v -13 -9 -0.09
v -13 -8 -0.09
v -12 -8 -0.09
v 0 -10 -0.1
v -1 -10 -0.1
v -1 -9 -0.1
v 0 -9 -0.1
v -1 -10 -0.1
v -2 -10 -0.1
v -2 -9 -0.1
v -1 -9 -0.1
v -5 -10 -0.1
v -6 -10 -0.1
v -6 -9 -0.1
v -5 -9 -0.1
v -6 -10 -0.1
v -7 -10 -0.1
v -7 -9 -0.1
v -6 -9 -0.1
v -7 -10 -0.1
v -8 -10 -0.1
v -8 -9 -0.1
v -7 -9 -0.1
v -8 -10 -0.1
v -9 -10 -0.1
v -9 -9 -0.1
v -8 -9 -0.1
v -9 -10 -0.1
v -10 -10 -0.1
v -10 -9 -0.1
v -9 -9 -0.1
v -10 -10 -0.1
v -11 -10 -0.1
v -11 -9 -0.1
v -10 -9 -0.1
v -11 -10 -0.1
v -12 -10 -0.1
v -12 -9 -0.1
v -11 -9 -0.1
v -12 -10 -0.1
v -13 -10 -0.1
v -13 -9 -0.1
v -12 -9 -0.1
v 0 -11 -0.11
v -1 -11 -0.11
v -1 -10 -0.11
v 0 -10 -0.11
v -1 -11 -0.11
v -2 -11 -0.11
v -2 -10 -0.11
v -1 -10 -0.11
v -5 -11 -0.11
v -6 -11 -0.11
v -6 -10 -0.11
v -5 -10 -0.11
v -6 -11 -0.11
v -7 -11 -0.11
v -7 -10 -0.11
v -6 -10 -0.11
v -7 -11 -0.11
v -8 -11 -0.11
v -8 -10 -0.11
v -7 -10 -0.11
v -8 -11 -0.11
v -9 -11 -0.11
v -9 -10 -0.11
v -8 -10 -0.11
v -9 -11 -0.11
v -10 -11 -0.11
v -10 -10 -0.11
v -9 -10 -0.11
v -10 -11 -0.11
v -11 -11 -0.11
v -11 -10 -0.11
v -10 -10 -0.11
v -11 -11 -0.11
v -12 -11 -0.11
v -12 -10 -0.11
v -11 -10 -0.11
v -12 -11 -0.11
v -13 -11 -0.11
v -13 -10 -0.11
v -12 -10 -0.11
v -13 -11 -0.11
v -14 -11 -0.11
v -14 -10 -0.11
v -13 -10 -0.11
v -5 -12 -0.12
v -6 -12 -0.12
v -6 -11 -0.12
v -5 -11 -0.12
v -6 -12 -0.12
v -7 -12 -0.12
v -7 -11 -0.12
v -6 -11 -0.12
v -7 -12 -0.12
v -8 -12 -0.12
v -8 -11 -0.12
v -7 -11 -0.12
v -8 -12 -0.12
v -9 -12 -0.12
v -9 -11 -0.12
v -8 -11 -0.12
v -9 -12 -0.12
v -10 -12 -0.12
v -10 -11 -0.12
v -9 -11 -0.12
v -10 -12 -0.12
v -11 -12 -0.12
v -11 -11 -0.12
v -10 -11 -0.12
v -11 -12 -0.12
v -12 -12 -0.12
v -12 -11 -0.12
v -11 -11 -0.12
v -12 -12 -0.12
v -13 -12 -0.12
v -13 -11 -0.12
v -12 -11 -0.12
v -13 -12 -0.12
v -14 -12 -0.12
v -14 -11 -0.12
v -13 -11 -0.12
v -5 -13 -0.13
v -6 -13 -0.13
v -6 -12 -0.13
v -5 -12 -0.13
v -6 -13 -0.13
v -7 -13 -0.13
v -7 -12 -0.13
v -6 -12 -0.13
v -7 -13 -0.13
v -8 -13 -0.13
v -8 -12 -0.13
v -7 -12 -0.13
v -8 -13 -0.13
v -9 -13 -0.13
v -9 -12 -0.13
v -8 -12 -0.13
v -9 -13 -0.13
v -10 -13 -0.13
v -10 -12 -0.13
v -9 -12 -0.13
v -10 -13 -0.13
v -11 -13 -0.13
v -11 -12 -0.13
v -10 -12 -0.13
v -11 -13 -0.13
v -12 -13 -0.13
v -12 -12 -0.13
v -11 -12 -0.13
v -12 -13 -0.13
v -13 -13 -0.13
v -13 -12 -0.13
v -12 -12 -0.13
v -13 -13 -0.13
v -14 -13 -0.13
v -14 -12 -0.13
v -13 -12 -0.13
v -5 -14 -0.14
v -6 -14 -0.14
v -6 -13 -0.14
v -5 -13 -0.14
v -6 -14 -0.14
v -7 -14 -0.14
v -7 -13 -0.14
v -6 -13 -0.14
v -7 -14 -0.14
v -8 -14 -0.14
v -8 -13 -0.14
v -7 -13 -0.14
v -8 -14 -0.14
v -9 -14 -0.14
v -9 -13 -0.14
v -8 -13 -0.14
v -9 -14 -0.14
v -10 -14 -0.14
v -10 -13 -0.14
v -9 -13 -0.14
v -10 -14 -0.14
v -11 -14 -0.14
v -11 -13 -0.14
v -10 -13 -0.14
v -11 -14 -0.14
v -12 -14 -0.14
v -12 -13 -0.14
v -11 -13 -0.14
v -12 -14 -0.14
v -13 -14 -0.14
v -13 -13 -0.14
v -12 -13 -0.14
v -13 -14 -0.14
v -14 -14 -0.14
v -14 -13 -0.14
v -13 -13 -0.14
v -6 -15 -0.15
v -7 -15 -0.15
v -7 -14 -0.15
v -6 -14 -0.15
v -7 -15 -0.15
v -8 -15 -0.15
v -8 -14 -0.15
v -7 -14 -0.15
v -8 -15 -0.15
v -9 -15 -0.15
v -9 -14 -0.15
v -8 -14 -0.15
v -9 -15 -0.15
v -10 -15 -0.15
v -10 -14 -0.15
v -9 -14 -0.15
v -10 -15 -0.15
v -11 -15 -0.15
v -11 -14 -0.15
v -10 -14 -0.15
v -11 -15 -0.15
v -12 -15 -0.15
v -12 -14 -0.15
v -11 -14 -0.15
v -12 -15 -0.15
v -13 -15 -0.15
v -13 -14 -0.15
v -12 -14 -0.15
v -13 -15 -0.15
v -14 -15 -0.15
v -14 -14 -0.15
v -13 -14 -0.15
v -6 -16 -0.16
v -7 -16 -0.16
v -7 -15 -0.16
v -6 -15 -0.16
v -7 -16 -0.16
v -8 -16 -0.16
v -8 -15 -0.16
v -7 -15 -0.16
v -8 -16 -0.16
v -9 -16 -0.16
v -9 -15 -0.16
v -8 -15 -0.16
v -9 -16 -0.16
v -10 -16 -0.16
v -10 -15 -0.16
v -9 -15 -0.16
v -10 -16 -0.16
v -11 -16 -0.16
v -11 -15 -0.16
v -10 -15 -0.16
v -11 -16 -0.16
v -12 -16 -0.16
v -12 -15 -0.16
v -11 -15 -0.16
v -12 -16 -0.16
v -13 -16 -0.16
v -13 -15 -0.16
v -12 -15 -0.16

# Texture cooridinates (Count = 32)
vt 0.2 0.16
vt 0.24 0.16
vt 0.24 0.2
vt 0.2 0.2
vt 0 0.04000002
vt 0.04 0.04000002
vt 0.04 0.07999998
vt 0 0.07999998
vt 0 0.12
vt 0.04 0.12
vt 0.04 0.16
vt 0 0.16
vt 0.08 0.12
vt 0.08 0.16
vt 0.08 0
vt 0.12 0
vt 0.12 0.04000002
vt 0.08 0.04000002
vt 0.08 0.07999998
vt 0.12 0.16
vt 0.12 0.2
vt 0.08 0.2
vt 0 0
vt 0.04 0
vt 0.04 0.2
vt 0 0.2
vt 0.12 0.07999998
vt 0.12 0.12
vt 0 0.48
vt 0.04 0.48
vt 0.04 0.52
vt 0 0.52

# Normal
vn 0 0 -1

# Mesh description
g sunrise_mesh_0016

# Faces
f 1/1/1 2/2/1 3/3/1 4/4/1
f 5/5/1 6/6/1 7/7/1 8/8/1
f 9/9/1 10/10/1 11/11/1 12/12/1
f 13/10/1 14/13/1 15/14/1 16/11/1
f 17/8/1 18/7/1 19/10/1 20/9/1
f 21/15/1 22/16/1 23/17/1 24/18/1
f 25/8/1 26/7/1 27/10/1 28/9/1
f 29/7/1 30/19/1 31/13/1 32/10/1
f 33/14/1 34/20/1 35/21/1 36/22/1
f 37/23/1 38/24/1 39/6/1 40/5/1
f 41/11/1 42/14/1 43/22/1 44/25/1
f 45/12/1 46/11/1 47/25/1 48/26/1
f 49/15/1 50/16/1 51/17/1 52/18/1
f 53/1/1 54/2/1 55/3/1 56/4/1
f 57/23/1 58/24/1 59/6/1 60/5/1
f 61/24/1 62/15/1 63/18/1 64/6/1
f 65/18/1 66/17/1 67/27/1 68/19/1
f 69/1/1 70/2/1 71/3/1 72/4/1
f 73/8/1 74/7/1 75/10/1 76/9/1
f 77/7/1 78/19/1 79/13/1 80/10/1
f 81/10/1 82/13/1 83/14/1 84/11/1
f 85/9/1 86/10/1 87/11/1 88/12/1
f 89/7/1 90/19/1 91/13/1 92/10/1
f 93/19/1 94/27/1 95/28/1 96/13/1
f 97/1/1 98/2/1 99/3/1 100/4/1
f 101/8/1 102/7/1 103/10/1 104/9/1
f 105/9/1 106/10/1 107/11/1 108/12/1
f 109/19/1 110/27/1 111/28/1 112/13/1
f 113/10/1 114/13/1 115/14/1 116/11/1
f 117/13/1 118/28/1 119/20/1 120/14/1
f 121/12/1 122/11/1 123/25/1 124/26/1
f 125/11/1 126/14/1 127/22/1 128/25/1
f 129/13/1 130/28/1 131/20/1 132/14/1
f 133/9/1 134/10/1 135/11/1 136/12/1
f 137/19/1 138/27/1 139/28/1 140/13/1
f 141/23/1 142/24/1 143/6/1 144/5/1
f 145/13/1 146/28/1 147/20/1 148/14/1
f 149/18/1 150/17/1 151/27/1 152/19/1
f 153/8/1 154/7/1 155/10/1 156/9/1
f 157/10/1 158/13/1 159/14/1 160/11/1
f 161/6/1 162/18/1 163/19/1 164/7/1
f 165/12/1 166/11/1 167/25/1 168/26/1
f 169/15/1 170/16/1 171/17/1 172/18/1
f 173/23/1 174/24/1 175/6/1 176/5/1
f 177/24/1 178/15/1 179/18/1 180/6/1
f 181/11/1 182/14/1 183/22/1 184/25/1
f 185/9/1 186/10/1 187/11/1 188/12/1
f 189/19/1 190/27/1 191/28/1 192/13/1
f 193/11/1 194/14/1 195/22/1 196/25/1
f 197/9/1 198/10/1 199/11/1 200/12/1
f 201/10/1 202/13/1 203/14/1 204/11/1
f 205/6/1 206/18/1 207/19/1 208/7/1
f 209/6/1 210/18/1 211/19/1 212/7/1
f 213/13/1 214/28/1 215/20/1 216/14/1
f 217/12/1 218/11/1 219/25/1 220/26/1
f 221/15/1 222/16/1 223/17/1 224/18/1
f 225/1/1 226/2/1 227/3/1 228/4/1
f 229/14/1 230/20/1 231/21/1 232/22/1
f 233/8/1 234/7/1 235/10/1 236/9/1
f 237/10/1 238/13/1 239/14/1 240/11/1
f 241/13/1 242/28/1 243/20/1 244/14/1
f 245/9/1 246/10/1 247/11/1 248/12/1
f 249/23/1 250/24/1 251/6/1 252/5/1
f 253/24/1 254/15/1 255/18/1 256/6/1
f 257/11/1 258/14/1 259/22/1 260/25/1
f 261/13/1 262/28/1 263/20/1 264/14/1
f 265/6/1 266/18/1 267/19/1 268/7/1
f 269/12/1 270/11/1 271/25/1 272/26/1
f 273/15/1 274/16/1 275/17/1 276/18/1
f 277/8/1 278/7/1 279/10/1 280/9/1
f 281/19/1 282/27/1 283/28/1 284/13/1
f 285/8/1 286/7/1 287/10/1 288/9/1
f 289/10/1 290/13/1 291/14/1 292/11/1
f 293/12/1 294/11/1 295/25/1 296/26/1
f 297/24/1 298/15/1 299/18/1 300/6/1
f 301/11/1 302/14/1 303/22/1 304/25/1
f 305/14/1 306/20/1 307/21/1 308/22/1
f 309/8/1 310/7/1 311/10/1 312/9/1
f 313/10/1 314/13/1 315/14/1 316/11/1
f 317/12/1 318/11/1 319/25/1 320/26/1
f 321/13/1 322/28/1 323/20/1 324/14/1
f 325/9/1 326/10/1 327/11/1 328/12/1
f 329/7/1 330/19/1 331/13/1 332/10/1
f 333/10/1 334/13/1 335/14/1 336/11/1
f 337/9/1 338/10/1 339/11/1 340/12/1
f 341/10/1 342/13/1 343/14/1 344/11/1
f 345/12/1 346/11/1 347/25/1 348/26/1
f 349/15/1 350/16/1 351/17/1 352/18/1
f 353/8/1 354/7/1 355/10/1 356/9/1
f 357/10/1 358/13/1 359/14/1 360/11/1
f 361/8/1 362/7/1 363/10/1 364/9/1
f 365/10/1 366/13/1 367/14/1 368/11/1
f 369/12/1 370/11/1 371/25/1 372/26/1
f 373/15/1 374/16/1 375/17/1 376/18/1
f 377/29/1 378/30/1 379/31/1 380/32/1
f 381/6/1 382/18/1 383/19/1 384/7/1
f 385/12/1 386/11/1 387/25/1 388/26/1
f 389/11/1 390/14/1 391/22/1 392/25/1
f 393/18/1 394/17/1 395/27/1 396/19/1
f 397/14/1 398/20/1 399/21/1 400/22/1
f 401/29/1 402/30/1 403/31/1 404/32/1
f 405/10/1 406/13/1 407/14/1 408/11/1
f 409/6/1 410/18/1 411/19/1 412/7/1
f 413/23/1 414/24/1 415/6/1 416/5/1
f 417/11/1 418/14/1 419/22/1 420/25/1
f 421/13/1 422/28/1 423/20/1 424/14/1
f 425/9/1 426/10/1 427/11/1 428/12/1
f 429/10/1 430/13/1 431/14/1 432/11/1
f 433/9/1 434/10/1 435/11/1 436/12/1
f 437/19/1 438/27/1 439/28/1 440/13/1
f 441/23/1 442/24/1 443/6/1 444/5/1
f 445/6/1 446/18/1 447/19/1 448/7/1
f 449/6/1 450/18/1 451/19/1 452/7/1
f 453/1/1 454/2/1 455/3/1 456/4/1
f 457/23/1 458/24/1 459/6/1 460/5/1
f 461/24/1 462/15/1 463/18/1 464/6/1
f 465/11/1 466/14/1 467/22/1 468/25/1
f 469/12/1 470/11/1 471/25/1 472/26/1
f 473/11/1 474/14/1 475/22/1 476/25/1
f 477/9/1 478/10/1 479/11/1 480/12/1
f 481/19/1 482/27/1 483/28/1 484/13/1
f 485/5/1 486/6/1 487/7/1 488/8/1
f 489/1/1 490/2/1 491/3/1 492/4/1
f 493/14/1 494/20/1 495/21/1 496/22/1
f 497/8/1 498/7/1 499/10/1 500/9/1
f 501/10/1 502/13/1 503/14/1 504/11/1
f 505/9/1 506/10/1 507/11/1 508/12/1
f 509/10/1 510/13/1 511/14/1 512/11/1
f 513/12/1 514/11/1 515/25/1 516/26/1
f 517/15/1 518/16/1 519/17/1 520/18/1
f 521/5/1 522/6/1 523/7/1 524/8/1
f 525/1/1 526/2/1 527/3/1 528/4/1
f 529/1/1 530/2/1 531/3/1 532/4/1
f 533/23/1 534/24/1 535/6/1 536/5/1
f 537/11/1 538/14/1 539/22/1 540/25/1
f 541/12/1 542/11/1 543/25/1 544/26/1
f 545/11/1 546/14/1 547/22/1 548/25/1
f 549/9/1 550/10/1 551/11/1 552/12/1
f 553/19/1 554/27/1 555/28/1 556/13/1
f 557/23/1 558/24/1 559/6/1 560/5/1
f 561/14/1 562/20/1 563/21/1 564/22/1
f 565/1/1 566/2/1 567/3/1 568/4/1
f 569/8/1 570/7/1 571/10/1 572/9/1
f 573/10/1 574/13/1 575/14/1 576/11/1
f 577/18/1 578/17/1 579/27/1 580/19/1
f 581/23/1 582/24/1 583/6/1 584/5/1
f 585/11/1 586/14/1 587/22/1 588/25/1
f 589/18/1 590/17/1 591/27/1 592/19/1
f 593/14/1 594/20/1 595/21/1 596/22/1
f 597/8/1 598/7/1 599/10/1 600/9/1
f 601/10/1 602/13/1 603/14/1 604/11/1
f 605/6/1 606/18/1 607/19/1 608/7/1
f 609/18/1 610/17/1 611/27/1 612/19/1
f 613/8/1 614/7/1 615/10/1 616/9/1
f 617/10/1 618/13/1 619/14/1 620/11/1
f 621/9/1 622/10/1 623/11/1 624/12/1
f 625/7/1 626/19/1 627/13/1 628/10/1
f 629/23/1 630/24/1 631/6/1 632/5/1
f 633/11/1 634/14/1 635/22/1 636/25/1
f 637/13/1 638/28/1 639/20/1 640/14/1
f 641/9/1 642/10/1 643/11/1 644/12/1
f 645/10/1 646/13/1 647/14/1 648/11/1
f 649/13/1 650/28/1 651/20/1 652/14/1
f 653/12/1 654/11/1 655/25/1 656/26/1

