# Tiled2Unity generated file. Do not modify by hand.
# Wavefront file for 'sunrise_mesh_0146.obj'

# Vertices (Count = 132)
v -5 -1 -0.01
v -6 -1 -0.01
v -6 0 -0.01
v -5 0 -0.01
v -5 -2 -0.02
v -6 -2 -0.02
v -6 -1 -0.02
v -5 -1 -0.02
v -5 -3 -0.03
v -6 -3 -0.03
v -6 -2 -0.03
v -5 -2 -0.03
v -5 -4 -0.04
v -6 -4 -0.04
v -6 -3 -0.04
v -5 -3 -0.04
v -5 -5 -0.05
v -6 -5 -0.05
v -6 -4 -0.05
v -5 -4 -0.05
v -7 -5 -0.05
v -8 -5 -0.05
v -8 -4 -0.05
v -7 -4 -0.05
v -7 -6 -0.06
v -8 -6 -0.06
v -8 -5 -0.06
v -7 -5 -0.06
v -7 -7 -0.07
v -8 -7 -0.07
v -8 -6 -0.07
v -7 -6 -0.07
v -7 -8 -0.08
v -8 -8 -0.08
v -8 -7 -0.08
v -7 -7 -0.08
v 0 -9 -0.09
v -1 -9 -0.09
v -1 -8 -0.09
v 0 -8 -0.09
v -6 -9 -0.09
v -7 -9 -0.09
v -7 -8 -0.09
v -6 -8 -0.09
v -7 -9 -0.09
v -8 -9 -0.09
v -8 -8 -0.09
v -7 -8 -0.09
v 0 -10 -0.1
v -1 -10 -0.1
v -1 -9 -0.1
v 0 -9 -0.1
v -1 -10 -0.1
v -2 -10 -0.1
v -2 -9 -0.1
v -1 -9 -0.1
v -6 -10 -0.1
v -7 -10 -0.1
v -7 -9 -0.1
v -6 -9 -0.1
v -1 -11 -0.11
v -2 -11 -0.11
v -2 -10 -0.11
v -1 -10 -0.11
v -2 -11 -0.11
v -3 -11 -0.11
v -3 -10 -0.11
v -2 -10 -0.11
v -6 -11 -0.11
v -7 -11 -0.11
v -7 -10 -0.11
v -6 -10 -0.11
v -7 -11 -0.11
v -8 -11 -0.11
v -8 -10 -0.11
v -7 -10 -0.11
v -2 -12 -0.12
v -3 -12 -0.12
v -3 -11 -0.12
v -2 -11 -0.12
v -6 -12 -0.12
v -7 -12 -0.12
v -7 -11 -0.12
v -6 -11 -0.12
v -7 -12 -0.12
v -8 -12 -0.12
v -8 -11 -0.12
v -7 -11 -0.12
v -2 -13 -0.13
v -3 -13 -0.13
v -3 -12 -0.13
v -2 -12 -0.13
v -6 -13 -0.13
v -7 -13 -0.13
v -7 -12 -0.13
v -6 -12 -0.13
v -7 -13 -0.13
v -8 -13 -0.13
v -8 -12 -0.13
v -7 -12 -0.13
v -2 -14 -0.14
v -3 -14 -0.14
v -3 -13 -0.14
v -2 -13 -0.14
v -7 -14 -0.14
v -8 -14 -0.14
v -8 -13 -0.14
v -7 -13 -0.14
v -2 -15 -0.15
v -3 -15 -0.15
v -3 -14 -0.15
v -2 -14 -0.15
v -3 -15 -0.15
v -4 -15 -0.15
v -4 -14 -0.15
v -3 -14 -0.15
v -4 -15 -0.15
v -5 -15 -0.15
v -5 -14 -0.15
v -4 -14 -0.15
v -5 -15 -0.15
v -6 -15 -0.15
v -6 -14 -0.15
v -5 -14 -0.15
v -6 -15 -0.15
v -7 -15 -0.15
v -7 -14 -0.15
v -6 -14 -0.15
v -7 -15 -0.15
v -8 -15 -0.15
v -8 -14 -0.15
v -7 -14 -0.15

# Texture cooridinates (Count = 26)
vt 0.44 0.24
vt 0.48 0.24
vt 0.48 0.28
vt 0.44 0.28
vt 0.08 0.32
vt 0.12 0.32
vt 0.12 0.36
vt 0.08 0.36
vt 0.08 0.28
vt 0.12 0.28
vt 0.08 0.24
vt 0.12 0.24
vt 0.36 0.28
vt 0.4 0.28
vt 0.4 0.32
vt 0.36 0.32
vt 0.48 0.32
vt 0.44 0.32
vt 0.44 0.2
vt 0.48 0.2
vt 0.36 0.2
vt 0.4 0.2
vt 0.4 0.24
vt 0.36 0.24
vt 0.52 0.28
vt 0.52 0.32

# Normal
vn 0 0 -1

# Mesh description
g sunrise_mesh_0146

# Faces
f 1/1/1 2/2/1 3/3/1 4/4/1
f 5/1/1 6/2/1 7/3/1 8/4/1
f 9/5/1 10/6/1 11/7/1 12/8/1
f 13/9/1 14/10/1 15/6/1 16/5/1
f 17/11/1 18/12/1 19/10/1 20/9/1
f 21/1/1 22/2/1 23/3/1 24/4/1
f 25/1/1 26/2/1 27/3/1 28/4/1
f 29/1/1 30/2/1 31/3/1 32/4/1
f 33/1/1 34/2/1 35/3/1 36/4/1
f 37/13/1 38/14/1 39/15/1 40/16/1
f 41/4/1 42/3/1 43/17/1 44/18/1
f 45/19/1 46/20/1 47/2/1 48/1/1
f 49/21/1 50/22/1 51/23/1 52/24/1
f 53/13/1 54/14/1 55/15/1 56/16/1
f 57/1/1 58/2/1 59/3/1 60/4/1
f 61/21/1 62/22/1 63/23/1 64/24/1
f 65/13/1 66/14/1 67/15/1 68/16/1
f 69/5/1 70/6/1 71/7/1 72/8/1
f 73/3/1 74/25/1 75/26/1 76/17/1
f 77/24/1 78/23/1 79/14/1 80/13/1
f 81/9/1 82/10/1 83/6/1 84/5/1
f 85/1/1 86/2/1 87/3/1 88/4/1
f 89/24/1 90/23/1 91/14/1 92/13/1
f 93/11/1 94/12/1 95/10/1 96/9/1
f 97/1/1 98/2/1 99/3/1 100/4/1
f 101/24/1 102/23/1 103/14/1 104/13/1
f 105/1/1 106/2/1 107/3/1 108/4/1
f 109/21/1 110/22/1 111/23/1 112/24/1
f 113/22/1 114/19/1 115/1/1 116/23/1
f 117/22/1 118/19/1 119/1/1 120/23/1
f 121/22/1 122/19/1 123/1/1 124/23/1
f 125/22/1 126/19/1 127/1/1 128/23/1
f 129/19/1 130/20/1 131/2/1 132/1/1

