# Tiled2Unity generated file. Do not modify by hand.
# Wavefront file for 'sunrise_mesh_0158.obj'

# Vertices (Count = 24)
v -13 -11 -0.11
v -14 -11 -0.11
v -14 -10 -0.11
v -13 -10 -0.11
v -13 -12 -0.12
v -14 -12 -0.12
v -14 -11 -0.12
v -13 -11 -0.12
v -13 -13 -0.13
v -14 -13 -0.13
v -14 -12 -0.13
v -13 -12 -0.13
v -13 -14 -0.14
v -14 -14 -0.14
v -14 -13 -0.14
v -13 -13 -0.14
v -13 -15 -0.15
v -14 -15 -0.15
v -14 -14 -0.15
v -13 -14 -0.15
v -13 -16 -0.16
v -14 -16 -0.16
v -14 -15 -0.16
v -13 -15 -0.16

# Texture cooridinates (Count = 4)
vt 0.36 0.24
vt 0.4 0.24
vt 0.4 0.28
vt 0.36 0.28

# Normal
vn 0 0 -1

# Mesh description
g sunrise_mesh_0158

# Faces
f 1/1/1 2/2/1 3/3/1 4/4/1
f 5/1/1 6/2/1 7/3/1 8/4/1
f 9/1/1 10/2/1 11/3/1 12/4/1
f 13/1/1 14/2/1 15/3/1 16/4/1
f 17/1/1 18/2/1 19/3/1 20/4/1
f 21/1/1 22/2/1 23/3/1 24/4/1

