# Tiled2Unity generated file. Do not modify by hand.
# Wavefront file for 'sunrise_mesh_0107.obj'

# Vertices (Count = 72)
v -15 -3 -0.03
v -16 -3 -0.03
v -16 -2 -0.03
v -15 -2 -0.03
v -15 -4 -0.04
v -16 -4 -0.04
v -16 -3 -0.04
v -15 -3 -0.04
v -14 -5 -0.05
v -15 -5 -0.05
v -15 -4 -0.05
v -14 -4 -0.05
v -15 -5 -0.05
v -16 -5 -0.05
v -16 -4 -0.05
v -15 -4 -0.05
v -11 -6 -0.06
v -12 -6 -0.06
v -12 -5 -0.06
v -11 -5 -0.06
v -12 -6 -0.06
v -13 -6 -0.06
v -13 -5 -0.06
v -12 -5 -0.06
v -13 -6 -0.06
v -14 -6 -0.06
v -14 -5 -0.06
v -13 -5 -0.06
v -14 -6 -0.06
v -15 -6 -0.06
v -15 -5 -0.06
v -14 -5 -0.06
v -15 -6 -0.06
v -16 -6 -0.06
v -16 -5 -0.06
v -15 -5 -0.06
v -11 -7 -0.07
v -12 -7 -0.07
v -12 -6 -0.07
v -11 -6 -0.07
v -12 -7 -0.07
v -13 -7 -0.07
v -13 -6 -0.07
v -12 -6 -0.07
v -13 -7 -0.07
v -14 -7 -0.07
v -14 -6 -0.07
v -13 -6 -0.07
v -14 -7 -0.07
v -15 -7 -0.07
v -15 -6 -0.07
v -14 -6 -0.07
v -11 -8 -0.08
v -12 -8 -0.08
v -12 -7 -0.08
v -11 -7 -0.08
v -12 -8 -0.08
v -13 -8 -0.08
v -13 -7 -0.08
v -12 -7 -0.08
v -13 -8 -0.08
v -14 -8 -0.08
v -14 -7 -0.08
v -13 -7 -0.08
v -14 -8 -0.08
v -15 -8 -0.08
v -15 -7 -0.08
v -14 -7 -0.08
v -11 -9 -0.09
v -12 -9 -0.09
v -12 -8 -0.09
v -11 -8 -0.09

# Texture cooridinates (Count = 22)
vt 0.04 0.32
vt 0.08 0.32
vt 0.08 0.36
vt 0.04 0.36
vt 0.04 0.28
vt 0.08 0.28
vt 0.04 0.24
vt 0.08 0.24
vt 0.16 0.44
vt 0.2 0.44
vt 0.2 0.48
vt 0.16 0.48
vt 0.24 0.44
vt 0.24 0.48
vt 0.04 0.2
vt 0.08 0.2
vt 0.16 0.4
vt 0.2 0.4
vt 0.24 0.4
vt 0.16 0.36
vt 0.2 0.36
vt 0.24 0.36

# Normal
vn 0 0 -1

# Mesh description
g sunrise_mesh_0107

# Faces
f 1/1/1 2/2/1 3/3/1 4/4/1
f 5/5/1 6/6/1 7/2/1 8/1/1
f 9/1/1 10/2/1 11/3/1 12/4/1
f 13/7/1 14/8/1 15/6/1 16/5/1
f 17/1/1 18/2/1 19/3/1 20/4/1
f 21/9/1 22/10/1 23/11/1 24/12/1
f 25/10/1 26/13/1 27/14/1 28/11/1
f 29/5/1 30/6/1 31/2/1 32/1/1
f 33/15/1 34/16/1 35/8/1 36/7/1
f 37/5/1 38/6/1 39/2/1 40/1/1
f 41/17/1 42/18/1 43/10/1 44/9/1
f 45/18/1 46/19/1 47/13/1 48/10/1
f 49/7/1 50/8/1 51/6/1 52/5/1
f 53/7/1 54/8/1 55/6/1 56/5/1
f 57/20/1 58/21/1 59/18/1 60/17/1
f 61/21/1 62/22/1 63/19/1 64/18/1
f 65/15/1 66/16/1 67/8/1 68/7/1
f 69/15/1 70/16/1 71/8/1 72/7/1

